<?xml version="1.0" standalone="no"?>
<!DOCTYPE svg PUBLIC "-//W3C//DTD SVG 1.1//EN" "http://www.w3.org/Graphics/SVG/1.1/DTD/svg11.dtd" >
<svg xmlns="http://www.w3.org/2000/svg" xmlns:xlink="http://www.w3.org/1999/xlink" version="1.1">
<metadata>
Created by FontForge 20190801 at Mon Jul  3 16:48:06 2023
 By root
Copyright (c) 2008-2023 Monotype Imaging Inc. All rights reserved.
</metadata>
<defs>
<font id="BentonSansPro-Bold" horiz-adv-x="650" >
  <font-face 
    font-family="Benton Sans Pro"
    font-weight="700"
    font-stretch="normal"
    units-per-em="1000"
    panose-1="0 0 0 0 0 0 0 0 0 0"
    ascent="787"
    descent="-213"
    x-height="533"
    cap-height="740"
    bbox="-107 -294 1511 1098"
    underline-thickness="0"
    underline-position="0"
    unicode-range="U+0020-FEFF"
  />
<missing-glyph horiz-adv-x="500" 
d="M0 0v700h500v-700h-500zM50 650v-600h400v600h-400z" />
    <glyph glyph-name="f_f" unicode="ff" horiz-adv-x="733" 
d="M269 0h-160v416h-89v117h89v37q0 174 166 174q58 0 90 -7v-111q-9 3 -39 3q-57 0 -57 -64v-32h161v37q0 80 38.5 127t146.5 47q65 0 97 -7v-112q-18 4 -47 4q-36 0 -55.5 -12.5t-19.5 -51.5v-32h116v-117h-116v-416h-160v416h-161v-416z" />
    <glyph glyph-name="f_i" unicode="fi" horiz-adv-x="663" 
d="M591 597h-162v138h162v-138zM269 0h-160v416h-89v117h89v37q0 174 166 174q58 0 90 -7v-111q-9 3 -39 3q-57 0 -57 -64v-32h98v-117h-98v-416zM590 0h-160v533h160v-533z" />
    <glyph glyph-name="f_l" unicode="fl" horiz-adv-x="659" 
d="M590 0h-160v740h160v-740zM269 0h-160v416h-89v117h89v37q0 174 166 174q58 0 90 -7v-111q-9 3 -39 3q-57 0 -57 -64v-32h98v-117h-98v-416z" />
    <glyph glyph-name="f_f_i" unicode="ffi" horiz-adv-x="978" 
d="M911 597h-161v138h161v-138zM911 0h-161v533h161v-533zM269 0h-160v416h-89v117h89v37q0 174 166 174q58 0 90 -7v-111q-9 3 -39 3q-57 0 -57 -64v-32h161v37q0 174 166 174q55 0 90 -7v-111q-9 3 -40 3q-56 0 -56 -64v-32h97v-117h-97v-416h-160v416h-161v-416z" />
    <glyph glyph-name="f_f_l" unicode="ffl" horiz-adv-x="978" 
d="M911 0h-161v740h161v-740zM269 0h-160v416h-89v117h89v37q0 174 166 174q58 0 90 -7v-111q-9 3 -39 3q-57 0 -57 -64v-32h161v37q0 174 166 174q55 0 90 -7v-111q-9 3 -40 3q-56 0 -56 -64v-32h97v-117h-97v-416h-160v416h-161v-416z" />
    <glyph glyph-name="f_j" unicode="fj" horiz-adv-x="659" 
d="M591 597h-162v138h162v-138zM269 0h-160v416h-89v117h89v37q0 174 166 174q58 0 90 -7v-111q-9 3 -39 3q-57 0 -57 -64v-32h98v-117h-98v-416zM417 -203q-67 0 -98 7v109q18 -6 46 -6q33 0 49 17t16 56v553h160v-584q0 -32 -6 -55.5t-23 -47.5t-53.5 -36.5t-90.5 -12.5z
" />
    <glyph glyph-name=".notdef" horiz-adv-x="500" 
d="M0 0v700h500v-700h-500zM50 650v-600h400v600h-400z" />
    <glyph glyph-name=".null" horiz-adv-x="0" 
 />
    <glyph glyph-name="nonmarkingreturn" horiz-adv-x="333" 
 />
    <glyph glyph-name="space" unicode=" " horiz-adv-x="269" 
 />
    <glyph glyph-name="space" unicode="&#xa0;" horiz-adv-x="269" 
 />
    <glyph glyph-name="exclam" unicode="!" horiz-adv-x="357" 
d="M243 234h-121l-41 506h202zM268 0h-172v148h172v-148z" />
    <glyph glyph-name="quotedbl" unicode="&#x22;" horiz-adv-x="460" 
d="M379 470h-102l-17 196v74h136v-74zM183 470h-103l-17 196v74h137v-74z" />
    <glyph glyph-name="numbersign" unicode="#" horiz-adv-x="763" 
d="M332 435l-28 -130h112l27 130h-111zM240 0h-144l39 186h-110v119h135l27 130h-119v119h144l39 186h144l-39 -186h112l39 186h144l-39 -186h125v-119h-150l-27 -130h134v-119h-159l-39 -186h-144l39 186h-111z" />
    <glyph glyph-name="dollar" unicode="$" horiz-adv-x="683" 
d="M299 456v178q-44 -6 -66 -29.5t-22 -58.5t21 -55.5t67 -34.5zM387 293v-190q96 14 96 93q0 37 -23 59.5t-73 37.5zM294 -93v84q-164 16 -251 159l109 70q37 -51 69 -79t78 -37v212q-42 10 -72 20t-63 28t-53.5 39.5t-34 54.5t-13.5 74q0 94 62 152t169 66v69h96v-72
q136 -18 215 -132l-108 -78q-25 37 -50 59t-60 32v-195q120 -28 182 -76.5t62 -145.5q0 -88 -60 -148.5t-181 -71.5v-84h-96z" />
    <glyph glyph-name="percent" unicode="%" horiz-adv-x="1108" 
d="M244 268q-94 0 -147.5 65.5t-53.5 176.5t54 176.5t147 65.5q92 0 145.5 -65.5t53.5 -175.5t-53.5 -176.5t-145.5 -66.5zM402 0h-138l442 740h138zM244 369q67 0 67 141q0 139 -67 139q-69 0 -69 -138q0 -142 69 -142zM865 -10q-93 0 -146.5 66t-53.5 176q0 111 54 177
t147 66q92 0 145.5 -66t53.5 -176t-53.5 -176.5t-146.5 -66.5zM866 92q67 0 67 141q0 138 -68 138t-68 -138q0 -141 69 -141z" />
    <glyph glyph-name="ampersand" unicode="&#x26;" horiz-adv-x="743" 
d="M319 465q88 50 88 121q0 26 -13.5 44.5t-41.5 18.5t-46.5 -19t-18.5 -54q0 -52 32 -111zM296 98q55 0 101 29q-44 42 -101 114q-26 33 -52 69q-65 -44 -65 -104q0 -51 32 -79.5t85 -28.5zM295 -14q-135 0 -207 52.5t-72 144.5q0 82 45 132.5t125 88.5q-47 91 -47 163
q0 79 53.5 133t156.5 54q95 0 143.5 -47t48.5 -115q0 -76 -45 -124t-126 -88q8 -12 45 -58q47 -58 81 -91q37 63 47 150h137q-19 -135 -76 -227q60 -33 136 -33v-131q-138 1 -236 57q-88 -61 -209 -61z" />
    <glyph glyph-name="quotesingle" unicode="'" horiz-adv-x="264" 
d="M183 470h-103l-17 196v74h137v-74z" />
    <glyph glyph-name="parenleft" unicode="(" horiz-adv-x="404" 
d="M379 -132l-79 -73q-127 107 -191.5 225.5t-64.5 264.5t64.5 264.5t191.5 225.5l74 -78q-162 -180 -162 -412q0 -238 167 -417z" />
    <glyph glyph-name="parenright" unicode=")" horiz-adv-x="404" 
d="M104 -205l-79 73q166 179 166 417q0 233 -162 412l75 78q127 -107 191 -225.5t64 -264.5t-64 -264.5t-191 -225.5z" />
    <glyph glyph-name="asterisk" unicode="*" horiz-adv-x="508" 
d="M254 451l-71 -149l-84 50l93 135l-165 -11v94l166 -12l-94 136l84 50l71 -149l71 149l85 -50l-94 -136l165 12v-94l-165 11l94 -135l-84 -50z" />
    <glyph glyph-name="plus" unicode="+" horiz-adv-x="646" 
d="M387 87h-128v200h-192v127h192v200h128v-200h192v-127h-192v-200z" />
    <glyph glyph-name="comma" unicode="," horiz-adv-x="282" 
d="M153 -120h-75l42 120h-65v155h172v-133z" />
    <glyph glyph-name="hyphen" unicode="-" horiz-adv-x="357" 
d="M310 260h-263v108h263v-108z" />
    <glyph glyph-name="hyphen" unicode="&#x2011;" horiz-adv-x="357" 
d="M310 260h-263v108h263v-108z" />
    <glyph glyph-name="hyphen" unicode="&#x2010;" horiz-adv-x="357" 
d="M310 260h-263v108h263v-108z" />
    <glyph glyph-name="hyphen" unicode="&#xad;" horiz-adv-x="357" 
d="M310 260h-263v108h263v-108z" />
    <glyph glyph-name="period" unicode="." horiz-adv-x="282" 
d="M227 0h-172v155h172v-155z" />
    <glyph glyph-name="slash" unicode="/" horiz-adv-x="641" 
d="M188 0h-165l430 740h165z" />
    <glyph glyph-name="zero" unicode="0" horiz-adv-x="696" 
d="M348 -14q-144 0 -226 104.5t-82 279.5t82 279.5t226 104.5t225.5 -104t81.5 -280t-81.5 -280t-225.5 -104zM348 113q71 0 108.5 65.5t37.5 191.5q0 125 -37.5 189.5t-108.5 64.5q-146 0 -146 -254q0 -126 38 -191.5t108 -65.5z" />
    <glyph glyph-name="one" unicode="1" horiz-adv-x="458" 
d="M440 0h-408v127h134v466q-64 -34 -132 -34v133q88 3 136 48h153v-613h117v-127z" />
    <glyph glyph-name="two" unicode="2" horiz-adv-x="614" 
d="M570 0h-544v16q0 45 7.5 81t29.5 79t68 87t116 89q98 62 129 93t31 83q0 42 -25.5 66t-71.5 24q-44 0 -87 -28t-75 -78l-115 81q105 161 282 161q118 0 184 -58t66 -157q0 -70 -33 -126.5t-131 -118.5q-88 -56 -133.5 -96t-48.5 -71h351v-127z" />
    <glyph glyph-name="three" unicode="3" horiz-adv-x="623" 
d="M299 -14q-184 0 -288 127l101 90q35 -43 83.5 -65.5t96.5 -22.5q62 0 94.5 26.5t32.5 76.5q0 60 -43 84.5t-134 24.5h-37v119h40q93 0 126 25t33 68q0 82 -107 82q-94 0 -167 -70l-89 102q49 47 122.5 73.5t152.5 26.5q120 0 184.5 -49.5t64.5 -139.5q0 -66 -38 -111.5
t-107 -60.5q82 -13 125.5 -62.5t43.5 -121.5q0 -103 -79.5 -162.5t-210.5 -59.5z" />
    <glyph glyph-name="four" unicode="4" horiz-adv-x="676" 
d="M538 0h-157v145h-359v118l337 477h179v-467h125v-128h-125v-145zM379 546l-189 -273h191v273h-2z" />
    <glyph glyph-name="five" unicode="5" horiz-adv-x="609" 
d="M293 -14q-168 0 -277 98l82 107q83 -76 185 -76q71 0 106 35.5t35 95.5q0 64 -33 99t-95 35q-79 0 -136 -71l-105 33l30 398h449l-8 -123h-316l-14 -164q48 46 149 46q115 0 178 -68t63 -179q0 -120 -79 -193t-214 -73z" />
    <glyph glyph-name="six" unicode="6" horiz-adv-x="654" 
d="M342 -14q-136 0 -219 97t-83 274q0 102 28.5 181t76.5 124.5t104 68.5t117 23q127 0 215 -62l-69 -110q-64 43 -139 43q-72 0 -119.5 -57t-54.5 -158q87 67 185 67q105 0 172 -58.5t67 -176.5q0 -115 -77.5 -185.5t-203.5 -70.5zM349 109q57 0 89 36.5t32 89.5
t-27.5 87.5t-91.5 34.5q-88 0 -152 -62q12 -186 150 -186z" />
    <glyph glyph-name="seven" unicode="7" horiz-adv-x="539" 
d="M245 0h-164l283 609h-352v131h518v-120z" />
    <glyph glyph-name="eight" unicode="8" horiz-adv-x="638" 
d="M319 -14q-140 0 -219 54.5t-79 150.5q0 66 45.5 115.5t118.5 79.5q-66 34 -98 74.5t-32 106.5q0 76 70 131.5t194 55.5q127 0 195 -55.5t68 -131.5q0 -118 -128 -176q81 -36 121.5 -79.5t40.5 -120.5q0 -96 -79 -150.5t-218 -54.5zM330 444q51 25 73 49t22 59
q0 34 -26 60.5t-79 26.5q-54 0 -80.5 -24.5t-26.5 -59.5q0 -39 28 -63t89 -48zM319 97q62 0 98 29.5t36 73.5q0 41 -33 69t-113 60q-122 -59 -122 -129q0 -44 36 -73.5t98 -29.5z" />
    <glyph glyph-name="nine" unicode="9" horiz-adv-x="654" 
d="M303 383q89 0 151 62q-10 182 -149 182q-58 0 -89.5 -34.5t-31.5 -87.5q0 -122 119 -122zM288 -14q-131 0 -220 65l70 106q67 -46 143 -46q72 0 119 59t54 160q-87 -67 -185 -67q-105 0 -171.5 59t-66.5 176q0 115 77.5 185.5t203.5 70.5q136 0 218.5 -97t82.5 -274
q0 -102 -28.5 -181t-76 -124.5t-103.5 -68.5t-117 -23z" />
    <glyph glyph-name="colon" unicode=":" horiz-adv-x="295" 
d="M234 378h-173v155h173v-155zM234 0h-173v155h173v-155z" />
    <glyph glyph-name="semicolon" unicode=";" horiz-adv-x="295" 
d="M234 378h-173v155h173v-155zM157 -120h-75l43 120h-64v155h173v-129z" />
    <glyph glyph-name="less" unicode="&#x3c;" horiz-adv-x="646" 
d="M589 180v-132l-529 232v88l529 232v-132l-357 -144z" />
    <glyph glyph-name="equal" unicode="=" horiz-adv-x="646" 
d="M575 385h-505v114h505v-114zM575 157h-505v114h505v-114z" />
    <glyph glyph-name="greater" unicode="&#x3e;" horiz-adv-x="646" 
d="M591 280l-529 -232v132l357 144l-357 144v132l529 -232v-88z" />
    <glyph glyph-name="question" unicode="?" horiz-adv-x="594" 
d="M343 232h-132q-4 36 -4 72q0 95 106 152q44 25 62 46t18 56q0 31 -25 49.5t-69 18.5q-47 0 -94 -25t-78 -62l-97 91q111 124 286 124q111 0 173 -50.5t62 -132.5q0 -64 -31 -103.5t-87 -69.5q-65 -33 -77.5 -59.5t-12.5 -106.5zM363 0h-172v148h172v-148z" />
    <glyph glyph-name="at" unicode="@" horiz-adv-x="868" 
d="M425 -14q-174 0 -278.5 107t-104.5 275t109.5 277t284.5 109q174 0 282 -104.5t108 -269.5q0 -103 -52 -165.5t-145 -62.5q-104 0 -133 89q-72 -76 -157 -76q-62 0 -98 40.5t-36 113.5q0 120 55.5 194t135.5 74q74 0 116 -51l7 43h122l-49 -298q-12 -63 55 -63
q48 0 78 42t30 116q0 138 -87.5 223.5t-232.5 85.5t-231 -88t-86 -229t84.5 -230.5t227.5 -89.5q112 0 188 51l34 -49q-91 -64 -227 -64zM392 258q41 0 81 40l25 154q-31 34 -72 34q-47 0 -72.5 -45.5t-25.5 -108.5q0 -37 14.5 -55.5t49.5 -18.5z" />
    <glyph glyph-name="A" unicode="A" horiz-adv-x="713" 
d="M351 535l-87 -252h174l-85 252h-2zM167 0h-150l262 743h155l262 -743h-165l-55 165h-252z" />
    <glyph glyph-name="B" unicode="B" horiz-adv-x="713" 
d="M387 0h-311v740h296q264 0 264 -183q0 -74 -39.5 -116t-101.5 -54v-2q161 -29 161 -181q0 -104 -77 -154t-192 -50zM236 614v-179h120q124 0 124 89q0 90 -122 90h-122zM236 320v-196h131q130 0 130 99q0 97 -137 97h-124z" />
    <glyph glyph-name="C" unicode="C" horiz-adv-x="729" 
d="M377 -14q-151 0 -243.5 98t-92.5 287q0 185 94.5 284t241.5 99q244 0 300 -233l-154 -45q-20 70 -53 106.5t-94 36.5q-83 0 -127.5 -66t-44.5 -182q0 -118 45.5 -186t128.5 -68q63 0 99.5 38.5t56.5 117.5l153 -34q-61 -253 -310 -253z" />
    <glyph glyph-name="D" unicode="D" horiz-adv-x="740" 
d="M303 0h-227v740h227q88 0 158 -19.5t124.5 -61.5t84 -114.5t29.5 -170.5q0 -101 -30 -175t-85 -116.5t-124.5 -62.5t-156.5 -20zM238 604v-472h76q120 0 171 56.5t51 183.5q0 120 -52 176t-172 56h-74z" />
    <glyph glyph-name="E" unicode="E" horiz-adv-x="633" 
d="M598 0h-522v740h504v-136h-341v-159h247v-129h-247v-184h359v-132z" />
    <glyph glyph-name="F" unicode="F" horiz-adv-x="586" 
d="M239 0h-163v740h489v-136h-326v-180h232v-129h-232v-295z" />
    <glyph glyph-name="G" unicode="G" horiz-adv-x="761" 
d="M365 -14q-161 0 -242.5 105.5t-81.5 281.5q0 175 91 278t246 103q113 0 189.5 -54.5t109.5 -182.5l-149 -41q-23 76 -59 109.5t-92 33.5q-21 0 -41.5 -5t-45 -21t-42.5 -41.5t-30.5 -71t-12.5 -104.5q0 -74 16.5 -127.5t44 -80.5t56.5 -39t62 -12q60 0 100.5 35.5
t51.5 97.5h-129v121h284v-371h-131v102h-2q-15 -41 -66 -78.5t-127 -37.5z" />
    <glyph glyph-name="H" unicode="H" horiz-adv-x="769" 
d="M239 0h-163v740h163v-287h291v287h163v-740h-163v316h-291v-316z" />
    <glyph glyph-name="I" unicode="I" horiz-adv-x="330" 
d="M246 0h-162v740h162v-740z" />
    <glyph glyph-name="J" unicode="J" horiz-adv-x="535" 
d="M226 -14q-127 0 -216 82l91 102q60 -54 117 -54q92 0 92 127v497h163v-522q0 -109 -60 -170.5t-187 -61.5z" />
    <glyph glyph-name="K" unicode="K" horiz-adv-x="718" 
d="M239 0h-163v740h163v-306l248 306h190l-251 -289l277 -451h-184l-199 328l-81 -91v-237z" />
    <glyph glyph-name="L" unicode="L" horiz-adv-x="586" 
d="M565 0h-489v740h163v-608h326v-132z" />
    <glyph glyph-name="M" unicode="M" horiz-adv-x="908" 
d="M222 0h-146v740h215l165 -544h2l154 544h220v-740h-157v505h-2q-11 -63 -41 -165l-111 -340h-144l-110 340q-27 90 -43 173h-2v-513z" />
    <glyph glyph-name="N" unicode="N" horiz-adv-x="777" 
d="M226 0h-150v740h163l310 -472h2v472h150v-740h-150l-323 476h-2v-476z" />
    <glyph glyph-name="O" unicode="O" horiz-adv-x="780" 
d="M390 -14q-69 0 -130.5 24t-111 70t-78.5 121t-29 169t29 169t78.5 121t111 70t130.5 24q144 0 246 -100t102 -284t-102 -284t-246 -100zM390 117q85 0 135.5 68.5t50.5 184.5t-50 182.5t-136 66.5t-136 -66.5t-50 -182.5q0 -117 50 -185t136 -68z" />
    <glyph glyph-name="P" unicode="P" horiz-adv-x="676" 
d="M238 0h-162v740h269q65 0 115 -10t94.5 -35t68.5 -73.5t24 -118.5q0 -240 -304 -240h-105v-263zM238 607v-218h111q74 0 106.5 27.5t32.5 82.5q0 54 -32.5 81t-106.5 27h-111z" />
    <glyph glyph-name="Q" unicode="Q" horiz-adv-x="780" 
d="M667 -198h-127q-110 0 -175 54.5t-68 141.5q-113 26 -185 122t-72 250q0 94 29 169t78.5 121t111 70t130.5 24q144 0 246 -100t102 -284q0 -159 -77.5 -256.5t-197.5 -119.5q14 -41 49.5 -52t104.5 -11h51v-129zM389 117q85 0 135 68.5t50 184.5t-49.5 182.5t-135.5 66.5
q-87 0 -137 -66.5t-50 -182.5t50.5 -184.5t136.5 -68.5z" />
    <glyph glyph-name="R" unicode="R" horiz-adv-x="705" 
d="M236 607v-202h111q72 0 105.5 23.5t33.5 78.5q0 54 -33.5 77t-105.5 23h-111zM236 0h-160v740h278q291 0 291 -229q0 -164 -154 -211l165 -300h-172l-154 279h-94v-279z" />
    <glyph glyph-name="S" unicode="S" horiz-adv-x="692" 
d="M351 -14q-221 0 -315 182l123 73q31 -60 83.5 -93t116.5 -33q58 0 93.5 22t35.5 63q0 39 -35 62t-115 45q-126 35 -172 61q-98 55 -98 165q0 102 73 161.5t194 59.5q194 0 294 -152l-113 -86q-29 48 -78.5 76.5t-103.5 28.5q-51 0 -79 -20t-28 -54q0 -41 35 -62.5
t117 -44.5q50 -13 79 -22.5t70 -29t63.5 -41t39 -57t16.5 -79.5q0 -96 -75 -160.5t-221 -64.5z" />
    <glyph glyph-name="T" unicode="T" horiz-adv-x="648" 
d="M405 0h-163v604h-220v136h604v-136h-221v-604z" />
    <glyph glyph-name="U" unicode="U" horiz-adv-x="725" 
d="M363 -12q-150 0 -224.5 77.5t-74.5 217.5v457h163v-453q0 -167 138 -167q136 0 136 167v453h160v-456q0 -141 -74 -218.5t-224 -77.5z" />
    <glyph glyph-name="V" unicode="V" horiz-adv-x="698" 
d="M426 -3h-154l-255 743h165l169 -529h2l175 529h153z" />
    <glyph glyph-name="W" unicode="W" horiz-adv-x="956" 
d="M359 0h-141l-197 740h164l78 -337q27 -102 36 -162h2q8 56 34 161l75 338h150l80 -340q30 -127 35 -159h2q6 43 33 157l75 342h150l-193 -740h-139l-117 515h-2z" />
    <glyph glyph-name="X" unicode="X" horiz-adv-x="725" 
d="M203 0h-171l237 391l-216 349h186l132 -222l125 222h168l-211 -350l240 -390h-181l-157 259z" />
    <glyph glyph-name="Y" unicode="Y" horiz-adv-x="691" 
d="M426 0h-162v314l-255 426h168l169 -288l170 288h166l-256 -426v-314z" />
    <glyph glyph-name="Z" unicode="Z" horiz-adv-x="660" 
d="M621 0h-591v112l386 493h-361v135h566v-116l-378 -492h378v-132z" />
    <glyph glyph-name="bracketleft" unicode="[" horiz-adv-x="444" 
d="M415 -200h-346v940h346v-112h-184v-716h184v-112z" />
    <glyph glyph-name="backslash" unicode="\" horiz-adv-x="611" 
d="M603 0h-165l-430 740h165z" />
    <glyph glyph-name="bracketright" unicode="]" horiz-adv-x="444" 
d="M374 -200h-346v112h184v716h-184v112h346v-940z" />
    <glyph glyph-name="asciicircum" unicode="^" horiz-adv-x="646" 
d="M49 326l233 414h87l232 -414h-131l-145 252l-144 -252h-132z" />
    <glyph glyph-name="underscore" unicode="_" horiz-adv-x="500" 
d="M500 -158h-500v112h500v-112z" />
    <glyph glyph-name="grave" unicode="`" horiz-adv-x="500" 
d="M246 590l-148 173h161l93 -173h-106z" />
    <glyph glyph-name="a" unicode="a" horiz-adv-x="577" 
d="M242 113q76 0 122 46v99q-181 -19 -181 -94q0 -25 16 -38t43 -13zM178 -8q-64 0 -108 39t-44 105q0 93 82 144.5t256 65.5v13q0 64 -72 64q-90 0 -175 -66l-68 92q105 95 266 95q107 0 156.5 -52t49.5 -157v-205q0 -93 15 -130h-160q-12 38 -12 78q-77 -86 -186 -86z" />
    <glyph glyph-name="b" unicode="b" horiz-adv-x="624" 
d="M384 -8q-99 0 -162 71v-63h-161v740h161v-289q66 93 164 93q94 0 149.5 -71.5t55.5 -205.5t-56 -204.5t-151 -70.5zM329 113q50 0 75.5 39.5t25.5 113.5q0 145 -103 145q-53 0 -105 -52v-197q52 -49 107 -49z" />
    <glyph glyph-name="c" unicode="c" horiz-adv-x="555" 
d="M294 -11q-50 0 -94.5 14.5t-83 45.5t-61.5 87t-23 130q0 76 25 132.5t66 87t85.5 44.5t92.5 14q100 0 152.5 -44t79.5 -119l-135 -45q-15 49 -38.5 69.5t-60.5 20.5q-50 0 -78 -41.5t-28 -119.5q0 -75 25.5 -119t78.5 -44q75 0 105 95l133 -46q-66 -162 -241 -162z" />
    <glyph glyph-name="d" unicode="d" horiz-adv-x="624" 
d="M297 113q54 0 104 52v197q-52 49 -106 49q-102 0 -102 -148q0 -70 26 -110t78 -40zM237 -8q-94 0 -149.5 68t-55.5 202q0 135 56.5 208.5t150.5 73.5q105 0 162 -78v274h161v-610q0 -94 16 -130h-165q-12 22 -12 80q-64 -88 -164 -88z" />
    <glyph glyph-name="e" unicode="e" horiz-adv-x="577" 
d="M304 -11q-55 0 -101.5 15t-86 46t-62 86.5t-22.5 129.5t26 130.5t67.5 87t86 45.5t88.5 15q46 0 85.5 -13t77.5 -44t60 -92.5t22 -147.5v-24h-353q11 -122 124 -122q88 0 158 64l62 -96q-94 -80 -232 -80zM194 318h207q-12 111 -102 111q-40 0 -68 -27.5t-37 -83.5z" />
    <glyph glyph-name="f" unicode="f" horiz-adv-x="405" 
d="M269 0h-160v416h-89v117h89v37q0 37 7 65t25.5 54.5t57 40.5t95.5 14q66 0 97 -7v-112q-16 4 -47 4q-36 0 -55.5 -12.5t-19.5 -51.5v-32h116v-117h-116v-416z" />
    <glyph glyph-name="g" unicode="g" horiz-adv-x="615" 
d="M282 252q43 0 67 26.5t24 68.5t-23.5 68.5t-67.5 26.5q-43 0 -67 -26.5t-24 -68.5t24.5 -68.5t66.5 -26.5zM271 -200q-150 0 -213 30.5t-63 89.5q0 69 92 107q-36 23 -36 64q0 60 77 109q-88 52 -88 153q0 83 64 137t176 54q115 0 179 -58q26 23 64.5 38t72.5 17v-123
q-44 0 -90 -12q10 -23 10 -53q0 -84 -62.5 -137t-173.5 -53q-39 0 -82 9q-18 -15 -18 -27q0 -14 14 -19t46 -7l80 -5q137 -5 197 -40.5t60 -110.5q0 -80 -84 -121.5t-222 -41.5zM297 -119q63 0 101 14.5t38 40.5q0 27 -26.5 38.5t-115.5 15.5l-84 4q-24 2 -35 3
q-30 -19 -30 -48q0 -35 35.5 -51.5t116.5 -16.5z" />
    <glyph glyph-name="h" unicode="h" horiz-adv-x="618" 
d="M222 0h-161v740h161v-291q72 95 184 95q72 0 114 -38t42 -117v-389h-161v338q0 73 -62 73q-55 0 -117 -53v-358z" />
    <glyph glyph-name="i" unicode="i" horiz-adv-x="294" 
d="M228 606h-162v129h162v-129zM227 0h-160v533h160v-533z" />
    <glyph glyph-name="j" unicode="j" horiz-adv-x="294" 
d="M228 606h-162v129h162v-129zM54 -203q-66 0 -98 7v109q18 -6 46 -6q33 0 49 17t16 56v553h160v-584q0 -32 -6 -55.5t-22.5 -47.5t-53 -36.5t-91.5 -12.5z" />
    <glyph glyph-name="k" unicode="k" horiz-adv-x="585" 
d="M222 0h-161v740h161v-406l166 199h173l-174 -199l184 -334h-166l-118 217l-65 -73v-144z" />
    <glyph glyph-name="l" unicode="l" horiz-adv-x="294" 
d="M227 0h-160v740h160v-740z" />
    <glyph glyph-name="m" unicode="m" horiz-adv-x="932" 
d="M222 0h-161v533h161v-84q72 95 175 95q121 0 146 -95q74 95 176 95q78 0 117 -44t39 -119v-381h-161v338q0 38 -12 55.5t-46 17.5q-47 0 -107 -53v-358h-161v338q0 38 -12 55.5t-46 17.5q-46 0 -108 -53v-358z" />
    <glyph glyph-name="n" unicode="n" horiz-adv-x="618" 
d="M223 0h-161v533h161v-84q72 95 184 95q71 0 113 -38t42 -117v-389h-160v338q0 73 -63 73q-54 0 -116 -53v-358z" />
    <glyph glyph-name="o" unicode="o" horiz-adv-x="609" 
d="M305 -11q-51 0 -97.5 14.5t-87 45.5t-64.5 87t-24 130q0 75 24 131t64.5 87t86.5 45.5t98 14.5q51 0 97 -14.5t86.5 -45.5t64.5 -87t24 -131q0 -74 -24 -130t-64 -87t-86.5 -45.5t-97.5 -14.5zM305 102q55 0 83 43.5t28 119.5q0 72 -27 116.5t-84 44.5q-56 0 -84 -43
t-28 -118q0 -73 27 -118t85 -45z" />
    <glyph glyph-name="p" unicode="p" horiz-adv-x="624" 
d="M329 113q50 0 75.5 39.5t25.5 113.5q0 145 -103 145q-53 0 -105 -52v-197q52 -49 107 -49zM222 -200h-161v733h161v-81q67 92 164 92q94 0 149.5 -71.5t55.5 -205.5t-56 -204.5t-151 -70.5q-99 0 -162 71v-263z" />
    <glyph glyph-name="q" unicode="q" horiz-adv-x="624" 
d="M562 -200h-161v276q-67 -84 -164 -84q-94 0 -149.5 68t-55.5 202q0 135 56.5 208.5t150.5 73.5q103 0 162 -77v66h161v-733zM297 113q54 0 104 52v197q-52 49 -106 49q-102 0 -102 -148q0 -70 26 -110t78 -40z" />
    <glyph glyph-name="r" unicode="r" horiz-adv-x="423" 
d="M222 0h-161v533h161v-89h1q64 100 180 100h5l-2 -143q-18 3 -42 3q-86 0 -142 -73v-331z" />
    <glyph glyph-name="s" unicode="s" horiz-adv-x="534" 
d="M271 -11q-153 0 -249 82l64 90q36 -32 86 -50.5t99 -18.5q39 0 62 13.5t23 38.5q0 27 -22.5 40.5t-78.5 23.5q-38 7 -61.5 12.5t-55 18t-49 29t-30.5 44t-13 63.5q0 79 58 124t149 45q140 0 234 -75l-63 -91q-85 58 -157 58q-34 0 -53 -12.5t-19 -34.5q0 -23 21.5 -35.5
t73.5 -21.5q50 -8 80 -16.5t65.5 -26t53 -47.5t17.5 -73q0 -91 -67 -135.5t-168 -44.5z" />
    <glyph glyph-name="t" unicode="t" horiz-adv-x="427" 
d="M285 -7q-47 0 -79.5 7t-52.5 19t-31 33t-14.5 43t-3.5 55v266h-89v117h89v183h160v-183h137v-117h-137v-231q0 -43 15.5 -59t58.5 -16q36 0 53 6v-115q-32 -8 -106 -8z" />
    <glyph glyph-name="u" unicode="u" horiz-adv-x="618" 
d="M212 -11q-72 0 -114 38t-42 117v389h161v-342q0 -74 63 -74q53 0 116 54v362h161v-533h-161v83q-73 -94 -184 -94z" />
    <glyph glyph-name="v" unicode="v" horiz-adv-x="540" 
d="M351 -1h-162l-191 534h166l112 -355h2l112 355h151z" />
    <glyph glyph-name="w" unicode="w" horiz-adv-x="775" 
d="M306 0h-148l-156 533h162l46 -191q22 -87 35 -163h2q16 85 37 167l46 187h125l49 -190q16 -57 38 -164h2q17 88 37 162l49 192h143l-156 -533h-149l-80 325h-2z" />
    <glyph glyph-name="x" unicode="x" horiz-adv-x="548" 
d="M173 0h-162l183 275l-170 258h169l92 -147l87 147h162l-172 -258l180 -275h-168l-102 161z" />
    <glyph glyph-name="y" unicode="y" horiz-adv-x="560" 
d="M145 -204q-85 0 -152 19l34 124q53 -14 101 -14q50 0 68 46l10 26l-204 536h166l117 -346h2l118 346h156l-224 -589q-29 -74 -72.5 -111t-119.5 -37z" />
    <glyph glyph-name="z" unicode="z" horiz-adv-x="530" 
d="M506 0h-477v83l258 333h-239v117h438v-85l-259 -334h279v-114z" />
    <glyph glyph-name="braceleft" unicode="{" horiz-adv-x="441" 
d="M420 -200h-142q-67 0 -104.5 40.5t-37.5 107.5v145q0 70 -25.5 95t-85.5 25v114q60 0 85.5 25t25.5 95v145q0 67 37.5 107.5t104.5 40.5h142v-112h-44q-78 0 -78 -79v-124q0 -70 -21 -105t-64 -49v-2q43 -14 64 -49t21 -105v-124q0 -79 78 -79h44v-112z" />
    <glyph glyph-name="bar" unicode="|" horiz-adv-x="400" 
d="M279 -200h-159v940h159v-940z" />
    <glyph glyph-name="braceright" unicode="}" horiz-adv-x="441" 
d="M178 -200h-157v112h44q78 0 78 79v139q0 68 20 96t65 43v2q-45 15 -65 43t-20 96v139q0 80 -77 80h-44l-1 111h157q67 0 97 -33t30 -100v-160q0 -70 25.5 -95t85.5 -25v-114q-60 0 -85.5 -25t-25.5 -95v-160q0 -67 -30 -100t-97 -33z" />
    <glyph glyph-name="asciitilde" unicode="~" horiz-adv-x="646" 
d="M455 258q-49 1 -144.5 33t-116.5 32q-19 0 -29 -9.5t-14 -35.5l-94 16q9 80 43.5 116.5t89.5 35.5q53 -1 147.5 -33.5t114.5 -32.5q19 0 29.5 10t14.5 36l93 -12q-9 -81 -44.5 -119.5t-89.5 -36.5z" />
    <glyph glyph-name="exclamdown" unicode="&#xa1;" horiz-adv-x="357" 
d="M261 592h-172v148h172v-148zM276 0h-202l40 506h121z" />
    <glyph glyph-name="cent" unicode="&#xa2;" horiz-adv-x="560" 
d="M209 142l85 287q-50 -2 -82 -43.5t-32 -120.5q0 -82 29 -123zM125 -129l43 146q-136 70 -136 249q0 73 25 129t65.5 87.5t85.5 46.5t92 15q16 0 23 -1l28 95h82l-33 -110q96 -34 136 -147l-124 -45q-16 51 -51 75l-91 -310q16 -2 26 -2q37 0 70 24t50 74l122 -46
q-66 -162 -245 -162q-29 0 -50 4l-36 -122h-82z" />
    <glyph glyph-name="sterling" unicode="&#xa3;" horiz-adv-x="689" 
d="M227 334h-137v87h84q-38 69 -38 127q0 89 62 147.5t162 58.5q50 0 90 -11.5t65 -29.5t44 -45.5t28.5 -53t17.5 -58.5l-140 -30q-9 48 -30.5 76t-67.5 28q-35 0 -55.5 -21.5t-20.5 -59.5q0 -21 8 -45.5t15 -37.5t25 -45h178v-87h-135q19 -54 19 -109q0 -54 -25 -104
q41 -22 75 -22q39 0 59 23t22 84h137q-3 -47 -11.5 -82t-28 -68.5t-57.5 -51.5t-93 -18q-90 0 -167 55q-70 -55 -157 -55q-60 0 -101.5 30t-41.5 88q0 61 42 95.5t100 34.5q51 0 109 -35q0 68 -36 135zM235 107q-46 43 -78 43q-20 0 -31.5 -11.5t-11.5 -30.5
q0 -18 11.5 -29.5t32.5 -11.5q49 0 77 40z" />
    <glyph glyph-name="currency" unicode="&#xa4;" horiz-adv-x="646" 
d="M323 255q45 0 72.5 30t27.5 79t-27.5 78.5t-72.5 29.5t-72.5 -29.5t-27.5 -78.5t27.5 -79t72.5 -30zM323 167q-47 0 -85 18l-96 -96l-94 93l96 96q-20 38 -20 85q0 46 18 85l-94 94l94 93l95 -94q40 19 86 19q44 0 85 -18l93 93l94 -93l-92 -92q19 -40 19 -85
q0 -49 -20 -87l95 -93l-94 -94l-94 95q-38 -19 -86 -19z" />
    <glyph glyph-name="yen" unicode="&#xa5;" horiz-adv-x="684" 
d="M423 0h-163v92h-179v87h179v68h-179v86h176l-243 407h169l160 -273l160 273h167l-245 -407h179v-86h-181v-68h181v-87h-181v-92z" />
    <glyph glyph-name="brokenbar" unicode="&#xa6;" horiz-adv-x="400" 
d="M279 331h-159v409h159v-409zM279 -200h-159v409h159v-409z" />
    <glyph glyph-name="section" unicode="&#xa7;" horiz-adv-x="583" 
d="M354 166q45 31 45 68q0 36 -24 60.5t-104 69.5q-30 16 -43 24q-45 -31 -45 -68q0 -36 24 -60.5t104 -69.5q21 -11 43 -24zM289 -200q-180 0 -226 142l115 51q32 -87 104 -87q69 0 69 64q0 30 -28.5 53.5t-94.5 59.5q-42 23 -65.5 38.5t-53 41.5t-43 57t-13.5 68
q0 94 95 155q-66 56 -66 133q0 76 56.5 127t154.5 51q186 0 230 -142l-114 -51q-32 87 -109 87q-39 0 -56.5 -18t-17.5 -46q0 -16 8 -29.5t29 -28.5t38 -25t53 -30q42 -23 65.5 -38.5t53 -41.5t43 -57t13.5 -68q0 -95 -96 -156q62 -54 62 -132q0 -77 -54 -127.5t-152 -50.5z
" />
    <glyph glyph-name="dieresis" unicode="&#xa8;" horiz-adv-x="530" 
d="M301 584v148h136v-148h-136zM89 584v148h136v-148h-136z" />
    <glyph glyph-name="copyright" unicode="&#xa9;" horiz-adv-x="867" 
d="M432 -14q-163 0 -272.5 110t-109.5 272q0 163 111 274.5t274 111.5q162 0 272 -110t110 -272q0 -163 -111.5 -274.5t-273.5 -111.5zM435 56q132 0 218.5 89t86.5 223q0 135 -88 225.5t-220 90.5t-218.5 -89t-86.5 -223q0 -135 88 -225.5t220 -90.5zM430 155
q-81 0 -129.5 57t-48.5 160q0 102 48 159t133 57q69 0 110.5 -35t53.5 -97l-89 -23q-10 36 -26 53.5t-48 17.5q-39 0 -60.5 -35.5t-21.5 -96.5q0 -62 21.5 -96.5t60.5 -34.5q59 0 76 80q90 -25 92 -25q-19 -68 -59 -104.5t-113 -36.5z" />
    <glyph glyph-name="ordfeminine" unicode="&#xaa;" horiz-adv-x="447" 
d="M192 446q50 0 84 34v69q-124 -12 -124 -68q0 -35 40 -35zM147 360q-46 0 -76.5 25.5t-30.5 72.5q0 133 236 152v9q0 43 -50 43q-63 0 -120 -45l-51 64q73 67 188 67q76 0 111 -36t35 -110v-143q0 -67 11 -91h-115q-9 29 -9 53q-53 -61 -129 -61z" />
    <glyph glyph-name="guillemotleft" unicode="&#xab;" horiz-adv-x="633" 
d="M343 0h-153l-166 267l166 266h153l-159 -266zM604 0h-153l-167 267l167 266h153l-160 -266z" />
    <glyph glyph-name="logicalnot" unicode="&#xac;" horiz-adv-x="644" 
d="M577 414v-326h-127v201h-383v125h510z" />
    <glyph glyph-name="registered" unicode="&#xae;" horiz-adv-x="529" 
d="M263 293q-97 0 -163 66t-66 164t67 165t165 67q97 0 163 -66.5t66 -163.5q0 -98 -67 -165t-165 -67zM266 337q78 0 130 53t52 133t-53 134.5t-132 54.5q-78 0 -130 -53.5t-52 -133.5q0 -81 52.5 -134.5t132.5 -53.5zM234 537h33q42 0 42 32t-42 32h-33v-64zM173 403v252
h98q97 0 97 -83q0 -52 -45 -73l50 -96h-64l-45 89h-30v-89h-61z" />
    <glyph glyph-name="macron" unicode="&#xaf;" horiz-adv-x="500" 
d="M84 584v114h332v-114h-332z" />
    <glyph glyph-name="macron" unicode="&#x2c9;" horiz-adv-x="500" 
d="M84 584v114h332v-114h-332z" />
    <glyph glyph-name="degree" unicode="&#xb0;" horiz-adv-x="415" 
d="M208 432q-71 0 -117 45t-46 115t46 115t117 45q70 0 116 -45t46 -114q0 -70 -46 -115.5t-116 -45.5zM208 508q34 0 55 23.5t21 61.5t-21 60.5t-55 22.5q-35 0 -56 -22.5t-21 -60.5t21 -61.5t56 -23.5z" />
    <glyph glyph-name="plusminus" unicode="&#xb1;" horiz-adv-x="646" 
d="M67 15v117h193v164h-193v124h193v201h126v-201h193v-124h-193v-164h193v-117h-512z" />
    <glyph glyph-name="two.sups" unicode="&#xb2;" horiz-adv-x="478" 
d="M56 264v26q0 63 27 113.5t113 102.5q69 43 81 56q13 16 13 39q0 42 -47 42q-57 0 -101 -72l-87 63q73 116 191 116q83 0 125 -38.5t42 -107.5q0 -46 -26 -84.5t-94 -75.5q-75 -42 -88 -77h211v-103h-360z" />
    <glyph glyph-name="three.sups" unicode="&#xb3;" horiz-adv-x="478" 
d="M235 256q-128 0 -194 98l78 68q45 -62 105 -62q71 0 71 52q0 31 -22 44t-72 13h-38v89h40q83 0 83 47q0 39 -51 39q-59 0 -109 -48l-68 79q78 75 187 75q81 0 124 -34.5t43 -95.5q0 -76 -71 -101q86 -26 86 -110q0 -74 -51.5 -113.5t-140.5 -39.5z" />
    <glyph glyph-name="acute" unicode="&#xb4;" horiz-adv-x="500" 
d="M148 590l93 173h162l-149 -173h-106z" />
    <glyph glyph-name="mu" unicode="&#xb5;" horiz-adv-x="623" 
d="M222 -200h-161v733h161v-339q0 -73 63 -73q55 0 116 54v358h161v-533h-161v83q-55 -67 -126 -84q-34 -5 -53 4v-203z" />
    <glyph glyph-name="paragraph" unicode="&#xb6;" horiz-adv-x="638" 
d="M395 -200h-109v513q-118 2 -180.5 57t-62.5 155q0 93 61 154t168 61h316v-940h-108v820h-85v-820z" />
    <glyph glyph-name="periodcentered" unicode="&#xb7;" horiz-adv-x="289" 
d="M234 259h-179v155h179v-155z" />
    <glyph glyph-name="periodcentered" unicode="&#x2219;" horiz-adv-x="289" 
d="M234 259h-179v155h179v-155z" />
    <glyph glyph-name="cedilla" unicode="&#xb8;" horiz-adv-x="500" 
d="M263 -202q-92 0 -148 37l29 48q45 -30 106 -30q50 0 50 34q0 27 -32 27q-21 0 -43 -17l-40 20l26 83h66l-11 -46q23 15 64 15q30 0 51.5 -18.5t21.5 -51.5q0 -46 -40 -73.5t-100 -27.5z" />
    <glyph glyph-name="one.sups" unicode="&#xb9;" horiz-adv-x="386" 
d="M63 262v101h86v276q-44 -20 -84 -20v91q59 2 87 30h126v-377h75v-101h-290z" />
    <glyph glyph-name="ordmasculine" unicode="&#xba;" horiz-adv-x="466" 
d="M233 360q-79 0 -135.5 47t-56.5 147q0 102 56.5 148.5t135.5 46.5t135.5 -46.5t56.5 -148.5q0 -100 -56.5 -147t-135.5 -47zM233 442q38 0 57.5 30t19.5 82q0 50 -18.5 80.5t-58.5 30.5q-38 0 -57.5 -30t-19.5 -81q0 -112 77 -112z" />
    <glyph glyph-name="guillemotright" unicode="&#xbb;" horiz-adv-x="633" 
d="M183 0h-153l159 267l-159 266h153l166 -266zM443 0h-153l160 267l-160 266h153l167 -266z" />
    <glyph glyph-name="onequarter" unicode="&#xbc;" horiz-adv-x="1059" 
d="M247 0l442 740h138l-442 -740h-138zM74 262v102h80v252q-32 -12 -79 -12v106q62 1 90 29h117v-375h71v-102h-279zM813 0v99h-215v81l210 298h133v-280h75v-99h-75v-99h-128zM717 190h104v152z" />
    <glyph glyph-name="onehalf" unicode="&#xbd;" horiz-adv-x="1091" 
d="M247 0l442 740h138l-442 -740h-138zM74 262v102h80v252q-32 -12 -79 -12v106q62 1 90 29h117v-375h71v-102h-279zM671 0v26q0 62 27.5 111.5t112.5 104.5q32 21 41.5 27t25.5 19.5t20 24t4 25.5q0 41 -46 41q-24 0 -51 -18t-48 -54l-87 63q73 116 191 116q79 0 123 -39
t44 -107q0 -95 -117 -160q-75 -42 -88 -77h208v-103h-360z" />
    <glyph glyph-name="threequarters" unicode="&#xbe;" horiz-adv-x="1098" 
d="M286 0l442 740h138l-442 -740h-138zM852 0v99h-215v81l210 298h133v-280h75v-99h-75v-99h-128zM235 256q-128 0 -194 98l78 68q45 -62 105 -62q71 0 71 52q0 31 -22 44t-72 13h-38v89h40q83 0 83 47q0 39 -51 39q-59 0 -109 -48l-68 79q78 75 187 75q81 0 124 -34.5
t43 -95.5q0 -76 -71 -101q86 -26 86 -110q0 -74 -51.5 -113.5t-140.5 -39.5zM756 190h104v152z" />
    <glyph glyph-name="questiondown" unicode="&#xbf;" horiz-adv-x="594" 
d="M403 592h-172v148h172v-148zM278 -14q-111 0 -173 50.5t-62 132.5q0 64 31 103.5t87 69.5q65 33 77.5 59.5t12.5 106.5h132q4 -27 4 -72q0 -95 -106 -152q-44 -25 -61.5 -46t-17.5 -56q0 -31 24.5 -49.5t68.5 -18.5q47 0 94 25t78 62l97 -91q-111 -124 -286 -124z" />
    <glyph glyph-name="Agrave" unicode="&#xc0;" horiz-adv-x="713" 
d="M314 783l-148 173h161l93 -173h-106zM351 535l-87 -252h174l-85 252h-2zM167 0h-150l262 743h155l262 -743h-165l-55 165h-252z" />
    <glyph glyph-name="Aacute" unicode="&#xc1;" horiz-adv-x="713" 
d="M292 783l93 173h162l-149 -173h-106zM351 535l-87 -252h174l-85 252h-2zM167 0h-150l262 743h155l262 -743h-165l-55 165h-252z" />
    <glyph glyph-name="Acircumflex" unicode="&#xc2;" horiz-adv-x="713" 
d="M174 785l129 171h107l129 -171h-91l-93 74l-90 -74h-91zM351 535l-87 -252h174l-85 252h-2zM167 0h-150l262 743h155l262 -743h-165l-55 165h-252z" />
    <glyph glyph-name="Atilde" unicode="&#xc3;" horiz-adv-x="713" 
d="M433 773q-40 0 -83 28t-61 28q-41 0 -41 -54h-87q0 159 119 159q40 0 83 -28t61 -28q41 0 41 54h86q0 -159 -118 -159zM351 535l-87 -252h174l-85 252h-2zM167 0h-150l262 743h155l262 -743h-165l-55 165h-252z" />
    <glyph glyph-name="Adieresis" unicode="&#xc4;" horiz-adv-x="713" 
d="M392 777v148h136v-148h-136zM180 777v148h136v-148h-136zM351 535l-87 -252h174l-85 252h-2zM167 0h-150l262 743h155l262 -743h-165l-55 165h-252z" />
    <glyph glyph-name="Aring" unicode="&#xc5;" horiz-adv-x="713" 
d="M357 745q20 0 33 13.5t13 34.5q0 20 -13.5 34t-32.5 14q-20 0 -33 -14t-13 -34q0 -21 13 -34.5t33 -13.5zM264 283h174l-85 253h-2zM18 0l255 725q-26 28 -26 68q0 47 31.5 78t78.5 31t78 -31t31 -78q0 -43 -26 -67l256 -726h-165l-55 166h-252l-57 -166h-149z" />
    <glyph glyph-name="AE" unicode="&#xc6;" horiz-adv-x="1074" 
d="M517 603l-153 -272h154v272h-1zM179 0h-164l421 740h583v-136h-340v-159h246v-129h-246v-184h358v-132h-519v210h-222z" />
    <glyph glyph-name="Ccedilla" unicode="&#xc7;" horiz-adv-x="729" 
d="M382 -202q-92 0 -148 37l29 48q45 -30 105 -30q50 0 50 34q0 27 -32 27q-20 0 -42 -17l-40 20l23 71q-131 16 -208.5 113.5t-77.5 269.5q0 185 94.5 284t241.5 99q244 0 300 -233l-154 -45q-20 71 -52.5 107t-94.5 36q-83 0 -127.5 -65.5t-44.5 -181.5q0 -119 45.5 -187
t128.5 -68q63 0 99.5 38.5t56.5 117.5l153 -34q-59 -245 -294 -253l-9 -32q23 15 65 15q30 0 51 -18.5t21 -51.5q0 -46 -39.5 -73.5t-99.5 -27.5z" />
    <glyph glyph-name="Egrave" unicode="&#xc8;" horiz-adv-x="633" 
d="M305 783l-148 173h161l93 -173h-106zM598 0h-522v740h504v-136h-341v-159h247v-129h-247v-184h359v-132z" />
    <glyph glyph-name="Eacute" unicode="&#xc9;" horiz-adv-x="633" 
d="M236 783l93 173h162l-149 -173h-106zM598 0h-522v740h504v-136h-341v-159h247v-129h-247v-184h359v-132z" />
    <glyph glyph-name="Ecircumflex" unicode="&#xca;" horiz-adv-x="633" 
d="M144 785l129 171h107l129 -171h-91l-93 74l-90 -74h-91zM598 0h-522v740h504v-136h-341v-159h247v-129h-247v-184h359v-132z" />
    <glyph glyph-name="Edieresis" unicode="&#xcb;" horiz-adv-x="633" 
d="M367 777v148h136v-148h-136zM155 777v148h136v-148h-136zM598 0h-522v740h504v-136h-341v-159h247v-129h-247v-184h359v-132z" />
    <glyph glyph-name="Igrave" unicode="&#xcc;" horiz-adv-x="330" 
d="M126 783l-148 173h161l93 -173h-106zM246 0h-162v740h162v-740z" />
    <glyph glyph-name="Iacute" unicode="&#xcd;" horiz-adv-x="330" 
d="M102 783l93 173h162l-149 -173h-106zM246 0h-162v740h162v-740z" />
    <glyph glyph-name="Icircumflex" unicode="&#xce;" horiz-adv-x="330" 
d="M-17 785l129 171h107l129 -171h-91l-93 74l-90 -74h-91zM246 0h-162v740h162v-740z" />
    <glyph glyph-name="Idieresis" unicode="&#xcf;" horiz-adv-x="330" 
d="M201 777v148h136v-148h-136zM-11 777v148h136v-148h-136zM246 0h-162v740h162v-740z" />
    <glyph glyph-name="Eth" unicode="&#xd0;" horiz-adv-x="740" 
d="M303 0h-227v317h-66v122h66v301h227q88 0 158 -20t124.5 -62t84 -115t29.5 -173q0 -192 -108 -281t-288 -89zM238 317v-185h76q120 0 171 56.5t51 183.5q0 120 -52 176t-172 56h-74v-165h150v-122h-150z" />
    <glyph glyph-name="Ntilde" unicode="&#xd1;" horiz-adv-x="777" 
d="M469 773q-40 0 -83 28t-61 28q-41 0 -41 -54h-87q0 159 119 159q40 0 83 -28t61 -28q41 0 41 54h86q0 -159 -118 -159zM226 0h-150v740h163l310 -472h2v472h150v-740h-150l-323 476h-2v-476z" />
    <glyph glyph-name="Ograve" unicode="&#xd2;" horiz-adv-x="780" 
d="M364 783l-148 173h161l93 -173h-106zM390 -14q-69 0 -130.5 24t-111 70t-78.5 121t-29 169t29 169t78.5 121t111 70t130.5 24q144 0 246 -100t102 -284t-102 -284t-246 -100zM390 117q85 0 135.5 68.5t50.5 184.5t-50 182.5t-136 66.5t-136 -66.5t-50 -182.5
q0 -117 50 -185t136 -68z" />
    <glyph glyph-name="Oacute" unicode="&#xd3;" horiz-adv-x="780" 
d="M307 783l93 173h162l-149 -173h-106zM390 -14q-69 0 -130.5 24t-111 70t-78.5 121t-29 169t29 169t78.5 121t111 70t130.5 24q144 0 246 -100t102 -284t-102 -284t-246 -100zM390 117q85 0 135.5 68.5t50.5 184.5t-50 182.5t-136 66.5t-136 -66.5t-50 -182.5
q0 -117 50 -185t136 -68z" />
    <glyph glyph-name="Ocircumflex" unicode="&#xd4;" horiz-adv-x="780" 
d="M207 785l129 171h107l129 -171h-91l-93 74l-90 -74h-91zM390 -14q-69 0 -130.5 24t-111 70t-78.5 121t-29 169t29 169t78.5 121t111 70t130.5 24q144 0 246 -100t102 -284t-102 -284t-246 -100zM390 117q85 0 135.5 68.5t50.5 184.5t-50 182.5t-136 66.5t-136 -66.5
t-50 -182.5q0 -117 50 -185t136 -68z" />
    <glyph glyph-name="Otilde" unicode="&#xd5;" horiz-adv-x="780" 
d="M465 773q-40 0 -83 28t-61 28q-41 0 -41 -54h-87q0 159 119 159q40 0 83 -28t61 -28q41 0 41 54h86q0 -159 -118 -159zM390 -14q-69 0 -130.5 24t-111 70t-78.5 121t-29 169t29 169t78.5 121t111 70t130.5 24q144 0 246 -100t102 -284t-102 -284t-246 -100zM390 117
q85 0 135.5 68.5t50.5 184.5t-50 182.5t-136 66.5t-136 -66.5t-50 -182.5q0 -117 50 -185t136 -68z" />
    <glyph glyph-name="Odieresis" unicode="&#xd6;" horiz-adv-x="780" 
d="M425 777v148h136v-148h-136zM213 777v148h136v-148h-136zM390 -14q-69 0 -130.5 24t-111 70t-78.5 121t-29 169t29 169t78.5 121t111 70t130.5 24q144 0 246 -100t102 -284t-102 -284t-246 -100zM390 117q85 0 135.5 68.5t50.5 184.5t-50 182.5t-136 66.5t-136 -66.5
t-50 -182.5q0 -117 50 -185t136 -68z" />
    <glyph glyph-name="multiply" unicode="&#xd7;" horiz-adv-x="646" 
d="M323 230l-159 -159l-93 94l157 158l-157 156l93 94l158 -157l156 157l94 -94l-156 -156l158 -156l-93 -94z" />
    <glyph glyph-name="Oslash" unicode="&#xd8;" horiz-adv-x="780" 
d="M221 242l284 337q-47 42 -115 42q-87 0 -138.5 -67t-51.5 -184q0 -74 21 -128zM558 498l-285 -338q47 -45 117 -45q87 0 138 69t51 186q0 74 -21 128zM744 708l-78 -90q72 -99 72 -248q0 -184 -102 -284t-246 -100q-118 0 -207 65l-70 -81l-78 62l78 89q-72 99 -72 249
q0 94 29 169t78.5 121t111 70t130.5 24q119 0 206 -65l71 81z" />
    <glyph glyph-name="Ugrave" unicode="&#xd9;" horiz-adv-x="725" 
d="M338 783l-148 173h161l93 -173h-106zM363 -12q-150 0 -224.5 77.5t-74.5 217.5v457h163v-453q0 -167 138 -167q136 0 136 167v453h160v-456q0 -141 -74 -218.5t-224 -77.5z" />
    <glyph glyph-name="Uacute" unicode="&#xda;" horiz-adv-x="725" 
d="M270 783l93 173h162l-149 -173h-106zM363 -12q-150 0 -224.5 77.5t-74.5 217.5v457h163v-453q0 -167 138 -167q136 0 136 167v453h160v-456q0 -141 -74 -218.5t-224 -77.5z" />
    <glyph glyph-name="Ucircumflex" unicode="&#xdb;" horiz-adv-x="725" 
d="M179 785l129 171h107l129 -171h-91l-93 74l-90 -74h-91zM363 -12q-150 0 -224.5 77.5t-74.5 217.5v457h163v-453q0 -167 138 -167q136 0 136 167v453h160v-456q0 -141 -74 -218.5t-224 -77.5z" />
    <glyph glyph-name="Udieresis" unicode="&#xdc;" horiz-adv-x="725" 
d="M398 777v148h136v-148h-136zM186 777v148h136v-148h-136zM363 -12q-150 0 -224.5 77.5t-74.5 217.5v457h163v-453q0 -167 138 -167q136 0 136 167v453h160v-456q0 -141 -74 -218.5t-224 -77.5z" />
    <glyph glyph-name="Yacute" unicode="&#xdd;" horiz-adv-x="691" 
d="M250 786l93 173h162l-149 -173h-106zM426 0h-162v314l-255 426h168l169 -288l170 288h166l-256 -426v-314z" />
    <glyph glyph-name="Thorn" unicode="&#xde;" horiz-adv-x="678" 
d="M239 0h-163v740h163v-112h103q305 0 305 -241q0 -57 -18 -101t-47 -70.5t-70.5 -43t-82.5 -22.5t-89 -6h-101v-144zM239 492v-219h104q73 0 106 28t33 82t-32.5 81.5t-106.5 27.5h-104z" />
    <glyph glyph-name="germandbls" unicode="&#xdf;" horiz-adv-x="683" 
d="M443 -11q-128 0 -189 68l70 85q45 -38 104 -38q39 0 61.5 26t22.5 68q0 37 -16 62t-47.5 38.5t-67 19t-85.5 7.5v107q79 1 110 28t31 77q0 36 -26.5 60t-74.5 24q-116 0 -116 -129v-492h-159v488q0 128 72 190t199 62q118 0 186 -49.5t68 -139.5q0 -60 -35.5 -99
t-91.5 -56q82 -9 141.5 -57.5t59.5 -133.5q0 -104 -58.5 -160t-158.5 -56z" />
    <glyph glyph-name="agrave" unicode="&#xe0;" horiz-adv-x="577" 
d="M268 590l-148 173h161l93 -173h-106zM242 113q76 0 122 46v99q-181 -19 -181 -94q0 -25 16 -38t43 -13zM178 -8q-64 0 -108 39t-44 105q0 93 82 144.5t256 65.5v13q0 64 -72 64q-90 0 -175 -66l-68 92q105 95 266 95q107 0 156.5 -52t49.5 -157v-205q0 -93 15 -130h-160
q-12 38 -12 78q-77 -86 -186 -86z" />
    <glyph glyph-name="aacute" unicode="&#xe1;" horiz-adv-x="577" 
d="M208 590l93 173h162l-149 -173h-106zM242 113q76 0 122 46v99q-181 -19 -181 -94q0 -25 16 -38t43 -13zM178 -8q-64 0 -108 39t-44 105q0 93 82 144.5t256 65.5v13q0 64 -72 64q-90 0 -175 -66l-68 92q105 95 266 95q107 0 156.5 -52t49.5 -157v-205q0 -93 15 -130h-160
q-12 38 -12 78q-77 -86 -186 -86z" />
    <glyph glyph-name="acircumflex" unicode="&#xe2;" horiz-adv-x="577" 
d="M107 592l129 171h107l129 -171h-91l-93 74l-90 -74h-91zM242 113q76 0 122 46v99q-181 -19 -181 -94q0 -25 16 -38t43 -13zM178 -8q-64 0 -108 39t-44 105q0 93 82 144.5t256 65.5v13q0 64 -72 64q-90 0 -175 -66l-68 92q105 95 266 95q107 0 156.5 -52t49.5 -157v-205
q0 -93 15 -130h-160q-12 38 -12 78q-77 -86 -186 -86z" />
    <glyph glyph-name="atilde" unicode="&#xe3;" horiz-adv-x="577" 
d="M366 580q-40 0 -83 28t-61 28q-41 0 -41 -54h-87q0 159 119 159q40 0 83 -28t61 -28q41 0 41 54h86q0 -159 -118 -159zM242 113q76 0 122 46v99q-181 -19 -181 -94q0 -25 16 -38t43 -13zM178 -8q-64 0 -108 39t-44 105q0 93 82 144.5t256 65.5v13q0 64 -72 64
q-90 0 -175 -66l-68 92q105 95 266 95q107 0 156.5 -52t49.5 -157v-205q0 -93 15 -130h-160q-12 38 -12 78q-77 -86 -186 -86z" />
    <glyph glyph-name="adieresis" unicode="&#xe4;" horiz-adv-x="577" 
d="M327 584v148h136v-148h-136zM115 584v148h136v-148h-136zM242 113q76 0 122 46v99q-181 -19 -181 -94q0 -25 16 -38t43 -13zM178 -8q-64 0 -108 39t-44 105q0 93 82 144.5t256 65.5v13q0 64 -72 64q-90 0 -175 -66l-68 92q105 95 266 95q107 0 156.5 -52t49.5 -157v-205
q0 -93 15 -130h-160q-12 38 -12 78q-77 -86 -186 -86z" />
    <glyph glyph-name="aring" unicode="&#xe5;" horiz-adv-x="577" 
d="M292 581q-47 0 -78 31.5t-31 78.5q0 46 31 77t78 31t78.5 -31t31.5 -77q0 -47 -31.5 -78.5t-78.5 -31.5zM292 642q20 0 33 13.5t13 35.5q0 20 -13 33.5t-33 13.5t-33 -13.5t-13 -33.5q0 -22 13 -35.5t33 -13.5zM242 113q76 0 122 46v99q-181 -19 -181 -94q0 -25 16 -38
t43 -13zM178 -8q-64 0 -108 39t-44 105q0 93 82 144.5t256 65.5v13q0 64 -72 64q-90 0 -175 -66l-68 92q105 95 266 95q107 0 156.5 -52t49.5 -157v-205q0 -93 15 -130h-160q-12 38 -12 78q-77 -86 -186 -86z" />
    <glyph glyph-name="ae" unicode="&#xe6;" horiz-adv-x="896" 
d="M177 -11q-64 0 -107.5 37t-43.5 102q0 191 338 218v13q0 64 -73 64q-91 0 -174 -66l-68 92q105 95 266 95q111 0 151 -67q27 30 69 48.5t84 18.5q48 0 88 -13t77 -44t58.5 -92t21.5 -148v-24h-352q10 -121 124 -121q88 0 157 63l62 -96q-92 -80 -231 -80q-158 0 -221 109
q-94 -109 -226 -109zM514 318h206q-10 110 -102 110q-40 0 -67.5 -27t-36.5 -83zM242 110q75 0 133 58q-9 29 -10 60q-2 22 -1 33q-181 -18 -181 -100q0 -25 16 -38t43 -13z" />
    <glyph glyph-name="ccedilla" unicode="&#xe7;" horiz-adv-x="562" 
d="M297 -202q-92 0 -148 37l29 48q45 -30 105 -30q50 0 50 34q0 27 -32 27q-20 0 -42 -17l-40 20l24 78q-92 14 -151.5 80t-59.5 191q0 76 25 132.5t66 87t85.5 44.5t92.5 14q100 0 152.5 -44t79.5 -119l-135 -44q-15 49 -38.5 69.5t-60.5 20.5q-50 0 -78 -42t-28 -120
q0 -75 25.5 -119t78.5 -44q75 0 105 95l133 -46q-62 -151 -226 -159l-10 -38q23 15 65 15q30 0 51 -18.5t21 -51.5q0 -46 -39.5 -73.5t-99.5 -27.5z" />
    <glyph glyph-name="egrave" unicode="&#xe8;" horiz-adv-x="577" 
d="M263 590l-148 173h161l93 -173h-106zM304 -11q-55 0 -101.5 15t-86 46t-62 86.5t-22.5 129.5t26 130.5t67.5 87t86 45.5t88.5 15q46 0 85.5 -13t77.5 -44t60 -92.5t22 -147.5v-24h-353q11 -122 124 -122q88 0 158 64l62 -96q-94 -80 -232 -80zM194 318h207
q-12 111 -102 111q-40 0 -68 -27.5t-37 -83.5z" />
    <glyph glyph-name="eacute" unicode="&#xe9;" horiz-adv-x="577" 
d="M208 590l93 173h162l-149 -173h-106zM304 -11q-55 0 -101.5 15t-86 46t-62 86.5t-22.5 129.5t26 130.5t67.5 87t86 45.5t88.5 15q46 0 85.5 -13t77.5 -44t60 -92.5t22 -147.5v-24h-353q11 -122 124 -122q88 0 158 64l62 -96q-94 -80 -232 -80zM194 318h207
q-12 111 -102 111q-40 0 -68 -27.5t-37 -83.5z" />
    <glyph glyph-name="ecircumflex" unicode="&#xea;" horiz-adv-x="577" 
d="M107 592l129 171h107l129 -171h-91l-93 74l-90 -74h-91zM304 -11q-55 0 -101.5 15t-86 46t-62 86.5t-22.5 129.5t26 130.5t67.5 87t86 45.5t88.5 15q46 0 85.5 -13t77.5 -44t60 -92.5t22 -147.5v-24h-353q11 -122 124 -122q88 0 158 64l62 -96q-94 -80 -232 -80zM194 318
h207q-12 111 -102 111q-40 0 -68 -27.5t-37 -83.5z" />
    <glyph glyph-name="edieresis" unicode="&#xeb;" horiz-adv-x="577" 
d="M325 584v148h136v-148h-136zM113 584v148h136v-148h-136zM304 -11q-55 0 -101.5 15t-86 46t-62 86.5t-22.5 129.5t26 130.5t67.5 87t86 45.5t88.5 15q46 0 85.5 -13t77.5 -44t60 -92.5t22 -147.5v-24h-353q11 -122 124 -122q88 0 158 64l62 -96q-94 -80 -232 -80z
M194 318h207q-12 111 -102 111q-40 0 -68 -27.5t-37 -83.5z" />
    <glyph glyph-name="igrave" unicode="&#xec;" horiz-adv-x="294" 
d="M101 590l-148 173h161l93 -173h-106zM227 0h-160v533h160v-533z" />
    <glyph glyph-name="iacute" unicode="&#xed;" horiz-adv-x="294" 
d="M89 590l93 173h162l-149 -173h-106zM227 0h-160v533h160v-533z" />
    <glyph glyph-name="icircumflex" unicode="&#xee;" horiz-adv-x="294" 
d="M-35 592l129 171h107l129 -171h-91l-93 74l-90 -74h-91zM227 0h-160v533h160v-533z" />
    <glyph glyph-name="idieresis" unicode="&#xef;" horiz-adv-x="294" 
d="M183 584v148h136v-148h-136zM-29 584v148h136v-148h-136zM227 0h-160v533h160v-533z" />
    <glyph glyph-name="eth" unicode="&#xf0;" horiz-adv-x="608" 
d="M304 -11q-120 0 -195 67t-75 183q0 119 66 184t165 65q37 0 79 -16t69 -47q-16 72 -55 129l-76 -37l-46 83l63 30q-29 29 -60 53l76 86q58 -38 96 -76l81 41l45 -83l-65 -34q102 -147 102 -354q0 -128 -75 -201t-195 -73zM304 102q51 0 80.5 36.5t29.5 103.5
q0 65 -29.5 101.5t-80.5 36.5t-80.5 -36t-29.5 -103q0 -66 29.5 -102.5t80.5 -36.5z" />
    <glyph glyph-name="ntilde" unicode="&#xf1;" horiz-adv-x="618" 
d="M387 580q-40 0 -83 28t-61 28q-41 0 -41 -54h-87q0 159 119 159q40 0 83 -28t61 -28q41 0 41 54h86q0 -159 -118 -159zM244 0h-161v533h161v-84q72 95 184 95q71 0 113 -38t42 -117v-389h-160v338q0 73 -63 73q-54 0 -116 -53v-358z" />
    <glyph glyph-name="ograve" unicode="&#xf2;" horiz-adv-x="609" 
d="M279 590l-148 173h161l93 -173h-106zM305 -11q-51 0 -97.5 14.5t-87 45.5t-64.5 87t-24 130q0 75 24 131t64.5 87t86.5 45.5t98 14.5q51 0 97 -14.5t86.5 -45.5t64.5 -87t24 -131q0 -74 -24 -130t-64 -87t-86.5 -45.5t-97.5 -14.5zM305 102q55 0 83 43.5t28 119.5
q0 72 -27 116.5t-84 44.5q-56 0 -84 -43t-28 -118q0 -73 27 -118t85 -45z" />
    <glyph glyph-name="oacute" unicode="&#xf3;" horiz-adv-x="609" 
d="M223 590l93 173h162l-149 -173h-106zM305 -11q-51 0 -97.5 14.5t-87 45.5t-64.5 87t-24 130q0 75 24 131t64.5 87t86.5 45.5t98 14.5q51 0 97 -14.5t86.5 -45.5t64.5 -87t24 -131q0 -74 -24 -130t-64 -87t-86.5 -45.5t-97.5 -14.5zM305 102q55 0 83 43.5t28 119.5
q0 72 -27 116.5t-84 44.5q-56 0 -84 -43t-28 -118q0 -73 27 -118t85 -45z" />
    <glyph glyph-name="ocircumflex" unicode="&#xf4;" horiz-adv-x="609" 
d="M122 592l129 171h107l129 -171h-91l-93 74l-90 -74h-91zM305 -11q-51 0 -97.5 14.5t-87 45.5t-64.5 87t-24 130q0 75 24 131t64.5 87t86.5 45.5t98 14.5q51 0 97 -14.5t86.5 -45.5t64.5 -87t24 -131q0 -74 -24 -130t-64 -87t-86.5 -45.5t-97.5 -14.5zM305 102
q55 0 83 43.5t28 119.5q0 72 -27 116.5t-84 44.5q-56 0 -84 -43t-28 -118q0 -73 27 -118t85 -45z" />
    <glyph glyph-name="otilde" unicode="&#xf5;" horiz-adv-x="609" 
d="M381 580q-40 0 -83 28t-61 28q-41 0 -41 -54h-87q0 159 119 159q40 0 83 -28t61 -28q41 0 41 54h86q0 -159 -118 -159zM305 -11q-51 0 -97.5 14.5t-87 45.5t-64.5 87t-24 130q0 75 24 131t64.5 87t86.5 45.5t98 14.5q51 0 97 -14.5t86.5 -45.5t64.5 -87t24 -131
q0 -74 -24 -130t-64 -87t-86.5 -45.5t-97.5 -14.5zM305 102q55 0 83 43.5t28 119.5q0 72 -27 116.5t-84 44.5q-56 0 -84 -43t-28 -118q0 -73 27 -118t85 -45z" />
    <glyph glyph-name="odieresis" unicode="&#xf6;" horiz-adv-x="609" 
d="M340 584v148h136v-148h-136zM128 584v148h136v-148h-136zM305 -11q-51 0 -97.5 14.5t-87 45.5t-64.5 87t-24 130q0 75 24 131t64.5 87t86.5 45.5t98 14.5q51 0 97 -14.5t86.5 -45.5t64.5 -87t24 -131q0 -74 -24 -130t-64 -87t-86.5 -45.5t-97.5 -14.5zM305 102
q55 0 83 43.5t28 119.5q0 72 -27 116.5t-84 44.5q-56 0 -84 -43t-28 -118q0 -73 27 -118t85 -45z" />
    <glyph glyph-name="divide" unicode="&#xf7;" horiz-adv-x="646" 
d="M390 484h-135v119h135v-119zM579 287h-512v127h512v-127zM390 96h-135v119h135v-119z" />
    <glyph glyph-name="oslash" unicode="&#xf8;" horiz-adv-x="609" 
d="M196 200l179 203q-26 26 -70 26q-57 0 -86.5 -44t-29.5 -120q0 -37 7 -65zM415 324l-179 -200q29 -24 69 -24q57 0 86 44.5t29 120.5q0 29 -5 59zM584 506l-57 -63q50 -68 50 -177q0 -74 -24 -130t-64 -87t-86.5 -45.5t-97.5 -14.5q-87 0 -153 38l-64 -69l-63 61l61 66
q-54 70 -54 181q0 75 24 131t64.5 87t86.5 45.5t98 14.5q91 0 158 -42l58 64z" />
    <glyph glyph-name="ugrave" unicode="&#xf9;" horiz-adv-x="618" 
d="M284 590l-148 173h161l93 -173h-106zM212 -11q-72 0 -114 38t-42 117v389h161v-342q0 -74 63 -74q53 0 116 54v362h161v-533h-161v83q-73 -94 -184 -94z" />
    <glyph glyph-name="uacute" unicode="&#xfa;" horiz-adv-x="618" 
d="M219 590l93 173h162l-149 -173h-106zM212 -11q-72 0 -114 38t-42 117v389h161v-342q0 -74 63 -74q53 0 116 54v362h161v-533h-161v83q-73 -94 -184 -94z" />
    <glyph glyph-name="ucircumflex" unicode="&#xfb;" horiz-adv-x="618" 
d="M123 592l129 171h107l129 -171h-91l-93 74l-90 -74h-91zM212 -11q-72 0 -114 38t-42 117v389h161v-342q0 -74 63 -74q53 0 116 54v362h161v-533h-161v83q-73 -94 -184 -94z" />
    <glyph glyph-name="udieresis" unicode="&#xfc;" horiz-adv-x="618" 
d="M342 584v148h136v-148h-136zM130 584v148h136v-148h-136zM212 -11q-72 0 -114 38t-42 117v389h161v-342q0 -74 63 -74q53 0 116 54v362h161v-533h-161v83q-73 -94 -184 -94z" />
    <glyph glyph-name="yacute" unicode="&#xfd;" horiz-adv-x="560" 
d="M185 590l93 173h162l-149 -173h-106zM145 -204q-85 0 -152 19l34 124q53 -14 101 -14q50 0 68 46l10 26l-204 536h166l117 -346h2l118 346h156l-224 -589q-29 -74 -72.5 -111t-119.5 -37z" />
    <glyph glyph-name="thorn" unicode="&#xfe;" horiz-adv-x="624" 
d="M329 113q50 0 75.5 39.5t25.5 113.5q0 145 -103 145q-53 0 -105 -52v-197q52 -49 107 -49zM222 -200h-161v940h161v-288q67 92 164 92q94 0 149.5 -71.5t55.5 -205.5t-56 -204.5t-151 -70.5q-99 0 -162 71v-263z" />
    <glyph glyph-name="ydieresis" unicode="&#xff;" horiz-adv-x="560" 
d="M322 584v148h136v-148h-136zM110 584v148h136v-148h-136zM145 -204q-85 0 -152 19l34 124q53 -14 101 -14q50 0 68 46l10 26l-204 536h166l117 -346h2l118 346h156l-224 -589q-29 -74 -72.5 -111t-119.5 -37z" />
    <glyph glyph-name="Amacron" unicode="&#x100;" horiz-adv-x="713" 
d="M190 777v114h332v-114h-332zM351 535l-87 -252h174l-85 252h-2zM167 0h-150l262 743h155l262 -743h-165l-55 165h-252z" />
    <glyph glyph-name="amacron" unicode="&#x101;" horiz-adv-x="577" 
d="M122 584v114h332v-114h-332zM242 113q76 0 122 46v99q-181 -19 -181 -94q0 -25 16 -38t43 -13zM178 -8q-64 0 -108 39t-44 105q0 93 82 144.5t256 65.5v13q0 64 -72 64q-90 0 -175 -66l-68 92q105 95 266 95q107 0 156.5 -52t49.5 -157v-205q0 -93 15 -130h-160
q-12 38 -12 78q-77 -86 -186 -86z" />
    <glyph glyph-name="Abreve" unicode="&#x102;" horiz-adv-x="713" 
d="M356 772q-81 0 -127 52t-50 133h86q11 -84 91 -84t91 84h86q-4 -82 -49.5 -133.5t-127.5 -51.5zM351 535l-87 -252h174l-85 252h-2zM167 0h-150l262 743h155l262 -743h-165l-55 165h-252z" />
    <glyph glyph-name="abreve" unicode="&#x103;" horiz-adv-x="577" 
d="M288 579q-81 0 -127 52t-50 133h86q11 -84 91 -84t91 84h86q-4 -82 -49.5 -133.5t-127.5 -51.5zM242 113q76 0 122 46v99q-181 -19 -181 -94q0 -25 16 -38t43 -13zM178 -8q-64 0 -108 39t-44 105q0 93 82 144.5t256 65.5v13q0 64 -72 64q-90 0 -175 -66l-68 92
q105 95 266 95q107 0 156.5 -52t49.5 -157v-205q0 -93 15 -130h-160q-12 38 -12 78q-77 -86 -186 -86z" />
    <glyph glyph-name="Aogonek" unicode="&#x104;" horiz-adv-x="713" 
d="M351 535l-87 -252h174l-85 252h-2zM716 -147q-68 -40 -155 -40q-54 0 -83 20.5t-29 56.5q0 60 82 111l-55 164h-252l-57 -165h-150l262 743h155l262 -743h-81q-59 -41 -59 -84q0 -39 46 -39q35 0 83 25z" />
    <glyph glyph-name="aogonek" unicode="&#x105;" horiz-adv-x="577" 
d="M242 113q76 0 122 46v99q-181 -19 -181 -94q0 -25 16 -38t43 -13zM560 -147q-68 -40 -155 -40q-54 0 -83 20.5t-29 56.5q0 29 22.5 59t60.5 52q-12 38 -12 77q-77 -86 -186 -86q-64 0 -108 39t-44 105q0 93 82 144.5t256 65.5v13q0 64 -72 64q-90 0 -175 -66l-68 92
q105 95 266 95q107 0 156.5 -52t49.5 -157v-205q0 -93 15 -130h-77q-59 -41 -59 -84q0 -39 46 -39q35 0 83 25z" />
    <glyph glyph-name="Cacute" unicode="&#x106;" horiz-adv-x="729" 
d="M287 783l93 173h162l-149 -173h-106zM377 -14q-151 0 -243.5 98t-92.5 287q0 185 94.5 284t241.5 99q244 0 300 -233l-154 -45q-20 70 -53 106.5t-94 36.5q-83 0 -127.5 -66t-44.5 -182q0 -118 45.5 -186t128.5 -68q63 0 99.5 38.5t56.5 117.5l153 -34
q-61 -253 -310 -253z" />
    <glyph glyph-name="cacute" unicode="&#x107;" horiz-adv-x="555" 
d="M211 590l93 173h162l-149 -173h-106zM294 -11q-50 0 -94.5 14.5t-83 45.5t-61.5 87t-23 130q0 76 25 132.5t66 87t85.5 44.5t92.5 14q100 0 152.5 -44t79.5 -119l-135 -45q-15 49 -38.5 69.5t-60.5 20.5q-50 0 -78 -41.5t-28 -119.5q0 -75 25.5 -119t78.5 -44
q75 0 105 95l133 -46q-66 -162 -241 -162z" />
    <glyph glyph-name="Ccircumflex" unicode="&#x108;" horiz-adv-x="729" 
d="M191 785l129 171h107l129 -171h-91l-93 74l-90 -74h-91zM377 -14q-151 0 -243.5 98t-92.5 287q0 185 94.5 284t241.5 99q244 0 300 -233l-154 -45q-20 70 -53 106.5t-94 36.5q-83 0 -127.5 -66t-44.5 -182q0 -118 45.5 -186t128.5 -68q63 0 99.5 38.5t56.5 117.5l153 -34
q-61 -253 -310 -253z" />
    <glyph glyph-name="ccircumflex" unicode="&#x109;" horiz-adv-x="555" 
d="M106 592l129 171h107l129 -171h-91l-93 74l-90 -74h-91zM294 -11q-50 0 -94.5 14.5t-83 45.5t-61.5 87t-23 130q0 76 25 132.5t66 87t85.5 44.5t92.5 14q100 0 152.5 -44t79.5 -119l-135 -45q-15 49 -38.5 69.5t-60.5 20.5q-50 0 -78 -41.5t-28 -119.5q0 -75 25.5 -119
t78.5 -44q75 0 105 95l133 -46q-66 -162 -241 -162z" />
    <glyph glyph-name="Cdotaccent" unicode="&#x10a;" horiz-adv-x="729" 
d="M289 795v131h165v-131h-165zM377 -14q-151 0 -243.5 98t-92.5 287q0 185 94.5 284t241.5 99q244 0 300 -233l-154 -45q-20 70 -53 106.5t-94 36.5q-83 0 -127.5 -66t-44.5 -182q0 -118 45.5 -186t128.5 -68q63 0 99.5 38.5t56.5 117.5l153 -34q-61 -253 -310 -253z" />
    <glyph glyph-name="cdotaccent" unicode="&#x10b;" horiz-adv-x="555" 
d="M210 602v131h165v-131h-165zM294 -11q-50 0 -94.5 14.5t-83 45.5t-61.5 87t-23 130q0 76 25 132.5t66 87t85.5 44.5t92.5 14q100 0 152.5 -44t79.5 -119l-135 -45q-15 49 -38.5 69.5t-60.5 20.5q-50 0 -78 -41.5t-28 -119.5q0 -75 25.5 -119t78.5 -44q75 0 105 95
l133 -46q-66 -162 -241 -162z" />
    <glyph glyph-name="Ccaron" unicode="&#x10c;" horiz-adv-x="729" 
d="M310 786l-129 171h91l91 -74l92 74h91l-129 -171h-107zM377 -14q-151 0 -243.5 98t-92.5 287q0 185 94.5 284t241.5 99q244 0 300 -233l-154 -45q-20 70 -53 106.5t-94 36.5q-83 0 -127.5 -66t-44.5 -182q0 -118 45.5 -186t128.5 -68q63 0 99.5 38.5t56.5 117.5l153 -34
q-61 -253 -310 -253z" />
    <glyph glyph-name="ccaron" unicode="&#x10d;" horiz-adv-x="555" 
d="M224 593l-129 171h91l91 -74l92 74h91l-129 -171h-107zM294 -11q-50 0 -94.5 14.5t-83 45.5t-61.5 87t-23 130q0 76 25 132.5t66 87t85.5 44.5t92.5 14q100 0 152.5 -44t79.5 -119l-135 -45q-15 49 -38.5 69.5t-60.5 20.5q-50 0 -78 -41.5t-28 -119.5q0 -75 25.5 -119
t78.5 -44q75 0 105 95l133 -46q-66 -162 -241 -162z" />
    <glyph glyph-name="Dcaron" unicode="&#x10e;" horiz-adv-x="740" 
d="M316 786l-129 171h91l91 -74l92 74h91l-129 -171h-107zM303 0h-227v740h227q88 0 158 -19.5t124.5 -61.5t84 -114.5t29.5 -170.5q0 -101 -30 -175t-85 -116.5t-124.5 -62.5t-156.5 -20zM238 604v-472h76q120 0 171 56.5t51 183.5q0 120 -52 176t-172 56h-74z" />
    <glyph glyph-name="dcaron" unicode="&#x10f;" horiz-adv-x="624" 
d="M624 590l36 105h-57v136h145v-116l-60 -125h-64zM297 113q54 0 104 52v197q-52 49 -106 49q-102 0 -102 -148q0 -70 26 -110t78 -40zM237 -8q-94 0 -149.5 68t-55.5 202q0 135 56.5 208.5t150.5 73.5q105 0 162 -78v274h161v-610q0 -94 16 -130h-165q-12 22 -12 80
q-64 -88 -164 -88z" />
    <glyph glyph-name="Dcroat" unicode="&#x110;" horiz-adv-x="740" 
d="M303 0h-227v317h-66v122h66v301h227q88 0 158 -20t124.5 -62t84 -115t29.5 -173q0 -192 -108 -281t-288 -89zM238 317v-185h76q120 0 171 56.5t51 183.5q0 120 -52 176t-172 56h-74v-165h150v-122h-150z" />
    <glyph glyph-name="dcroat" unicode="&#x111;" horiz-adv-x="624" 
d="M297 113q53 0 105 52v198q-52 49 -107 49q-102 0 -102 -149q0 -70 26 -110t78 -40zM402 80q-66 -88 -164 -88q-94 0 -149.5 68t-55.5 202q0 135 56.5 208.5t150.5 73.5q104 0 162 -78v107h-86v102h86v65h160v-65h64v-102h-64v-443q0 -94 16 -130h-164q-12 20 -12 80z" />
    <glyph glyph-name="Emacron" unicode="&#x112;" horiz-adv-x="633" 
d="M170 777v114h332v-114h-332zM598 0h-522v740h504v-136h-341v-159h247v-129h-247v-184h359v-132z" />
    <glyph glyph-name="emacron" unicode="&#x113;" horiz-adv-x="577" 
d="M121 584v114h332v-114h-332zM304 -11q-55 0 -101.5 15t-86 46t-62 86.5t-22.5 129.5t26 130.5t67.5 87t86 45.5t88.5 15q46 0 85.5 -13t77.5 -44t60 -92.5t22 -147.5v-24h-353q11 -122 124 -122q88 0 158 64l62 -96q-94 -80 -232 -80zM194 318h207q-12 111 -102 111
q-40 0 -68 -27.5t-37 -83.5z" />
    <glyph glyph-name="Ebreve" unicode="&#x114;" horiz-adv-x="633" 
d="M323 772q-81 0 -127 52t-50 133h86q10 -84 91 -84t91 84h86q-4 -82 -49.5 -133.5t-127.5 -51.5zM598 0h-522v740h504v-136h-341v-159h247v-129h-247v-184h359v-132z" />
    <glyph glyph-name="ebreve" unicode="&#x115;" horiz-adv-x="577" 
d="M295 579q-81 0 -127 52t-50 133h86q10 -84 91 -84t91 84h86q-4 -82 -49.5 -133.5t-127.5 -51.5zM304 -11q-55 0 -101.5 15t-86 46t-62 86.5t-22.5 129.5t26 130.5t67.5 87t86 45.5t88.5 15q46 0 85.5 -13t77.5 -44t60 -92.5t22 -147.5v-24h-353q11 -122 124 -122
q88 0 158 64l62 -96q-94 -80 -232 -80zM194 318h207q-12 111 -102 111q-40 0 -68 -27.5t-37 -83.5z" />
    <glyph glyph-name="Edotaccent" unicode="&#x116;" horiz-adv-x="633" 
d="M254 795v131h165v-131h-165zM598 0h-522v740h504v-136h-341v-159h247v-129h-247v-184h359v-132z" />
    <glyph glyph-name="edotaccent" unicode="&#x117;" horiz-adv-x="577" 
d="M205 602v131h165v-131h-165zM304 -11q-55 0 -101.5 15t-86 46t-62 86.5t-22.5 129.5t26 130.5t67.5 87t86 45.5t88.5 15q46 0 85.5 -13t77.5 -44t60 -92.5t22 -147.5v-24h-353q11 -122 124 -122q88 0 158 64l62 -96q-94 -80 -232 -80zM194 318h207q-12 111 -102 111
q-40 0 -68 -27.5t-37 -83.5z" />
    <glyph glyph-name="Eogonek" unicode="&#x118;" horiz-adv-x="633" 
d="M623 -147q-68 -40 -155 -40q-54 0 -83 20.5t-29 56.5q0 59 80 110h-360v740h504v-136h-341v-159h247v-129h-247v-184h359v-132h-76q-59 -41 -59 -84q0 -39 46 -39q35 0 83 25z" />
    <glyph glyph-name="eogonek" unicode="&#x119;" horiz-adv-x="577" 
d="M323 -187q-54 0 -83 20.5t-29 56.5q0 53 65 100q-107 7 -175.5 74.5t-68.5 201.5q0 74 26 130.5t67.5 87t86 45.5t88.5 15q46 0 85.5 -13t77.5 -44t60 -92.5t22 -147.5v-24h-353q11 -122 124 -122q88 0 158 64l62 -96q-73 -62 -168 -75q-50 -38 -50 -78q0 -39 46 -39
q35 0 83 25l31 -49q-68 -40 -155 -40zM194 318h207q-12 111 -102 111q-40 0 -68 -27.5t-37 -83.5z" />
    <glyph glyph-name="Ecaron" unicode="&#x11a;" horiz-adv-x="633" 
d="M282 786l-129 171h91l91 -74l92 74h91l-129 -171h-107zM598 0h-522v740h504v-136h-341v-159h247v-129h-247v-184h359v-132z" />
    <glyph glyph-name="ecaron" unicode="&#x11b;" horiz-adv-x="577" 
d="M234 593l-129 171h91l91 -74l92 74h91l-129 -171h-107zM304 -11q-55 0 -101.5 15t-86 46t-62 86.5t-22.5 129.5t26 130.5t67.5 87t86 45.5t88.5 15q46 0 85.5 -13t77.5 -44t60 -92.5t22 -147.5v-24h-353q11 -122 124 -122q88 0 158 64l62 -96q-94 -80 -232 -80zM194 318
h207q-12 111 -102 111q-40 0 -68 -27.5t-37 -83.5z" />
    <glyph glyph-name="Gcircumflex" unicode="&#x11c;" horiz-adv-x="761" 
d="M195 785l129 171h107l129 -171h-91l-93 74l-90 -74h-91zM365 -14q-161 0 -242.5 105.5t-81.5 281.5q0 175 91 278t246 103q113 0 189.5 -54.5t109.5 -182.5l-149 -41q-23 76 -59 109.5t-92 33.5q-21 0 -41.5 -5t-45 -21t-42.5 -41.5t-30.5 -71t-12.5 -104.5
q0 -74 16.5 -127.5t44 -80.5t56.5 -39t62 -12q60 0 100.5 35.5t51.5 97.5h-129v121h284v-371h-131v102h-2q-15 -41 -66 -78.5t-127 -37.5z" />
    <glyph glyph-name="gcircumflex" unicode="&#x11d;" horiz-adv-x="615" 
d="M97 592l129 171h107l129 -171h-91l-93 74l-90 -74h-91zM282 252q43 0 67 26.5t24 68.5t-23.5 68.5t-67.5 26.5q-43 0 -67 -26.5t-24 -68.5t24.5 -68.5t66.5 -26.5zM271 -200q-150 0 -213 30.5t-63 89.5q0 69 92 107q-36 23 -36 64q0 60 77 109q-88 52 -88 153
q0 83 64 137t176 54q115 0 179 -58q26 23 64.5 38t72.5 17v-123q-44 0 -90 -12q10 -23 10 -53q0 -84 -62.5 -137t-173.5 -53q-39 0 -82 9q-18 -15 -18 -27q0 -14 14 -19t46 -7l80 -5q137 -5 197 -40.5t60 -110.5q0 -80 -84 -121.5t-222 -41.5zM297 -119q63 0 101 14.5
t38 40.5q0 27 -26.5 38.5t-115.5 15.5l-84 4q-24 2 -35 3q-30 -19 -30 -48q0 -35 35.5 -51.5t116.5 -16.5z" />
    <glyph glyph-name="Gbreve" unicode="&#x11e;" horiz-adv-x="761" 
d="M380 772q-81 0 -127 52t-50 133h86q11 -84 91 -84t91 84h86q-4 -82 -49.5 -133.5t-127.5 -51.5zM365 -14q-161 0 -242.5 105.5t-81.5 281.5q0 175 91 278t246 103q113 0 189.5 -54.5t109.5 -182.5l-149 -41q-23 76 -59 109.5t-92 33.5q-21 0 -41.5 -5t-45 -21
t-42.5 -41.5t-30.5 -71t-12.5 -104.5q0 -74 16.5 -127.5t44 -80.5t56.5 -39t62 -12q60 0 100.5 35.5t51.5 97.5h-129v121h284v-371h-131v102h-2q-15 -41 -66 -78.5t-127 -37.5z" />
    <glyph glyph-name="gbreve" unicode="&#x11f;" horiz-adv-x="615" 
d="M286 579q-81 0 -127 52t-50 133h86q11 -84 91 -84t91 84h86q-4 -82 -49.5 -133.5t-127.5 -51.5zM282 252q43 0 67 26.5t24 68.5t-23.5 68.5t-67.5 26.5q-43 0 -67 -26.5t-24 -68.5t24.5 -68.5t66.5 -26.5zM271 -200q-150 0 -213 30.5t-63 89.5q0 69 92 107q-36 23 -36 64
q0 60 77 109q-88 52 -88 153q0 83 64 137t176 54q115 0 179 -58q26 23 64.5 38t72.5 17v-123q-44 0 -90 -12q10 -23 10 -53q0 -84 -62.5 -137t-173.5 -53q-39 0 -82 9q-18 -15 -18 -27q0 -14 14 -19t46 -7l80 -5q137 -5 197 -40.5t60 -110.5q0 -80 -84 -121.5t-222 -41.5z
M297 -119q63 0 101 14.5t38 40.5q0 27 -26.5 38.5t-115.5 15.5l-84 4q-24 2 -35 3q-30 -19 -30 -48q0 -35 35.5 -51.5t116.5 -16.5z" />
    <glyph glyph-name="Gdotaccent" unicode="&#x120;" horiz-adv-x="761" 
d="M293 795v131h165v-131h-165zM365 -14q-161 0 -242.5 105.5t-81.5 281.5q0 175 91 278t246 103q113 0 189.5 -54.5t109.5 -182.5l-149 -41q-23 76 -59 109.5t-92 33.5q-21 0 -41.5 -5t-45 -21t-42.5 -41.5t-30.5 -71t-12.5 -104.5q0 -74 16.5 -127.5t44 -80.5t56.5 -39
t62 -12q60 0 100.5 35.5t51.5 97.5h-129v121h284v-371h-131v102h-2q-15 -41 -66 -78.5t-127 -37.5z" />
    <glyph glyph-name="gdotaccent" unicode="&#x121;" horiz-adv-x="615" 
d="M197 602v131h165v-131h-165zM282 252q43 0 67 26.5t24 68.5t-23.5 68.5t-67.5 26.5q-43 0 -67 -26.5t-24 -68.5t24.5 -68.5t66.5 -26.5zM271 -200q-150 0 -213 30.5t-63 89.5q0 69 92 107q-36 23 -36 64q0 60 77 109q-88 52 -88 153q0 83 64 137t176 54q115 0 179 -58
q26 23 64.5 38t72.5 17v-123q-44 0 -90 -12q10 -23 10 -53q0 -84 -62.5 -137t-173.5 -53q-39 0 -82 9q-18 -15 -18 -27q0 -14 14 -19t46 -7l80 -5q137 -5 197 -40.5t60 -110.5q0 -80 -84 -121.5t-222 -41.5zM297 -119q63 0 101 14.5t38 40.5q0 27 -26.5 38.5t-115.5 15.5
l-84 4q-24 2 -35 3q-30 -19 -30 -48q0 -35 35.5 -51.5t116.5 -16.5z" />
    <glyph glyph-name="Gcommaaccent" unicode="&#x122;" horiz-adv-x="761" 
d="M365 -14q-161 0 -242.5 105.5t-81.5 281.5q0 175 91 278t246 103q113 0 189.5 -54.5t109.5 -182.5l-149 -41q-23 76 -59 109.5t-92 33.5q-21 0 -41.5 -5t-45 -21t-42.5 -41.5t-30.5 -71t-12.5 -104.5q0 -74 16.5 -127.5t44 -80.5t56.5 -39t62 -12q60 0 100.5 35.5
t51.5 97.5h-129v121h284v-371h-131v102h-2q-15 -41 -66 -78.5t-127 -37.5zM327 -294l38 110h-60v141h151v-121l-62 -130h-67z" />
    <glyph glyph-name="gcommaaccent" unicode="&#x123;" horiz-adv-x="615" 
d="M210 585v121l63 130h67l-38 -109h59v-142h-151zM282 252q43 0 67 26.5t24 68.5t-23.5 68.5t-67.5 26.5q-43 0 -67 -26.5t-24 -68.5t24.5 -68.5t66.5 -26.5zM271 -200q-150 0 -213 30.5t-63 89.5q0 69 92 107q-36 23 -36 64q0 60 77 109q-88 52 -88 153q0 83 64 137
t176 54q115 0 179 -58q26 23 64.5 38t72.5 17v-123q-44 0 -90 -12q10 -23 10 -53q0 -84 -62.5 -137t-173.5 -53q-39 0 -82 9q-18 -15 -18 -27q0 -14 14 -19t46 -7l80 -5q137 -5 197 -40.5t60 -110.5q0 -80 -84 -121.5t-222 -41.5zM297 -119q63 0 101 14.5t38 40.5
q0 27 -26.5 38.5t-115.5 15.5l-84 4q-24 2 -35 3q-30 -19 -30 -48q0 -35 35.5 -51.5t116.5 -16.5z" />
    <glyph glyph-name="Hcircumflex" unicode="&#x124;" horiz-adv-x="769" 
d="M202 785l129 171h107l129 -171h-91l-93 74l-90 -74h-91zM239 0h-163v740h163v-287h291v287h163v-740h-163v316h-291v-316z" />
    <glyph glyph-name="hcircumflex" unicode="&#x125;" horiz-adv-x="618" 
d="M-42 785l129 171h107l129 -171h-91l-93 74l-90 -74h-91zM222 0h-161v740h161v-291q72 95 184 95q72 0 114 -38t42 -117v-389h-161v338q0 73 -62 73q-55 0 -117 -53v-358z" />
    <glyph glyph-name="Hbar" unicode="&#x126;" horiz-adv-x="769" 
d="M239 438h291v85h-291v-85zM239 302v-302h-162v523h-66v121h66v96h162v-96h291v96h163v-96h65v-121h-65v-523h-163v302h-291z" />
    <glyph glyph-name="hbar" unicode="&#x127;" horiz-adv-x="618" 
d="M222 358v-358h-160v573h-64v102h64v65h160v-65h86v-102h-86v-124q72 95 184 95q72 0 114 -38t42 -117v-389h-161v338q0 74 -62 74q-54 0 -117 -54z" />
    <glyph glyph-name="Itilde" unicode="&#x128;" horiz-adv-x="330" 
d="M242 773q-40 0 -83 28t-61 28q-41 0 -41 -54h-87q0 159 119 159q40 0 83 -28t61 -28q41 0 41 54h86q0 -159 -118 -159zM246 0h-162v740h162v-740z" />
    <glyph glyph-name="itilde" unicode="&#x129;" horiz-adv-x="294" 
d="M224 580q-40 0 -83 28t-61 28q-41 0 -41 -54h-87q0 159 119 159q40 0 83 -28t61 -28q41 0 41 54h86q0 -159 -118 -159zM227 0h-160v533h160v-533z" />
    <glyph glyph-name="Imacron" unicode="&#x12a;" horiz-adv-x="330" 
d="M-1 777v114h332v-114h-332zM246 0h-162v740h162v-740z" />
    <glyph glyph-name="imacron" unicode="&#x12b;" horiz-adv-x="294" 
d="M-19 584v114h332v-114h-332zM227 0h-160v533h160v-533z" />
    <glyph glyph-name="Ibreve" unicode="&#x12c;" horiz-adv-x="330" 
d="M165 772q-81 0 -127 52t-50 133h86q10 -84 91 -84t91 84h86q-4 -82 -49.5 -133.5t-127.5 -51.5zM246 0h-162v740h162v-740z" />
    <glyph glyph-name="ibreve" unicode="&#x12d;" horiz-adv-x="294" 
d="M147 579q-81 0 -127 52t-50 133h86q10 -84 91 -84t91 84h86q-4 -82 -49.5 -133.5t-127.5 -51.5zM227 0h-160v533h160v-533z" />
    <glyph glyph-name="Iogonek" unicode="&#x12e;" horiz-adv-x="330" 
d="M268 -147q-68 -40 -155 -40q-54 0 -83 20.5t-29 56.5q0 60 83 112v738h162v-740h-79q-59 -41 -59 -84q0 -39 46 -39q35 0 83 25z" />
    <glyph glyph-name="iogonek" unicode="&#x12f;" horiz-adv-x="294" 
d="M228 606h-162v129h162v-129zM251 -147q-68 -40 -155 -40q-54 0 -83 20.5t-29 56.5q0 60 83 112v531h160v-533h-77q-59 -41 -59 -84q0 -39 46 -39q35 0 83 25z" />
    <glyph glyph-name="Idotaccent" unicode="&#x130;" horiz-adv-x="330" 
d="M83 795v131h165v-131h-165zM246 0h-162v740h162v-740z" />
    <glyph glyph-name="dotlessi" unicode="&#x131;" horiz-adv-x="294" 
d="M227 0h-160v533h160v-533z" />
    <glyph glyph-name="IJ" unicode="&#x132;" horiz-adv-x="825" 
d="M246 0h-162v740h162v-740zM516 -10q-127 0 -216 82l91 102q60 -54 117 -54q92 0 92 127v497h163v-522q0 -109 -60 -170.5t-187 -61.5z" />
    <glyph glyph-name="ij" unicode="&#x133;" horiz-adv-x="588" 
d="M522 610h-162v129h162v-129zM228 606h-162v129h162v-129zM227 0h-160v533h160v-533zM348 -199q-66 0 -98 7v109q18 -6 46 -6q33 0 49 17t16 56v553h160v-584q0 -32 -6 -55.5t-22.5 -47.5t-53 -36.5t-91.5 -12.5z" />
    <glyph glyph-name="Jcircumflex" unicode="&#x134;" horiz-adv-x="535" 
d="M208 785l129 171h107l129 -171h-91l-93 74l-90 -74h-91zM226 -14q-127 0 -216 82l91 102q60 -54 117 -54q92 0 92 127v497h163v-522q0 -109 -60 -170.5t-187 -61.5z" />
    <glyph glyph-name="jcircumflex" unicode="&#x135;" horiz-adv-x="294" 
d="M-35 592l129 171h107l129 -171h-91l-93 74l-90 -74h-91zM54 -203q-66 0 -98 7v108q23 -5 46 -5q33 0 49 17t16 56v553h160v-584q0 -32 -6 -55.5t-22.5 -47.5t-53 -36.5t-91.5 -12.5z" />
    <glyph glyph-name="Kcommaaccent" unicode="&#x136;" horiz-adv-x="718" 
d="M239 0h-163v740h163v-306l248 306h190l-251 -289l277 -451h-184l-199 328l-81 -91v-237zM305 -294l38 110h-60v141h151v-121l-62 -130h-67z" />
    <glyph glyph-name="kcommaaccent" unicode="&#x137;" horiz-adv-x="585" 
d="M222 0h-161v740h161v-406l166 199h173l-174 -199l184 -334h-166l-118 217l-65 -73v-144zM239 -294l38 110h-60v141h151v-121l-62 -130h-67z" />
    <glyph glyph-name="kgreenlandic" unicode="&#x138;" horiz-adv-x="585" 
d="M62 0v533h160v-199l166 199h173l-174 -198l184 -335h-166l-118 217l-65 -73v-144h-160z" />
    <glyph glyph-name="Lacute" unicode="&#x139;" horiz-adv-x="586" 
d="M106 783l93 173h162l-149 -173h-106zM565 0h-489v740h163v-608h326v-132z" />
    <glyph glyph-name="lacute" unicode="&#x13a;" horiz-adv-x="294" 
d="M90 783l93 173h162l-149 -173h-106zM227 0h-160v740h160v-740z" />
    <glyph glyph-name="Lcommaaccent" unicode="&#x13b;" horiz-adv-x="586" 
d="M565 0h-489v740h163v-608h326v-132zM239 -294l38 110h-60v141h151v-121l-62 -130h-67z" />
    <glyph glyph-name="lcommaaccent" unicode="&#x13c;" horiz-adv-x="294" 
d="M227 0h-160v740h160v-740zM93 -294l38 110h-60v141h151v-121l-62 -130h-67z" />
    <glyph glyph-name="Lcaron" unicode="&#x13d;" horiz-adv-x="586" 
d="M565 0h-489v740h163v-608h326v-132zM342 488l38 110h-60v141h151v-121l-62 -130h-67z" />
    <glyph glyph-name="lcaron" unicode="&#x13e;" horiz-adv-x="294" 
d="M286 590l36 105h-57v136h145v-116l-60 -125h-64zM227 0h-160v740h160v-740z" />
    <glyph glyph-name="Ldot" unicode="&#x13f;" horiz-adv-x="624" 
d="M565 0h-489v740h163v-608h326v-132zM392 347v131h150v-131h-150z" />
    <glyph glyph-name="ldot" unicode="&#x140;" horiz-adv-x="439" 
d="M227 0h-160v740h160v-740zM292 272v132h150v-132h-150z" />
    <glyph glyph-name="Lslash" unicode="&#x141;" horiz-adv-x="586" 
d="M565 0h-488v321l-81 -21v121l81 22v297h162v-254l142 38v-122l-142 -37v-233h326v-132z" />
    <glyph glyph-name="lslash" unicode="&#x142;" horiz-adv-x="338" 
d="M90 0v393l-68 -19v117l68 19v230h160v-187l66 18v-117l-66 -18v-436h-160z" />
    <glyph glyph-name="Nacute" unicode="&#x143;" horiz-adv-x="777" 
d="M303 783l93 173h162l-149 -173h-106zM226 0h-150v740h163l310 -472h2v472h150v-740h-150l-323 476h-2v-476z" />
    <glyph glyph-name="nacute" unicode="&#x144;" horiz-adv-x="618" 
d="M208 590l93 173h162l-149 -173h-106zM223 0h-161v533h161v-84q72 95 184 95q71 0 113 -38t42 -117v-389h-160v338q0 73 -63 73q-54 0 -116 -53v-358z" />
    <glyph glyph-name="Ncommaaccent" unicode="&#x145;" horiz-adv-x="777" 
d="M226 0h-150v740h163l310 -472h2v472h150v-740h-150l-323 476h-2v-476zM334 -294l38 110h-60v141h151v-121l-62 -130h-67z" />
    <glyph glyph-name="ncommaaccent" unicode="&#x146;" horiz-adv-x="618" 
d="M223 0h-161v533h161v-84q72 95 184 95q71 0 113 -38t42 -117v-389h-160v338q0 73 -63 73q-54 0 -116 -53v-358zM257 -294l38 110h-60v141h151v-121l-62 -130h-67z" />
    <glyph glyph-name="Ncaron" unicode="&#x147;" horiz-adv-x="777" 
d="M334 786l-129 171h91l91 -74l92 74h91l-129 -171h-107zM226 0h-150v740h163l310 -472h2v472h150v-740h-150l-323 476h-2v-476z" />
    <glyph glyph-name="ncaron" unicode="&#x148;" horiz-adv-x="618" 
d="M258 593l-129 171h91l91 -74l92 74h91l-129 -171h-107zM223 0h-161v533h161v-84q72 95 184 95q71 0 113 -38t42 -117v-389h-160v338q0 73 -63 73q-54 0 -116 -53v-358z" />
    <glyph glyph-name="napostrophe" unicode="&#x149;" horiz-adv-x="854" 
d="M147 465h-75l42 120h-56v155h165v-142zM459 0h-161v533h161v-84q72 95 184 95q71 0 113 -38t42 -117v-389h-160v338q0 73 -63 73q-54 0 -116 -53v-358z" />
    <glyph glyph-name="Eng" unicode="&#x14a;" horiz-adv-x="777" 
d="M77 0v740h162l310 -472h2v472h150v-738q0 -97 -58 -151t-177 -54q-74 0 -122.5 21t-89.5 59l85 107q55 -57 118 -57q74 0 88 79v3l-317 468h-2v-477h-149z" />
    <glyph glyph-name="eng" unicode="&#x14b;" horiz-adv-x="618" 
d="M62 0v533h161v-84q72 95 184 95q71 0 113 -38t42 -117v-440q0 -32 -6 -55.5t-22.5 -47.5t-53 -36.5t-91.5 -12.5q-67 0 -98 7v108q23 -5 46 -5q65 0 65 67v364q0 74 -63 74q-53 0 -116 -54v-358h-161z" />
    <glyph glyph-name="Omacron" unicode="&#x14c;" horiz-adv-x="780" 
d="M223 777v114h332v-114h-332zM390 -14q-69 0 -130.5 24t-111 70t-78.5 121t-29 169t29 169t78.5 121t111 70t130.5 24q144 0 246 -100t102 -284t-102 -284t-246 -100zM390 117q85 0 135.5 68.5t50.5 184.5t-50 182.5t-136 66.5t-136 -66.5t-50 -182.5q0 -117 50 -185
t136 -68z" />
    <glyph glyph-name="omacron" unicode="&#x14d;" horiz-adv-x="609" 
d="M138 584v114h332v-114h-332zM305 -11q-51 0 -97.5 14.5t-87 45.5t-64.5 87t-24 130q0 75 24 131t64.5 87t86.5 45.5t98 14.5q51 0 97 -14.5t86.5 -45.5t64.5 -87t24 -131q0 -74 -24 -130t-64 -87t-86.5 -45.5t-97.5 -14.5zM305 102q55 0 83 43.5t28 119.5q0 72 -27 116.5
t-84 44.5q-56 0 -84 -43t-28 -118q0 -73 27 -118t85 -45z" />
    <glyph glyph-name="Obreve" unicode="&#x14e;" horiz-adv-x="780" 
d="M389 772q-81 0 -127 52t-50 133h86q10 -84 91 -84t91 84h86q-4 -82 -49.5 -133.5t-127.5 -51.5zM390 -14q-69 0 -130.5 24t-111 70t-78.5 121t-29 169t29 169t78.5 121t111 70t130.5 24q144 0 246 -100t102 -284t-102 -284t-246 -100zM390 117q85 0 135.5 68.5
t50.5 184.5t-50 182.5t-136 66.5t-136 -66.5t-50 -182.5q0 -117 50 -185t136 -68z" />
    <glyph glyph-name="obreve" unicode="&#x14f;" horiz-adv-x="609" 
d="M304 579q-81 0 -127 52t-50 133h86q11 -84 91 -84t91 84h86q-4 -82 -49.5 -133.5t-127.5 -51.5zM305 -11q-51 0 -97.5 14.5t-87 45.5t-64.5 87t-24 130q0 75 24 131t64.5 87t86.5 45.5t98 14.5q51 0 97 -14.5t86.5 -45.5t64.5 -87t24 -131q0 -74 -24 -130t-64 -87
t-86.5 -45.5t-97.5 -14.5zM305 102q55 0 83 43.5t28 119.5q0 72 -27 116.5t-84 44.5q-56 0 -84 -43t-28 -118q0 -73 27 -118t85 -45z" />
    <glyph glyph-name="Ohungarumlaut" unicode="&#x150;" horiz-adv-x="780" 
d="M399 783l112 173h162l-167 -173h-107zM208 783l104 173h162l-160 -173h-106zM390 -14q-69 0 -130.5 24t-111 70t-78.5 121t-29 169t29 169t78.5 121t111 70t130.5 24q144 0 246 -100t102 -284t-102 -284t-246 -100zM390 117q85 0 135.5 68.5t50.5 184.5t-50 182.5
t-136 66.5t-136 -66.5t-50 -182.5q0 -117 50 -185t136 -68z" />
    <glyph glyph-name="ohungarumlaut" unicode="&#x151;" horiz-adv-x="609" 
d="M323 590l112 173h162l-167 -173h-107zM132 590l104 173h162l-160 -173h-106zM305 -11q-51 0 -97.5 14.5t-87 45.5t-64.5 87t-24 130q0 75 24 131t64.5 87t86.5 45.5t98 14.5q51 0 97 -14.5t86.5 -45.5t64.5 -87t24 -131q0 -74 -24 -130t-64 -87t-86.5 -45.5t-97.5 -14.5z
M305 102q55 0 83 43.5t28 119.5q0 72 -27 116.5t-84 44.5q-56 0 -84 -43t-28 -118q0 -73 27 -118t85 -45z" />
    <glyph glyph-name="OE" unicode="&#x152;" horiz-adv-x="1130" 
d="M389 117q85 0 135 68.5t50 184.5t-49.5 182.5t-135.5 66.5q-87 0 -137 -66.5t-50 -182.5t50.5 -184.5t136.5 -68.5zM380 -14q-68 0 -128 24t-108 70t-76 121t-28 169t29 169t78.5 121t111 70t130.5 24q118 0 201 -77v63h487v-136h-341v-159h247v-129h-247v-184h359v-132
h-505v64q-84 -78 -210 -78z" />
    <glyph glyph-name="oe" unicode="&#x153;" horiz-adv-x="953" 
d="M304 -11q-51 0 -97.5 14.5t-86.5 45.5t-64 87t-24 130q0 75 23.5 131t64 87t86.5 45.5t98 14.5q121 0 188 -100q70 100 184 100q48 0 88 -13t77.5 -44t59 -92t21.5 -148v-24h-352q10 -121 123 -121q88 0 157 63l63 -96q-94 -80 -232 -80q-124 0 -192 94q-64 -94 -185 -94
zM571 318h207q-12 110 -103 110q-39 0 -67 -27t-37 -83zM304 106q111 0 111 159q0 72 -26.5 115t-84.5 43q-111 0 -111 -158q0 -159 111 -159z" />
    <glyph glyph-name="Racute" unicode="&#x154;" horiz-adv-x="705" 
d="M272 783l93 173h162l-149 -173h-106zM236 607v-202h111q72 0 105.5 23.5t33.5 78.5q0 54 -33.5 77t-105.5 23h-111zM236 0h-160v740h278q291 0 291 -229q0 -164 -154 -211l165 -300h-172l-154 279h-94v-279z" />
    <glyph glyph-name="racute" unicode="&#x155;" horiz-adv-x="423" 
d="M132 590l93 173h162l-149 -173h-106zM222 0h-161v533h161v-89h1q64 100 180 100h5l-2 -143q-18 3 -42 3q-86 0 -142 -73v-331z" />
    <glyph glyph-name="Rcommaaccent" unicode="&#x156;" horiz-adv-x="705" 
d="M236 607v-202h111q72 0 105.5 23.5t33.5 78.5q0 54 -33.5 77t-105.5 23h-111zM236 0h-160v740h278q291 0 291 -229q0 -164 -154 -211l165 -300h-172l-154 279h-94v-279zM298 -294l38 110h-60v141h151v-121l-62 -130h-67z" />
    <glyph glyph-name="rcommaaccent" unicode="&#x157;" horiz-adv-x="423" 
d="M222 0h-161v533h161v-89h1q64 100 180 100h5l-2 -143q-18 3 -42 3q-86 0 -142 -73v-331zM87 -294l38 110h-60v141h151v-121l-62 -130h-67z" />
    <glyph glyph-name="Rcaron" unicode="&#x158;" horiz-adv-x="705" 
d="M298 786l-129 171h91l91 -74l92 74h91l-129 -171h-107zM236 607v-202h111q72 0 105.5 23.5t33.5 78.5q0 54 -33.5 77t-105.5 23h-111zM236 0h-160v740h278q291 0 291 -229q0 -164 -154 -211l165 -300h-172l-154 279h-94v-279z" />
    <glyph glyph-name="rcaron" unicode="&#x159;" horiz-adv-x="423" 
d="M158 593l-129 171h91l91 -74l92 74h91l-129 -171h-107zM222 0h-161v533h161v-89h1q64 100 180 100h5l-2 -143q-18 3 -42 3q-86 0 -142 -73v-331z" />
    <glyph glyph-name="Sacute" unicode="&#x15a;" horiz-adv-x="692" 
d="M265 783l93 173h162l-149 -173h-106zM351 -14q-221 0 -315 182l123 73q31 -60 83.5 -93t116.5 -33q58 0 93.5 22t35.5 63q0 39 -35 62t-115 45q-126 35 -172 61q-98 55 -98 165q0 102 73 161.5t194 59.5q194 0 294 -152l-113 -86q-29 48 -78.5 76.5t-103.5 28.5
q-51 0 -79 -20t-28 -54q0 -41 35 -62.5t117 -44.5q50 -13 79 -22.5t70 -29t63.5 -41t39 -57t16.5 -79.5q0 -96 -75 -160.5t-221 -64.5z" />
    <glyph glyph-name="sacute" unicode="&#x15b;" horiz-adv-x="534" 
d="M187 590l93 173h162l-149 -173h-106zM271 -11q-153 0 -249 82l64 90q36 -32 86 -50.5t99 -18.5q39 0 62 13.5t23 38.5q0 27 -22.5 40.5t-78.5 23.5q-38 7 -61.5 12.5t-55 18t-49 29t-30.5 44t-13 63.5q0 79 58 124t149 45q140 0 234 -75l-63 -91q-85 58 -157 58
q-34 0 -53 -12.5t-19 -34.5q0 -23 21.5 -35.5t73.5 -21.5q50 -8 80 -16.5t65.5 -26t53 -47.5t17.5 -73q0 -91 -67 -135.5t-168 -44.5z" />
    <glyph glyph-name="Scircumflex" unicode="&#x15c;" horiz-adv-x="692" 
d="M155 785l129 171h107l129 -171h-91l-93 74l-90 -74h-91zM351 -14q-221 0 -315 182l123 73q31 -60 83.5 -93t116.5 -33q58 0 93.5 22t35.5 63q0 39 -35 62t-115 45q-126 35 -172 61q-98 55 -98 165q0 102 73 161.5t194 59.5q194 0 294 -152l-113 -86q-29 48 -78.5 76.5
t-103.5 28.5q-51 0 -79 -20t-28 -54q0 -41 35 -62.5t117 -44.5q50 -13 79 -22.5t70 -29t63.5 -41t39 -57t16.5 -79.5q0 -96 -75 -160.5t-221 -64.5z" />
    <glyph glyph-name="scircumflex" unicode="&#x15d;" horiz-adv-x="534" 
d="M81 592l129 171h107l129 -171h-91l-93 74l-90 -74h-91zM271 -11q-153 0 -249 82l64 90q36 -32 86 -50.5t99 -18.5q39 0 62 13.5t23 38.5q0 27 -22.5 40.5t-78.5 23.5q-38 7 -61.5 12.5t-55 18t-49 29t-30.5 44t-13 63.5q0 79 58 124t149 45q140 0 234 -75l-63 -91
q-85 58 -157 58q-34 0 -53 -12.5t-19 -34.5q0 -23 21.5 -35.5t73.5 -21.5q50 -8 80 -16.5t65.5 -26t53 -47.5t17.5 -73q0 -91 -67 -135.5t-168 -44.5z" />
    <glyph glyph-name="Scedilla" unicode="&#x15e;" horiz-adv-x="692" 
d="M358 -202q-92 0 -148 37l29 48q45 -30 106 -30q50 0 50 34q0 27 -32 27q-21 0 -43 -17l-40 20l22 71q-183 19 -266 180l123 73q31 -60 83.5 -93t116.5 -33q58 0 93.5 22t35.5 63q0 39 -35 62t-115 45q-126 35 -172 61q-98 55 -98 165q0 102 73 161.5t194 59.5
q194 0 294 -152l-113 -86q-29 48 -78.5 76.5t-103.5 28.5q-51 0 -79 -20t-28 -54q0 -41 35 -62.5t117 -44.5q50 -13 79 -22.5t70 -29t63.5 -41t39 -57t16.5 -79.5q0 -94 -70.5 -157.5t-207.5 -67.5l-8 -32q23 15 64 15q30 0 51.5 -18.5t21.5 -51.5q0 -46 -40 -73.5
t-100 -27.5z" />
    <glyph glyph-name="scedilla" unicode="&#x15f;" horiz-adv-x="534" 
d="M279 -202q-92 0 -148 37l29 48q45 -30 106 -30q50 0 50 34q0 27 -32 27q-21 0 -43 -17l-40 20l23 74q-122 11 -202 80l64 90q36 -32 86 -50.5t99 -18.5q39 0 62 13.5t23 38.5q0 27 -22.5 40.5t-78.5 23.5q-38 7 -61.5 12.5t-55 18t-49 29t-30.5 44t-13 63.5q0 79 58 124
t149 45q140 0 234 -75l-63 -91q-85 58 -157 58q-34 0 -53 -12.5t-19 -34.5q0 -23 21.5 -35.5t73.5 -21.5q50 -8 80 -16.5t65.5 -26t53 -47.5t17.5 -73q0 -86 -60.5 -130.5t-155.5 -49.5l-8 -35q23 15 64 15q30 0 51.5 -18.5t21.5 -51.5q0 -46 -40 -73.5t-100 -27.5z" />
    <glyph glyph-name="Scaron" unicode="&#x160;" horiz-adv-x="692" 
d="M292 789l-129 171h91l91 -74l92 74h91l-129 -171h-107zM351 -14q-221 0 -315 182l123 73q31 -60 83.5 -93t116.5 -33q58 0 93.5 22t35.5 63q0 39 -35 62t-115 45q-126 35 -172 61q-98 55 -98 165q0 102 73 161.5t194 59.5q194 0 294 -152l-113 -86q-29 48 -78.5 76.5
t-103.5 28.5q-51 0 -79 -20t-28 -54q0 -41 35 -62.5t117 -44.5q50 -13 79 -22.5t70 -29t63.5 -41t39 -57t16.5 -79.5q0 -96 -75 -160.5t-221 -64.5z" />
    <glyph glyph-name="scaron" unicode="&#x161;" horiz-adv-x="534" 
d="M214 593l-129 171h91l91 -74l92 74h91l-129 -171h-107zM271 -11q-153 0 -249 82l64 90q36 -32 86 -50.5t99 -18.5q39 0 62 13.5t23 38.5q0 27 -22.5 40.5t-78.5 23.5q-38 7 -61.5 12.5t-55 18t-49 29t-30.5 44t-13 63.5q0 79 58 124t149 45q140 0 234 -75l-63 -91
q-85 58 -157 58q-34 0 -53 -12.5t-19 -34.5q0 -23 21.5 -35.5t73.5 -21.5q50 -8 80 -16.5t65.5 -26t53 -47.5t17.5 -73q0 -91 -67 -135.5t-168 -44.5z" />
    <glyph glyph-name="Tcedilla" unicode="&#x162;" horiz-adv-x="649" 
d="M287 0h-45v604h-220v136h604v-136h-221v-604h-52l-11 -46q23 15 64 15q30 0 51.5 -18.5t21.5 -51.5q0 -46 -40 -73.5t-100 -27.5q-92 0 -148 37l29 48q45 -30 106 -30q50 0 50 34q0 27 -32 27q-21 0 -43 -17l-40 20z" />
    <glyph glyph-name="tcedilla" unicode="&#x163;" horiz-adv-x="430" 
d="M258 -202q-92 0 -148 37l29 48q45 -30 106 -30q50 0 50 34q0 27 -32 27q-21 0 -43 -17l-40 20l26 83q-61 12 -81.5 47.5t-20.5 102.5v266h-89v117h89v183h160v-183h137v-117h-137v-231q0 -43 15.5 -59t58.5 -16q36 0 53 6v-115q-32 -8 -106 -8h-15l-9 -39q23 15 64 15
q30 0 51.5 -18.5t21.5 -51.5q0 -46 -40 -73.5t-100 -27.5z" />
    <glyph glyph-name="Tcaron" unicode="&#x164;" horiz-adv-x="648" 
d="M270 786l-129 171h91l91 -74l92 74h91l-129 -171h-107zM405 0h-163v604h-220v136h604v-136h-221v-604z" />
    <glyph glyph-name="tcaron" unicode="&#x165;" horiz-adv-x="427" 
d="M333 602l36 105h-57v136h145v-116l-60 -125h-64zM285 -7q-47 0 -79.5 7t-52.5 19t-31 33t-14.5 43t-3.5 55v266h-89v117h89v183h160v-183h137v-117h-137v-231q0 -43 15.5 -59t58.5 -16q36 0 53 6v-115q-32 -8 -106 -8z" />
    <glyph glyph-name="Tbar" unicode="&#x166;" horiz-adv-x="648" 
d="M625 278h-220v-278h-162v278h-221v121h221v205h-221v136h604v-136h-221v-205h220v-121z" />
    <glyph glyph-name="tbar" unicode="&#x167;" horiz-adv-x="427" 
d="M391 1q-32 -8 -106 -8q-47 0 -79.5 7t-52.5 19t-31 33t-14.5 43t-3.5 55v72h-88v102h88v92h-88v117h88v183h160v-183h137v-117h-137v-92h137v-102h-137v-37q0 -43 15.5 -59t58.5 -16q36 0 53 6v-115z" />
    <glyph glyph-name="Utilde" unicode="&#x168;" horiz-adv-x="725" 
d="M440 773q-40 0 -83 28t-61 28q-41 0 -41 -54h-87q0 159 119 159q40 0 83 -28t61 -28q41 0 41 54h86q0 -159 -118 -159zM363 -12q-150 0 -224.5 77.5t-74.5 217.5v457h163v-453q0 -167 138 -167q136 0 136 167v453h160v-456q0 -141 -74 -218.5t-224 -77.5z" />
    <glyph glyph-name="utilde" unicode="&#x169;" horiz-adv-x="618" 
d="M385 580q-40 0 -83 28t-61 28q-41 0 -41 -54h-87q0 159 119 159q40 0 83 -28t61 -28q41 0 41 54h86q0 -159 -118 -159zM212 -11q-72 0 -114 38t-42 117v389h161v-342q0 -74 63 -74q53 0 116 54v362h161v-533h-161v83q-73 -94 -184 -94z" />
    <glyph glyph-name="Umacron" unicode="&#x16a;" horiz-adv-x="725" 
d="M196 777v114h332v-114h-332zM363 -12q-150 0 -224.5 77.5t-74.5 217.5v457h163v-453q0 -167 138 -167q136 0 136 167v453h160v-456q0 -141 -74 -218.5t-224 -77.5z" />
    <glyph glyph-name="umacron" unicode="&#x16b;" horiz-adv-x="618" 
d="M142 584v114h332v-114h-332zM212 -11q-72 0 -114 38t-42 117v389h161v-342q0 -74 63 -74q53 0 116 54v362h161v-533h-161v83q-73 -94 -184 -94z" />
    <glyph glyph-name="Ubreve" unicode="&#x16c;" horiz-adv-x="725" 
d="M363 772q-81 0 -127 52t-50 133h86q10 -84 91 -84t91 84h86q-4 -82 -49.5 -133.5t-127.5 -51.5zM363 -12q-150 0 -224.5 77.5t-74.5 217.5v457h163v-453q0 -167 138 -167q136 0 136 167v453h160v-456q0 -141 -74 -218.5t-224 -77.5z" />
    <glyph glyph-name="ubreve" unicode="&#x16d;" horiz-adv-x="618" 
d="M308 579q-81 0 -127 52t-50 133h86q11 -84 91 -84t91 84h86q-4 -82 -49.5 -133.5t-127.5 -51.5zM212 -11q-72 0 -114 38t-42 117v389h161v-342q0 -74 63 -74q53 0 116 54v362h161v-533h-161v83q-73 -94 -184 -94z" />
    <glyph glyph-name="Uring" unicode="&#x16e;" horiz-adv-x="725" 
d="M362 774q-47 0 -78 31.5t-31 78.5q0 46 31 77t78 31t78.5 -31t31.5 -77q0 -47 -31.5 -78.5t-78.5 -31.5zM362 835q20 0 33 13.5t13 35.5q0 20 -13 33.5t-33 13.5t-33 -13.5t-13 -33.5q0 -22 13 -35.5t33 -13.5zM363 -12q-150 0 -224.5 77.5t-74.5 217.5v457h163v-453
q0 -167 138 -167q136 0 136 167v453h160v-456q0 -141 -74 -218.5t-224 -77.5z" />
    <glyph glyph-name="uring" unicode="&#x16f;" horiz-adv-x="618" 
d="M308 581q-47 0 -78 31.5t-31 78.5q0 46 31 77t78 31t78.5 -31t31.5 -77q0 -47 -31.5 -78.5t-78.5 -31.5zM308 642q20 0 33 13.5t13 35.5q0 20 -13 33.5t-33 13.5t-33 -13.5t-13 -33.5q0 -22 13 -35.5t33 -13.5zM212 -11q-72 0 -114 38t-42 117v389h161v-342q0 -74 63 -74
q53 0 116 54v362h161v-533h-161v83q-73 -94 -184 -94z" />
    <glyph glyph-name="Uhungarumlaut" unicode="&#x170;" horiz-adv-x="725" 
d="M379 783l112 173h162l-167 -173h-107zM188 783l104 173h162l-160 -173h-106zM363 -12q-150 0 -224.5 77.5t-74.5 217.5v457h163v-453q0 -167 138 -167q136 0 136 167v453h160v-456q0 -141 -74 -218.5t-224 -77.5z" />
    <glyph glyph-name="uhungarumlaut" unicode="&#x171;" horiz-adv-x="618" 
d="M334 590l112 173h162l-167 -173h-107zM143 590l104 173h162l-160 -173h-106zM212 -11q-72 0 -114 38t-42 117v389h161v-342q0 -74 63 -74q53 0 116 54v362h161v-533h-161v83q-73 -94 -184 -94z" />
    <glyph glyph-name="Uogonek" unicode="&#x172;" horiz-adv-x="725" 
d="M382 -187q-54 0 -83 20.5t-29 56.5q0 52 64 99q-136 7 -203 84t-67 210v457h163v-453q0 -167 138 -167q136 0 136 167v453h160v-456q0 -125 -58.5 -201t-177.5 -91q-48 -38 -48 -76q0 -39 46 -39q35 0 83 25l31 -49q-68 -40 -155 -40z" />
    <glyph glyph-name="uogonek" unicode="&#x173;" horiz-adv-x="618" 
d="M579 -147q-68 -40 -155 -40q-54 0 -83 20.5t-29 56.5q0 62 84 112v81q-73 -94 -184 -94q-72 0 -114 38t-42 117v389h161v-342q0 -74 63 -74q53 0 116 54v362h161v-533h-79q-59 -41 -59 -84q0 -39 46 -39q35 0 83 25z" />
    <glyph glyph-name="Wcircumflex" unicode="&#x174;" horiz-adv-x="956" 
d="M295 785l129 171h107l129 -171h-91l-93 74l-90 -74h-91zM359 0h-141l-197 740h164l78 -337q27 -102 36 -162h2q8 56 34 161l75 338h150l80 -340q30 -127 35 -159h2q6 43 33 157l75 342h150l-193 -740h-139l-117 515h-2z" />
    <glyph glyph-name="wcircumflex" unicode="&#x175;" horiz-adv-x="775" 
d="M205 592l129 171h107l129 -171h-91l-93 74l-90 -74h-91zM306 0h-148l-156 533h162l46 -191q22 -87 35 -163h2q16 85 37 167l46 187h125l49 -190q16 -57 38 -164h2q17 88 37 162l49 192h143l-156 -533h-149l-80 325h-2z" />
    <glyph glyph-name="Ycircumflex" unicode="&#x176;" horiz-adv-x="691" 
d="M162 785l129 171h107l129 -171h-91l-93 74l-90 -74h-91zM426 0h-162v314l-255 426h168l169 -288l170 288h166l-256 -426v-314z" />
    <glyph glyph-name="ycircumflex" unicode="&#x177;" horiz-adv-x="560" 
d="M104 592l129 171h107l129 -171h-91l-93 74l-90 -74h-91zM145 -204q-85 0 -152 19l34 124q53 -14 101 -14q50 0 68 46l10 26l-204 536h166l117 -346h2l118 346h156l-224 -589q-29 -74 -72.5 -111t-119.5 -37z" />
    <glyph glyph-name="Ydieresis" unicode="&#x178;" horiz-adv-x="691" 
d="M383 777v148h136v-148h-136zM171 777v148h136v-148h-136zM426 0h-162v314l-255 426h168l169 -288l170 288h166l-256 -426v-314z" />
    <glyph glyph-name="Zacute" unicode="&#x179;" horiz-adv-x="660" 
d="M234 783l93 173h162l-149 -173h-106zM621 0h-591v112l386 493h-361v135h566v-116l-378 -492h378v-132z" />
    <glyph glyph-name="zacute" unicode="&#x17a;" horiz-adv-x="530" 
d="M185 590l93 173h162l-149 -173h-106zM506 0h-477v83l258 333h-239v117h438v-85l-259 -334h279v-114z" />
    <glyph glyph-name="Zdotaccent" unicode="&#x17b;" horiz-adv-x="660" 
d="M247 795v131h165v-131h-165zM621 0h-591v112l386 493h-361v135h566v-116l-378 -492h378v-132z" />
    <glyph glyph-name="zdotaccent" unicode="&#x17c;" horiz-adv-x="530" 
d="M183 602v131h165v-131h-165zM506 0h-477v83l258 333h-239v117h438v-85l-259 -334h279v-114z" />
    <glyph glyph-name="Zcaron" unicode="&#x17d;" horiz-adv-x="660" 
d="M283 789l-129 171h91l91 -74l92 74h91l-129 -171h-107zM621 0h-591v112l386 493h-361v135h566v-116l-378 -492h378v-132z" />
    <glyph glyph-name="zcaron" unicode="&#x17e;" horiz-adv-x="530" 
d="M216 593l-129 171h91l91 -74l92 74h91l-129 -171h-107zM506 0h-477v83l258 333h-239v117h438v-85l-259 -334h279v-114z" />
    <glyph glyph-name="longs" unicode="&#x17f;" horiz-adv-x="405" 
d="M109 570q0 37 7 65t25.5 54.5t57 40.5t95.5 14q66 0 97 -7v-112q-16 4 -47 4q-36 0 -55.5 -12.5t-19.5 -51.5v-565h-160v570z" />
    <glyph glyph-name="florin" unicode="&#x192;" horiz-adv-x="420" 
d="M-90 -196l14 108q16 -4 46 -4q38 0 59 18.5t26 60.5l51 397h-92l14 112h92l9 74q9 80 54 127t154 47q62 0 97 -7l-15 -112q-16 4 -46 4q-36 0 -58 -12.5t-26 -51.5l-8 -69h116l-14 -112h-116l-55 -429q-4 -33 -14.5 -58.5t-32 -49.5t-62 -37t-97.5 -13q-64 0 -96 7z" />
    <glyph glyph-name="Aringacute" unicode="&#x1fa;" horiz-adv-x="712" 
d="M277 925l93 173h162l-149 -173h-106zM357 745q20 0 33 13.5t13 34.5q0 20 -13.5 34t-32.5 14q-20 0 -33 -14t-13 -34q0 -21 13 -34.5t33 -13.5zM264 283h174l-85 253h-2zM18 0l255 725q-26 28 -26 68q0 47 31.5 78t78.5 31t78 -31t31 -78q0 -43 -26 -67l256 -726h-165
l-55 166h-252l-57 -166h-149z" />
    <glyph glyph-name="aringacute" unicode="&#x1fb;" horiz-adv-x="576" 
d="M193 836l93 173h162l-149 -173h-106zM292 581q-47 0 -78 31.5t-31 78.5q0 46 31 77t78 31t78.5 -31t31.5 -77q0 -47 -31.5 -78.5t-78.5 -31.5zM292 642q20 0 33 13.5t13 35.5q0 20 -13 33.5t-33 13.5t-33 -13.5t-13 -33.5q0 -22 13 -35.5t33 -13.5zM242 113q76 0 122 46
v99q-181 -19 -181 -94q0 -25 16 -38t43 -13zM178 -8q-64 0 -108 39t-44 105q0 93 82 144.5t256 65.5v13q0 64 -72 64q-90 0 -175 -66l-68 92q105 95 266 95q107 0 156.5 -52t49.5 -157v-205q0 -93 15 -130h-160q-12 38 -12 78q-77 -86 -186 -86z" />
    <glyph glyph-name="AEacute" unicode="&#x1fc;" horiz-adv-x="1077" 
d="M472 783l93 173h162l-149 -173h-106zM517 603l-153 -272h154v272h-1zM179 0h-164l421 740h583v-136h-340v-159h246v-129h-246v-184h358v-132h-519v210h-222z" />
    <glyph glyph-name="aeacute" unicode="&#x1fd;" horiz-adv-x="898" 
d="M368 590l93 173h162l-149 -173h-106zM177 -11q-64 0 -107.5 37t-43.5 102q0 191 338 218v13q0 64 -73 64q-91 0 -174 -66l-68 92q105 95 266 95q111 0 151 -67q27 30 69 48.5t84 18.5q48 0 88 -13t77 -44t58.5 -92t21.5 -148v-24h-352q10 -121 124 -121q88 0 157 63
l62 -96q-92 -80 -231 -80q-158 0 -221 109q-94 -109 -226 -109zM514 318h206q-10 110 -102 110q-40 0 -67.5 -27t-36.5 -83zM242 110q75 0 133 58q-9 29 -10 60q-2 22 -1 33q-181 -18 -181 -100q0 -25 16 -38t43 -13z" />
    <glyph glyph-name="Oslashacute" unicode="&#x1fe;" horiz-adv-x="781" 
d="M295 783l93 173h162l-149 -173h-106zM221 242l284 337q-47 42 -115 42q-87 0 -138.5 -67t-51.5 -184q0 -74 21 -128zM558 498l-285 -338q47 -45 117 -45q87 0 138 69t51 186q0 74 -21 128zM744 708l-78 -90q72 -99 72 -248q0 -184 -102 -284t-246 -100q-118 0 -207 65
l-70 -81l-78 62l78 89q-72 99 -72 249q0 94 29 169t78.5 121t111 70t130.5 24q119 0 206 -65l71 81z" />
    <glyph glyph-name="oslashacute" unicode="&#x1ff;" horiz-adv-x="595" 
d="M210 590l93 173h162l-149 -173h-106zM196 200l179 203q-26 26 -70 26q-57 0 -86.5 -44t-29.5 -120q0 -37 7 -65zM415 324l-179 -200q29 -24 69 -24q57 0 86 44.5t29 120.5q0 29 -5 59zM584 506l-57 -63q50 -68 50 -177q0 -74 -24 -130t-64 -87t-86.5 -45.5t-97.5 -14.5
q-87 0 -153 38l-64 -69l-63 61l61 66q-54 70 -54 181q0 75 24 131t64.5 87t86.5 45.5t98 14.5q91 0 158 -42l58 64z" />
    <glyph glyph-name="Scommaaccent" unicode="&#x218;" horiz-adv-x="692" 
d="M351 -14q-221 0 -315 182l123 73q31 -60 83.5 -93t116.5 -33q58 0 93.5 22t35.5 63q0 39 -35 62t-115 45q-126 35 -172 61q-98 55 -98 165q0 102 73 161.5t194 59.5q194 0 294 -152l-113 -86q-29 48 -78.5 76.5t-103.5 28.5q-51 0 -79 -20t-28 -54q0 -41 35 -62.5
t117 -44.5q50 -13 79 -22.5t70 -29t63.5 -41t39 -57t16.5 -79.5q0 -96 -75 -160.5t-221 -64.5zM292 -294l38 110h-60v141h151v-121l-62 -130h-67z" />
    <glyph glyph-name="scommaaccent" unicode="&#x219;" horiz-adv-x="534" 
d="M271 -11q-153 0 -249 82l64 90q36 -32 86 -50.5t99 -18.5q39 0 62 13.5t23 38.5q0 27 -22.5 40.5t-78.5 23.5q-38 7 -61.5 12.5t-55 18t-49 29t-30.5 44t-13 63.5q0 79 58 124t149 45q140 0 234 -75l-63 -91q-85 58 -157 58q-34 0 -53 -12.5t-19 -34.5q0 -23 21.5 -35.5
t73.5 -21.5q50 -8 80 -16.5t65.5 -26t53 -47.5t17.5 -73q0 -91 -67 -135.5t-168 -44.5zM213 -294l38 110h-60v141h151v-121l-62 -130h-67z" />
    <glyph glyph-name="Tcommaaccent" unicode="&#x21a;" horiz-adv-x="648" 
d="M405 0h-163v604h-220v136h604v-136h-221v-604zM270 -294l38 110h-60v141h151v-121l-62 -130h-67z" />
    <glyph glyph-name="tcommaaccent" unicode="&#x21b;" horiz-adv-x="427" 
d="M285 -7q-47 0 -79.5 7t-52.5 19t-31 33t-14.5 43t-3.5 55v266h-89v117h89v183h160v-183h137v-117h-137v-231q0 -43 15.5 -59t58.5 -16q36 0 53 6v-115q-32 -8 -106 -8zM145 -294l38 110h-60v141h151v-121l-62 -130h-67z" />
    <glyph glyph-name="schwa" unicode="&#x259;" horiz-adv-x="577" 
d="M273 544q55 0 102 -15t86 -46t61.5 -86.5t22.5 -129.5q0 -60 -17.5 -108.5t-45 -79t-63.5 -51.5t-71 -30t-70 -9q-46 0 -86 13t-78 44t-60 92t-22 147v24h353q-10 123 -124 123q-86 0 -158 -64l-62 95q95 81 232 81zM384 215h-208q12 -112 103 -112q40 0 68 27.5t37 84.5
z" />
    <glyph glyph-name="quoteleft" unicode="&#x2bb;" horiz-adv-x="282" 
d="M223 465h-165v142l77 133h75l-43 -120h56v-155z" />
    <glyph glyph-name="quoteleft" unicode="&#x2018;" horiz-adv-x="282" 
d="M223 465h-165v142l77 133h75l-43 -120h56v-155z" />
    <glyph glyph-name="circumflex" unicode="&#x2c6;" horiz-adv-x="553" 
d="M94 592l129 171h107l129 -171h-91l-93 74l-90 -74h-91z" />
    <glyph glyph-name="caron" unicode="&#x2c7;" horiz-adv-x="553" 
d="M223 593l-129 171h91l91 -74l92 74h91l-129 -171h-107z" />
    <glyph glyph-name="breve" unicode="&#x2d8;" horiz-adv-x="500" 
d="M250 579q-81 0 -127 52t-50 133h86q11 -84 91 -84t91 84h86q-4 -82 -49.5 -133.5t-127.5 -51.5z" />
    <glyph glyph-name="dotaccent" unicode="&#x2d9;" horiz-adv-x="500" 
d="M168 602v131h165v-131h-165z" />
    <glyph glyph-name="ring" unicode="&#x2da;" horiz-adv-x="540" 
d="M270 581q-47 0 -78 31.5t-31 78.5q0 46 31 77t78 31t78.5 -31t31.5 -77q0 -47 -31.5 -78.5t-78.5 -31.5zM270 642q20 0 33 13.5t13 35.5q0 20 -13 33.5t-33 13.5t-33 -13.5t-13 -33.5q0 -22 13 -35.5t33 -13.5z" />
    <glyph glyph-name="ogonek" unicode="&#x2db;" horiz-adv-x="500" 
d="M268 -187q-54 0 -83 20.5t-29 56.5q0 31 25.5 62.5t66.5 54.5h84q-69 -45 -69 -91q0 -39 46 -39q35 0 83 25l31 -49q-68 -40 -155 -40z" />
    <glyph glyph-name="tilde" unicode="&#x2dc;" horiz-adv-x="523" 
d="M338 580q-40 0 -83 28t-61 28q-41 0 -41 -54h-87q0 159 119 159q40 0 83 -28t61 -28q41 0 41 54h86q0 -159 -118 -159z" />
    <glyph glyph-name="hungarumlaut" unicode="&#x2dd;" horiz-adv-x="526" 
d="M240 590l112 173h162l-167 -173h-107zM49 590l104 173h162l-160 -173h-106z" />
    <glyph glyph-name="tonos" unicode="&#x384;" horiz-adv-x="500" 
d="M151 584l64 177h161l-119 -177h-106z" />
    <glyph glyph-name="dieresistonos" unicode="&#x385;" horiz-adv-x="532" 
d="M160 584l64 177h160l-118 -177h-106zM388 584v149h133v-149h-133zM11 584v149h133v-149h-133z" />
    <glyph glyph-name="Alphatonos" unicode="&#x386;" horiz-adv-x="733" 
d="M-20 564l64 177h161l-119 -177h-106zM370 535l-87 -252h174l-85 252h-2zM186 0h-150l262 743h155l262 -743h-165l-55 165h-252z" />
    <glyph glyph-name="anoteleia" unicode="&#x387;" horiz-adv-x="289" 
d="M234 259h-179v155h179v-155z" />
    <glyph glyph-name="Epsilontonos" unicode="&#x388;" horiz-adv-x="798" 
d="M-30 564l64 177h161l-119 -177h-106zM763 0h-522v740h504v-136h-341v-159h247v-129h-247v-184h359v-132z" />
    <glyph glyph-name="Etatonos" unicode="&#x389;" horiz-adv-x="934" 
d="M-30 564l64 177h161l-119 -177h-106zM404 0h-163v740h163v-287h291v287h163v-740h-163v316h-291v-316z" />
    <glyph glyph-name="Iotatonos" unicode="&#x38a;" horiz-adv-x="495" 
d="M-30 564l64 177h161l-119 -177h-106zM411 0h-162v740h162v-740z" />
    <glyph glyph-name="Omicrontonos" unicode="&#x38c;" horiz-adv-x="909" 
d="M517 -14q-69 0 -130.5 24t-111 70t-78.5 121t-29 169t29 169t78.5 121t111 70t130.5 24q144 0 246 -100t102 -284t-102 -284t-246 -100zM-30 564l64 177h161l-119 -177h-106zM517 117q85 0 135.5 68.5t50.5 184.5t-50 182.5t-136 66.5t-136 -66.5t-50 -182.5
q0 -117 50 -185t136 -68z" />
    <glyph glyph-name="Upsilontonos" unicode="&#x38e;" horiz-adv-x="910" 
d="M-30 564l64 177h161l-119 -177h-106zM644 0h-162v314l-255 426h168l169 -288l170 288h166l-256 -426v-314z" />
    <glyph glyph-name="Omegatonos" unicode="&#x38f;" horiz-adv-x="900" 
d="M-30 564l64 177h161l-119 -177h-106zM511 754q79 0 144 -30t106.5 -79.5t64 -112t22.5 -130.5q0 -77 -34 -148t-99 -122h126v-132h-263v132q57 63 82 123.5t25 145.5q0 92 -46.5 155t-129.5 63q-81 0 -126.5 -62t-45.5 -154q0 -85 25 -146.5t82 -124.5v-132h-263v132h126
q-64 49 -98 121.5t-34 148.5q0 92 37.5 170.5t116 130t182.5 51.5z" />
    <glyph glyph-name="iotadieresistonos" unicode="&#x390;" horiz-adv-x="294" 
d="M42 584l64 177h160l-118 -177h-106zM270 584v149h133v-149h-133zM-107 584v149h133v-149h-133zM227 0h-160v533h160v-533z" />
    <glyph glyph-name="Alpha" unicode="&#x391;" horiz-adv-x="713" 
d="M351 535l-87 -252h174l-85 252h-2zM167 0h-150l262 743h155l262 -743h-165l-55 165h-252z" />
    <glyph glyph-name="Beta" unicode="&#x392;" horiz-adv-x="713" 
d="M387 0h-311v740h296q264 0 264 -183q0 -74 -39.5 -116t-101.5 -54v-2q161 -29 161 -181q0 -104 -77 -154t-192 -50zM236 614v-179h120q124 0 124 89q0 90 -122 90h-122zM236 320v-196h131q130 0 130 99q0 97 -137 97h-124z" />
    <glyph glyph-name="Gamma" unicode="&#x393;" horiz-adv-x="586" 
d="M239 604v-604h-162v740h488v-136h-326z" />
    <glyph glyph-name="uni0394" unicode="&#x394;" horiz-adv-x="713" 
d="M18 0l262 743h154l262 -743h-678zM211 132h279l-137 404h-2z" />
    <glyph glyph-name="Epsilon" unicode="&#x395;" horiz-adv-x="633" 
d="M598 0h-522v740h504v-136h-341v-159h247v-129h-247v-184h359v-132z" />
    <glyph glyph-name="Zeta" unicode="&#x396;" horiz-adv-x="660" 
d="M621 0h-591v112l386 493h-361v135h566v-116l-378 -492h378v-132z" />
    <glyph glyph-name="Eta" unicode="&#x397;" horiz-adv-x="769" 
d="M239 0h-163v740h163v-287h291v287h163v-740h-163v316h-291v-316z" />
    <glyph glyph-name="Theta" unicode="&#x398;" horiz-adv-x="780" 
d="M390 -14q-69 0 -130.5 24t-111 70t-78.5 121t-29 169t29 169t78.5 121t111 70t130.5 24q144 0 246 -100t102 -284t-102 -284t-246 -100zM390 117q85 0 135.5 68.5t50.5 184.5t-50 182.5t-136 66.5t-136 -66.5t-50 -182.5q0 -117 50 -185t136 -68zM522 320h-263v108h263
v-108z" />
    <glyph glyph-name="Iota" unicode="&#x399;" horiz-adv-x="330" 
d="M246 0h-162v740h162v-740z" />
    <glyph glyph-name="Kappa" unicode="&#x39a;" horiz-adv-x="718" 
d="M239 0h-163v740h163v-306l248 306h190l-251 -289l277 -451h-184l-199 328l-81 -91v-237z" />
    <glyph glyph-name="Lambda" unicode="&#x39b;" horiz-adv-x="698" 
d="M272 743h154l255 -743h-165l-169 529h-2l-175 -529h-153z" />
    <glyph glyph-name="Mu" unicode="&#x39c;" horiz-adv-x="908" 
d="M222 0h-146v740h215l165 -544h2l154 544h220v-740h-157v505h-2q-11 -63 -41 -165l-111 -340h-144l-110 340q-27 90 -43 173h-2v-513z" />
    <glyph glyph-name="Nu" unicode="&#x39d;" horiz-adv-x="777" 
d="M226 0h-150v740h163l310 -472h2v472h150v-740h-150l-323 476h-2v-476z" />
    <glyph glyph-name="Xi" unicode="&#x39e;" horiz-adv-x="651" 
d="M604 0h-557v132h199v184h-133v129h133v159h-193v136h545v-136h-193v-159h133v-129h-133v-184h199v-132z" />
    <glyph glyph-name="Omicron" unicode="&#x39f;" horiz-adv-x="780" 
d="M390 -14q-69 0 -130.5 24t-111 70t-78.5 121t-29 169t29 169t78.5 121t111 70t130.5 24q144 0 246 -100t102 -284t-102 -284t-246 -100zM390 117q85 0 135.5 68.5t50.5 184.5t-50 182.5t-136 66.5t-136 -66.5t-50 -182.5q0 -117 50 -185t136 -68z" />
    <glyph glyph-name="Pi" unicode="&#x3a0;" horiz-adv-x="753" 
d="M77 0v740h599v-740h-162v604h-275v-604h-162z" />
    <glyph glyph-name="Rho" unicode="&#x3a1;" horiz-adv-x="676" 
d="M238 0h-162v740h269q65 0 115 -10t94.5 -35t68.5 -73.5t24 -118.5q0 -240 -304 -240h-105v-263zM238 607v-218h111q74 0 106.5 27.5t32.5 82.5q0 54 -32.5 81t-106.5 27h-111z" />
    <glyph glyph-name="Sigma" unicode="&#x3a3;" horiz-adv-x="613" 
d="M425 391l-189 -259h339v-132h-532v113l199 271l-189 223v133h507v-136h-316z" />
    <glyph glyph-name="Tau" unicode="&#x3a4;" horiz-adv-x="648" 
d="M405 0h-163v604h-220v136h604v-136h-221v-604z" />
    <glyph glyph-name="Upsilon" unicode="&#x3a5;" horiz-adv-x="691" 
d="M426 0h-162v314l-255 426h168l169 -288l170 288h166l-256 -426v-314z" />
    <glyph glyph-name="Phi" unicode="&#x3a6;" horiz-adv-x="860" 
d="M507 740v-67q136 -8 222.5 -85.5t86.5 -207.5q0 -129 -86 -206.5t-223 -89.5v-84h-154v84q-138 13 -223.5 89t-85.5 205q0 130 87 208t222 87v67h154zM353 212v335q-61 -3 -106.5 -48.5t-45.5 -118.5q0 -74 44 -119t108 -49zM507 546v-335q61 4 106.5 49t45.5 118
q0 76 -44 120t-108 48z" />
    <glyph glyph-name="Chi" unicode="&#x3a7;" horiz-adv-x="725" 
d="M203 0h-171l237 391l-216 349h186l132 -222l125 222h168l-211 -350l240 -390h-181l-157 259z" />
    <glyph glyph-name="Psi" unicode="&#x3a8;" horiz-adv-x="802" 
d="M755 740v-284q0 -145 -77 -214t-200 -76v-166h-155v166q-123 6 -199.5 75t-76.5 215v284h155v-289q0 -139 121 -151v440h155v-440q62 5 92 39.5t30 111.5v289h155z" />
    <glyph glyph-name="uni03A9" unicode="&#x3a9;" horiz-adv-x="776" 
d="M388 754q79 0 144 -30t106.5 -79.5t64 -112t22.5 -130.5q0 -77 -34 -148t-99 -122h126v-132h-263v132q57 63 82 123.5t25 145.5q0 92 -46.5 155t-129.5 63q-81 0 -126.5 -62t-45.5 -154q0 -85 25 -146.5t82 -124.5v-132h-263v132h126q-64 49 -98 121.5t-34 148.5
q0 92 37.5 170.5t116 130t182.5 51.5z" />
    <glyph glyph-name="Iotadieresis" unicode="&#x3aa;" horiz-adv-x="330" 
d="M201 777v148h136v-148h-136zM-11 777v148h136v-148h-136zM246 0h-162v740h162v-740z" />
    <glyph glyph-name="Upsilondieresis" unicode="&#x3ab;" horiz-adv-x="691" 
d="M383 777v148h136v-148h-136zM171 777v148h136v-148h-136zM426 0h-162v314l-255 426h168l169 -288l170 288h166l-256 -426v-314z" />
    <glyph glyph-name="alphatonos" unicode="&#x3ac;" horiz-adv-x="624" 
d="M255 584l64 177h161l-119 -177h-106zM297 113q53 0 105 52v198q-52 49 -107 49q-102 0 -102 -149q0 -70 26 -110t78 -40zM238 -8q-94 0 -149.5 68t-55.5 202q0 135 56.5 208.5t150.5 73.5q101 0 162 -77v66h160v-533h-160v76q-69 -84 -164 -84z" />
    <glyph glyph-name="epsilontonos" unicode="&#x3ad;" horiz-adv-x="533" 
d="M212 584l64 177h161l-119 -177h-106zM450 159l54 -101q-104 -69 -240 -69q-120 0 -174.5 41.5t-54.5 109.5q0 56 32 92.5t87 49.5q-44 11 -69.5 40.5t-25.5 75.5q0 68 55 107t150 39q133 0 221 -51l-51 -101q-68 38 -150 38q-79 0 -79 -57q0 -49 69 -49h106v-94h-109
q-41 0 -62.5 -17t-21.5 -47q0 -31 21.5 -45.5t72.5 -14.5q82 0 169 53z" />
    <glyph glyph-name="etatonos" unicode="&#x3ae;" horiz-adv-x="620" 
d="M273 584l64 177h161l-119 -177h-106zM62 0v534h161v-85q26 37 73 66t113 29q72 0 113.5 -38t41.5 -119v-588h-160v536q0 76 -65 76q-55 0 -116 -52v-359h-161z" />
    <glyph glyph-name="iotatonos" unicode="&#x3af;" horiz-adv-x="294" 
d="M92 584l64 177h161l-119 -177h-106zM227 0h-160v533h160v-533z" />
    <glyph glyph-name="upsilondieresistonos" unicode="&#x3b0;" horiz-adv-x="617" 
d="M202 584l64 177h160l-118 -177h-106zM430 584v149h133v-149h-133zM53 584v149h133v-149h-133zM309 118q44 0 67 25.5t23 84.5v305h160v-305q0 -118 -58.5 -178.5t-190.5 -60.5q-134 0 -192.5 60.5t-58.5 178.5v305h161v-305q0 -59 22.5 -84.5t66.5 -25.5z" />
    <glyph glyph-name="alpha" unicode="&#x3b1;" horiz-adv-x="624" 
d="M297 113q53 0 105 52v198q-52 49 -107 49q-102 0 -102 -149q0 -70 26 -110t78 -40zM238 -8q-94 0 -149.5 68t-55.5 202q0 135 56.5 208.5t150.5 73.5q101 0 162 -77v66h160v-533h-160v76q-69 -84 -164 -84z" />
    <glyph glyph-name="beta" unicode="&#x3b2;" horiz-adv-x="683" 
d="M443 -11q-128 0 -189 68l70 85q45 -38 104 -38q39 0 61.5 26t22.5 69q0 37 -16 61.5t-47.5 38t-67 19t-85.5 7.5v108q79 0 110 27.5t31 77.5q0 35 -26.5 59.5t-74.5 24.5q-116 0 -116 -130v-693h-158v689q0 128 71.5 190t198.5 62q118 0 186 -49.5t68 -139.5
q0 -60 -35.5 -99t-91.5 -56q82 -9 141.5 -57.5t59.5 -133.5q0 -104 -58.5 -160t-158.5 -56z" />
    <glyph glyph-name="gamma" unicode="&#x3b3;" horiz-adv-x="540" 
d="M190 -201v197l-192 537h166l112 -355h2l112 355h151l-191 -535v-199h-160z" />
    <glyph glyph-name="delta" unicode="&#x3b4;" horiz-adv-x="610" 
d="M577 266q0 -74 -24 -130t-64.5 -87t-86.5 -45.5t-97 -14.5t-97.5 14.5t-87 45.5t-64.5 87t-24 130q0 105 49.5 170.5t151.5 78.5q8 0 14 -3q-7 7 -72.5 63t-73.5 64v101h436v-117h-214l147 -127q58 -49 82.5 -102.5t24.5 -127.5zM416 265q0 63 -17 96t-54 59q-7 3 -40 3
q-53 0 -82.5 -39.5t-29.5 -118.5q0 -74 27.5 -118.5t84.5 -44.5q55 0 83 43.5t28 119.5z" />
    <glyph glyph-name="epsilon" unicode="&#x3b5;" horiz-adv-x="533" 
d="M450 159l54 -101q-104 -69 -240 -69q-120 0 -174.5 41.5t-54.5 109.5q0 56 32 92.5t87 49.5q-44 11 -69.5 40.5t-25.5 75.5q0 68 55 107t150 39q133 0 221 -51l-51 -101q-68 38 -150 38q-79 0 -79 -57q0 -49 69 -49h106v-94h-109q-41 0 -62.5 -17t-21.5 -47
q0 -31 21.5 -45.5t72.5 -14.5q82 0 169 53z" />
    <glyph glyph-name="zeta" unicode="&#x3b6;" horiz-adv-x="499" 
d="M486 740v-85q-165 -144 -228 -229.5t-63 -180.5q0 -67 26.5 -102t94.5 -42q81 -8 126 -39.5t45 -110.5q0 -69 -44 -111.5t-129 -42.5q-93 0 -151 38l29 71q44 -31 109 -31q76 0 76 58q0 29 -19.5 41t-68.5 16q-123 8 -186.5 72t-63.5 166q0 111 60.5 204.5t185.5 190.5
h-237v117h438z" />
    <glyph glyph-name="eta" unicode="&#x3b7;" horiz-adv-x="620" 
d="M62 0v534h161v-85q26 37 73 66t113 29q72 0 113.5 -38t41.5 -119v-588h-160v536q0 76 -65 76q-55 0 -116 -52v-359h-161z" />
    <glyph glyph-name="theta" unicode="&#x3b8;" horiz-adv-x="589" 
d="M39 369q0 184 64 280.5t191 96.5t191.5 -97t64.5 -279q0 -184 -64.5 -282.5t-192.5 -98.5q-254 0 -254 380zM293 637q-58 0 -80 -53t-23 -158h209q-2 104 -25.5 157.5t-80.5 53.5zM294 98q60 0 82.5 55.5t22.5 167.5h-209q1 -112 23 -167.5t81 -55.5z" />
    <glyph glyph-name="iota" unicode="&#x3b9;" horiz-adv-x="294" 
d="M227 0h-160v533h160v-533z" />
    <glyph glyph-name="kappa" unicode="&#x3ba;" horiz-adv-x="584" 
d="M61 0v533h160v-199l166 199h173l-174 -198l184 -335h-166l-118 217l-65 -73v-144h-160z" />
    <glyph glyph-name="lambda" unicode="&#x3bb;" horiz-adv-x="560" 
d="M143 744q76 0 119.5 -36.5t71.5 -111.5l227 -596h-165l-118 346h-2l-117 -346h-157l204 536l-12 33q-18 46 -68 46q-48 0 -101 -14l-34 124q67 19 152 19z" />
    <glyph glyph-name="uni03BC" unicode="&#x3bc;" horiz-adv-x="623" 
d="M222 -200h-161v733h161v-343q0 -73 63 -73q55 0 116 54v362h161v-533h-161v83q-55 -67 -126 -84q-34 -5 -53 4v-203z" />
    <glyph glyph-name="nu" unicode="&#x3bd;" horiz-adv-x="540" 
d="M351 -1h-162l-191 534h166l112 -355h2l112 355h151z" />
    <glyph glyph-name="xi" unicode="&#x3be;" horiz-adv-x="492" 
d="M515 622h-149q-48 -3 -75 -27.5t-27 -63.5q0 -98 142 -98v-108q-103 -2 -159.5 -29t-56.5 -90q0 -46 30 -72t97 -31q80 -6 124.5 -39t44.5 -113q0 -69 -44 -111.5t-129 -42.5q-92 0 -150 38l28 71q46 -31 109 -31q77 0 77 58q0 29 -20.5 42t-68.5 17q-137 10 -192 64
t-55 139q0 91 58.5 141.5t142.5 59.5q-57 14 -91.5 49t-34.5 91t40 88h-108v116h467v-118z" />
    <glyph glyph-name="omicron" unicode="&#x3bf;" horiz-adv-x="609" 
d="M305 -11q-51 0 -97.5 14.5t-87 45.5t-64.5 87t-24 130q0 75 24 131t64.5 87t86.5 45.5t98 14.5q51 0 97 -14.5t86.5 -45.5t64.5 -87t24 -131q0 -74 -24 -130t-64 -87t-86.5 -45.5t-97.5 -14.5zM305 102q55 0 83 43.5t28 119.5q0 72 -27 116.5t-84 44.5q-56 0 -84 -43
t-28 -118q0 -73 27 -118t85 -45z" />
    <glyph glyph-name="pi" unicode="&#x3c0;" horiz-adv-x="686" 
d="M7 418v116h672v-116h-86v-418h-160v418h-180v-418h-160v418h-86z" />
    <glyph glyph-name="rho" unicode="&#x3c1;" horiz-adv-x="624" 
d="M431 265q0 70 -25.5 108t-75.5 38q-108 0 -108 -162v-88q52 -49 107 -49q50 0 76 40t26 113zM591 266q0 -134 -56 -204.5t-151 -70.5q-97 0 -162 71v-263h-160v467q0 76 23.5 132t63.5 86.5t85.5 45t97.5 14.5q118 0 188.5 -67.5t70.5 -210.5z" />
    <glyph glyph-name="sigma1" unicode="&#x3c2;" horiz-adv-x="555" 
d="M193 265q0 -75 25 -115.5t100 -46.5q80 -7 124.5 -40t44.5 -112q0 -69 -44 -111.5t-129 -42.5q-93 0 -151 38l29 71q44 -31 109 -31q76 0 76 58q0 29 -20 42t-68 17q-114 9 -185.5 72.5t-71.5 201.5q0 76 25 132.5t66 87t85.5 44.5t92.5 14q100 0 152.5 -44t79.5 -119
l-135 -44q-15 49 -38.5 69.5t-60.5 20.5q-50 0 -78 -42t-28 -120z" />
    <glyph glyph-name="sigma" unicode="&#x3c3;" horiz-adv-x="633" 
d="M305 -11q-51 0 -97.5 14.5t-87 45.5t-64.5 87t-24 130q0 75 25.5 129.5t68.5 83t90 41.5t100 13h301v-117h-89q49 -54 49 -150q0 -74 -24 -130t-64.5 -87t-86.5 -45.5t-97 -14.5zM305 102q55 0 83 43.5t28 119.5q0 93 -54 151h-48q-121 0 -121 -151q0 -74 27.5 -118.5
t84.5 -44.5z" />
    <glyph glyph-name="tau" unicode="&#x3c4;" horiz-adv-x="493" 
d="M327 0h-160v416h-159v117h478v-117h-159v-416z" />
    <glyph glyph-name="upsilon" unicode="&#x3c5;" horiz-adv-x="617" 
d="M309 118q44 0 67 25.5t23 84.5v305h160v-305q0 -118 -58.5 -178.5t-190.5 -60.5q-134 0 -192.5 60.5t-58.5 178.5v305h161v-305q0 -59 22.5 -84.5t66.5 -25.5z" />
    <glyph glyph-name="phi" unicode="&#x3c6;" horiz-adv-x="748" 
d="M303 543v197h142v-197q52 -2 97 -17t85.5 -45.5t64 -85.5t23.5 -129q0 -73 -23 -127.5t-63 -85.5t-86 -46t-98 -17v-191h-142v191q-52 2 -98 17t-86 46t-63.5 85.5t-23.5 127.5q0 74 23.5 129t64 85.5t86 45.5t97.5 17zM303 103v322q-53 -6 -81.5 -47.5t-28.5 -112.5
q0 -69 28 -112t82 -50zM445 425v-322q52 6 81 48t29 114q0 70 -28.5 112t-81.5 48z" />
    <glyph glyph-name="chi" unicode="&#x3c7;" horiz-adv-x="548" 
d="M173 0h-162l183 275l-170 258h169l92 -147l87 147h162l-172 -258l180 -275h-168l-102 161z" />
    <glyph glyph-name="psi" unicode="&#x3c8;" horiz-adv-x="807" 
d="M324 -201v191q-142 0 -205.5 62t-63.5 180v301h159v-303q0 -111 110 -114v624h159v-624q110 3 110 114v303h159v-301q0 -118 -63.5 -180t-205.5 -62v-191h-159z" />
    <glyph glyph-name="omega" unicode="&#x3c9;" horiz-adv-x="810" 
d="M334 363h142v-164q0 -40 17 -61t46 -21q78 0 78 138q0 86 -36 160t-100 118h172q57 -47 90.5 -123.5t33.5 -166.5q0 -117 -53.5 -185.5t-159.5 -68.5q-61 0 -102 29t-57 69q-43 -98 -160 -98q-106 0 -159.5 68.5t-53.5 185.5q0 90 34 166.5t91 123.5h172
q-64 -44 -100 -118t-36 -160q0 -138 78 -138q29 0 46 21t17 61v164z" />
    <glyph glyph-name="iotadieresis" unicode="&#x3ca;" horiz-adv-x="294" 
d="M183 584v148h136v-148h-136zM-29 584v148h136v-148h-136zM227 0h-160v533h160v-533z" />
    <glyph glyph-name="upsilondieresis" unicode="&#x3cb;" horiz-adv-x="617" 
d="M345 584v148h136v-148h-136zM133 584v148h136v-148h-136zM309 118q44 0 67 25.5t23 84.5v305h160v-305q0 -118 -58.5 -178.5t-190.5 -60.5q-134 0 -192.5 60.5t-58.5 178.5v305h161v-305q0 -59 22.5 -84.5t66.5 -25.5z" />
    <glyph glyph-name="omicrontonos" unicode="&#x3cc;" horiz-adv-x="609" 
d="M250 584l64 177h161l-119 -177h-106zM305 -11q-51 0 -97.5 14.5t-87 45.5t-64.5 87t-24 130q0 75 24 131t64.5 87t86.5 45.5t98 14.5q51 0 97 -14.5t86.5 -45.5t64.5 -87t24 -131q0 -74 -24 -130t-64 -87t-86.5 -45.5t-97.5 -14.5zM305 102q55 0 83 43.5t28 119.5
q0 72 -27 116.5t-84 44.5q-56 0 -84 -43t-28 -118q0 -73 27 -118t85 -45z" />
    <glyph glyph-name="upsilontonos" unicode="&#x3cd;" horiz-adv-x="617" 
d="M253 584l64 177h161l-119 -177h-106zM309 118q44 0 67 25.5t23 84.5v305h160v-305q0 -118 -58.5 -178.5t-190.5 -60.5q-134 0 -192.5 60.5t-58.5 178.5v305h161v-305q0 -59 22.5 -84.5t66.5 -25.5z" />
    <glyph glyph-name="omegatonos" unicode="&#x3ce;" horiz-adv-x="790" 
d="M332 584l64 177h161l-119 -177h-106zM334 363h142v-164q0 -40 17 -61t46 -21q78 0 78 138q0 86 -36 160t-100 118h172q57 -47 90.5 -123.5t33.5 -166.5q0 -117 -53.5 -185.5t-159.5 -68.5q-61 0 -102 29t-57 69q-43 -98 -160 -98q-106 0 -159.5 68.5t-53.5 185.5
q0 90 34 166.5t91 123.5h172q-64 -44 -100 -118t-36 -160q0 -138 78 -138q29 0 46 21t17 61v164z" />
    <glyph glyph-name="Iocyrillic" unicode="&#x401;" horiz-adv-x="633" 
d="M367 777v148h136v-148h-136zM155 777v148h136v-148h-136zM598 0h-522v740h504v-136h-341v-159h247v-129h-247v-184h359v-132z" />
    <glyph glyph-name="Djecyrillic" unicode="&#x402;" horiz-adv-x="860" 
d="M405 325v-325h-161v605h-222v135h605v-135h-222v-191q66 94 188 94q101 0 168 -68t67 -179q0 -123 -76.5 -192t-220.5 -69v112q77 0 107 33.5t30 99.5q0 57 -35.5 94t-93.5 37q-79 0 -134 -51z" />
    <glyph glyph-name="Gjecyrillic" unicode="&#x403;" horiz-adv-x="585" 
d="M238 783l93 173h162l-149 -173h-106zM238 604v-604h-162v740h488v-136h-326z" />
    <glyph glyph-name="Ecyrillic" unicode="&#x404;" horiz-adv-x="715" 
d="M378 -14q-150 0 -243.5 98.5t-93.5 286.5q0 186 95 284.5t241 98.5q220 0 289 -194l-151 -55q-40 115 -139 115q-70 0 -113.5 -48.5t-54.5 -132.5h221v-126h-222q9 -91 54.5 -144t117.5 -53q60 0 94 33t54 95l148 -49q-73 -209 -297 -209z" />
    <glyph glyph-name="Dzecyrillic" unicode="&#x405;" horiz-adv-x="692" 
d="M351 -14q-221 0 -315 182l123 73q31 -60 83.5 -93t116.5 -33q58 0 93.5 22t35.5 63q0 39 -35 62t-115 45q-126 35 -172 61q-98 55 -98 165q0 102 73 161.5t194 59.5q194 0 294 -152l-113 -86q-29 48 -78.5 76.5t-103.5 28.5q-51 0 -79 -20t-28 -54q0 -41 35 -62.5
t117 -44.5q50 -13 79 -22.5t70 -29t63.5 -41t39 -57t16.5 -79.5q0 -96 -75 -160.5t-221 -64.5z" />
    <glyph glyph-name="Icyrillic" unicode="&#x406;" horiz-adv-x="330" 
d="M246 0h-162v740h162v-740z" />
    <glyph glyph-name="Yicyrillic" unicode="&#x407;" horiz-adv-x="330" 
d="M201 777v148h136v-148h-136zM-11 777v148h136v-148h-136zM246 0h-162v740h162v-740z" />
    <glyph glyph-name="Jecyrillic" unicode="&#x408;" horiz-adv-x="535" 
d="M226 -14q-127 0 -216 82l91 102q60 -54 117 -54q92 0 92 127v497h163v-522q0 -109 -60 -170.5t-187 -61.5z" />
    <glyph glyph-name="Ljecyrillic" unicode="&#x409;" horiz-adv-x="1181" 
d="M726 124h110q141 0 141 110q0 111 -141 111h-110v-221zM564 0v605h-279v-390q0 -108 -64.5 -161.5t-201.5 -53.5v127q54 0 79.5 21t25.5 66v526h602v-263h104q51 0 93 -6t82.5 -22t68 -42.5t44 -69t16.5 -99.5q0 -238 -304 -238h-266z" />
    <glyph glyph-name="Njecyrillic" unicode="&#x40a;" horiz-adv-x="1152" 
d="M693 124h110q141 0 141 110q0 111 -141 111h-110v-221zM530 0v345h-291v-345h-163v740h163v-258h291v258h163v-258h104q304 0 304 -244q0 -238 -304 -238h-267z" />
    <glyph glyph-name="Tshecyrillic" unicode="&#x40b;" horiz-adv-x="802" 
d="M244 0v605h-222v135h605v-135h-222v-195q26 36 73.5 65.5t113.5 29.5q72 0 113.5 -38.5t41.5 -119.5v-347h-159v297q0 77 -66 77q-54 0 -117 -54v-320h-161z" />
    <glyph glyph-name="Kjecyrillic" unicode="&#x40c;" horiz-adv-x="718" 
d="M299 783l93 173h162l-149 -173h-106zM239 0h-163v740h163v-306l248 306h190l-251 -289l277 -451h-184l-199 328l-81 -91v-237z" />
    <glyph glyph-name="Ushortcyrillic" unicode="&#x40e;" horiz-adv-x="732" 
d="M383 772q-81 0 -127 52t-50 133h86q10 -84 91 -84t91 84h86q-4 -82 -49.5 -133.5t-127.5 -51.5zM108 154q52 -39 104 -39q34 0 54 17t38 51q10 19 10 21l-286 536h166l157 -312l34 -73l32 73l142 312h165q-11 -24 -145 -296t-143 -291q-44 -90 -93.5 -128t-126.5 -38
q-107 0 -188 57z" />
    <glyph glyph-name="Dzhecyrillic" unicode="&#x40f;" horiz-adv-x="765" 
d="M76 0v740h161v-605h290v605h162v-740h-226v-191h-159v191h-228z" />
    <glyph glyph-name="Acyrillic" unicode="&#x410;" horiz-adv-x="713" 
d="M351 535l-87 -252h174l-85 252h-2zM167 0h-150l262 743h155l262 -743h-165l-55 165h-252z" />
    <glyph glyph-name="Becyrillic" unicode="&#x411;" horiz-adv-x="674" 
d="M77 0v740h490v-135h-330v-144h104q51 0 93 -6t82.5 -21.5t68 -41t44 -66.5t16.5 -96q0 -230 -304 -230h-264zM237 124h110q141 0 141 102q0 103 -141 103h-110v-205z" />
    <glyph glyph-name="Vecyrillic" unicode="&#x412;" horiz-adv-x="713" 
d="M387 0h-311v740h296q264 0 264 -183q0 -74 -39.5 -116t-101.5 -54v-2q161 -29 161 -181q0 -104 -77 -154t-192 -50zM236 614v-179h120q124 0 124 89q0 90 -122 90h-122zM236 320v-196h131q130 0 130 99q0 97 -137 97h-124z" />
    <glyph glyph-name="Gecyrillic" unicode="&#x413;" horiz-adv-x="587" 
d="M77 0v740h488v-135h-327v-605h-161z" />
    <glyph glyph-name="Decyrillic" unicode="&#x414;" horiz-adv-x="873" 
d="M595 135v457h-249l-36 -375q-7 -67 -30 -82h315zM756 135h102v-326h-160v191h-505v-191h-160v326h36q41 0 61 24t25 81l50 500h551v-605z" />
    <glyph glyph-name="Iecyrillic" unicode="&#x415;" horiz-adv-x="633" 
d="M598 0h-522v740h504v-136h-341v-159h247v-129h-247v-184h359v-132z" />
    <glyph glyph-name="Zhecyrillic" unicode="&#x416;" horiz-adv-x="1114" 
d="M478 0v236l-82 92l-199 -328h-182l276 451l-250 289h187l250 -308v308h157v-308l251 308h187l-251 -289l277 -451h-182l-200 328l-82 -92v-236h-157z" />
    <glyph glyph-name="Zecyrillic" unicode="&#x417;" horiz-adv-x="624" 
d="M300 -14q-184 0 -289 126l98 90q33 -40 82.5 -64.5t100.5 -24.5q62 0 95.5 27.5t33.5 77.5q0 59 -43 84.5t-128 25.5h-42v117h43q155 0 155 93q0 84 -109 84q-96 0 -169 -70l-86 101q47 46 121 73t153 27q120 0 184.5 -48t64.5 -142q0 -65 -39 -110.5t-110 -59.5
q83 -12 128.5 -62t45.5 -123q0 -105 -79.5 -163.5t-210.5 -58.5z" />
    <glyph glyph-name="Iicyrillic" unicode="&#x418;" horiz-adv-x="777" 
d="M701 0h-150v476h-2l-323 -476h-150v740h150v-472h2l310 472h163v-740z" />
    <glyph glyph-name="Iishortcyrillic" unicode="&#x419;" horiz-adv-x="777" 
d="M387 772q-81 0 -127 52t-50 133h86q10 -84 91 -84t91 84h86q-4 -82 -49.5 -133.5t-127.5 -51.5zM701 0h-150v476h-2l-323 -476h-150v740h150v-472h2l310 472h163v-740z" />
    <glyph glyph-name="Kacyrillic" unicode="&#x41a;" horiz-adv-x="718" 
d="M239 0h-163v740h163v-306l248 306h190l-251 -289l277 -451h-184l-199 328l-81 -91v-237z" />
    <glyph glyph-name="Elcyrillic" unicode="&#x41b;" horiz-adv-x="802" 
d="M285 605v-390q0 -108 -64.5 -161.5t-201.5 -53.5v127q54 0 79.5 21t25.5 66v526h602v-740h-162v605h-279z" />
    <glyph glyph-name="Emcyrillic" unicode="&#x41c;" horiz-adv-x="908" 
d="M222 0h-146v740h215l165 -544h2l154 544h220v-740h-157v505h-2q-11 -63 -41 -165l-111 -340h-144l-110 340q-27 90 -43 173h-2v-513z" />
    <glyph glyph-name="Encyrillic" unicode="&#x41d;" horiz-adv-x="769" 
d="M239 0h-163v740h163v-287h291v287h163v-740h-163v316h-291v-316z" />
    <glyph glyph-name="Ocyrillic" unicode="&#x41e;" horiz-adv-x="780" 
d="M390 -14q-69 0 -130.5 24t-111 70t-78.5 121t-29 169t29 169t78.5 121t111 70t130.5 24q144 0 246 -100t102 -284t-102 -284t-246 -100zM390 117q85 0 135.5 68.5t50.5 184.5t-50 182.5t-136 66.5t-136 -66.5t-50 -182.5q0 -117 50 -185t136 -68z" />
    <glyph glyph-name="Pecyrillic" unicode="&#x41f;" horiz-adv-x="765" 
d="M76 0v740h613v-740h-162v605h-290v-605h-161z" />
    <glyph glyph-name="Ercyrillic" unicode="&#x420;" horiz-adv-x="676" 
d="M238 0h-162v740h269q65 0 115 -10t94.5 -35t68.5 -73.5t24 -118.5q0 -240 -304 -240h-105v-263zM238 607v-218h111q74 0 106.5 27.5t32.5 82.5q0 54 -32.5 81t-106.5 27h-111z" />
    <glyph glyph-name="Escyrillic" unicode="&#x421;" horiz-adv-x="729" 
d="M377 -14q-151 0 -243.5 98t-92.5 287q0 185 94.5 284t241.5 99q244 0 300 -233l-154 -45q-20 70 -53 106.5t-94 36.5q-83 0 -127.5 -66t-44.5 -182q0 -118 45.5 -186t128.5 -68q63 0 99.5 38.5t56.5 117.5l153 -34q-61 -253 -310 -253z" />
    <glyph glyph-name="Tecyrillic" unicode="&#x422;" horiz-adv-x="648" 
d="M405 0h-163v604h-220v136h604v-136h-221v-604z" />
    <glyph glyph-name="Ucyrillic" unicode="&#x423;" horiz-adv-x="732" 
d="M108 154q52 -39 104 -39q34 0 54 17t38 51q10 19 10 21l-286 536h166l157 -312l34 -73l32 73l142 312h165q-11 -24 -145 -296t-143 -291q-44 -90 -93.5 -128t-126.5 -38q-107 0 -188 57z" />
    <glyph glyph-name="Efcyrillic" unicode="&#x424;" horiz-adv-x="812" 
d="M332 0v85q-57 2 -106.5 18t-93 47.5t-68.5 87.5t-25 130q0 75 25 131t68 88t93 47.5t107 17.5v88h147v-88q57 -2 107 -17.5t93 -47t68 -88t25 -131.5q0 -74 -25 -130t-68 -87.5t-93 -47.5t-107 -18v-85h-147zM199 368q0 -73 33 -119.5t100 -51.5v339q-66 -4 -99.5 -49
t-33.5 -119zM613 368q0 72 -33.5 118t-100.5 50v-339q65 4 99.5 49.5t34.5 121.5z" />
    <glyph glyph-name="Khacyrillic" unicode="&#x425;" horiz-adv-x="725" 
d="M203 0h-171l237 391l-216 349h186l132 -222l125 222h168l-211 -350l240 -390h-181l-157 259z" />
    <glyph glyph-name="Tsecyrillic" unicode="&#x426;" horiz-adv-x="806" 
d="M632 0h-555v740h161v-605h290v605h162v-605h102v-326h-160v191z" />
    <glyph glyph-name="Checyrillic" unicode="&#x427;" horiz-adv-x="723" 
d="M487 0v300q-72 -39 -185 -39q-116 0 -177.5 52.5t-61.5 176.5v250h161v-234q0 -64 26 -91t94 -27q76 0 143 36v316h161v-740h-161z" />
    <glyph glyph-name="Shacyrillic" unicode="&#x428;" horiz-adv-x="1051" 
d="M975 740v-740h-899v740h161v-605h208v605h161v-605h207v605h162z" />
    <glyph glyph-name="Shchacyrillic" unicode="&#x429;" horiz-adv-x="1092" 
d="M918 0h-841v740h161v-605h208v605h161v-605h207v605h162v-605h102v-326h-160v191z" />
    <glyph glyph-name="Hardsigncyrillic" unicode="&#x42a;" horiz-adv-x="836" 
d="M217 0v605h-203v135h363v-263h104q51 0 93 -6t82.5 -22t68 -42.5t44 -69t16.5 -99.5q0 -238 -304 -238h-264zM377 124h110q141 0 141 110q0 111 -141 111h-110v-221z" />
    <glyph glyph-name="Yericyrillic" unicode="&#x42b;" horiz-adv-x="950" 
d="M77 0v740h160v-263h104q51 0 93 -6t82.5 -22t68 -42.5t44 -69t16.5 -99.5q0 -238 -304 -238h-264zM873 0h-162v740h162v-740zM237 124h110q141 0 141 110q0 111 -141 111h-110v-221z" />
    <glyph glyph-name="Softsigncyrillic" unicode="&#x42c;" horiz-adv-x="674" 
d="M77 0v740h160v-263h104q51 0 93 -6t82.5 -22t68 -42.5t44 -69t16.5 -99.5q0 -238 -304 -238h-264zM237 124h110q141 0 141 110q0 111 -141 111h-110v-221z" />
    <glyph glyph-name="Ereversedcyrillic" unicode="&#x42d;" horiz-adv-x="715" 
d="M336 -14q-223 0 -296 209l148 49q20 -62 54 -95t94 -33q72 0 117 53t55 144h-223v126h221q-10 84 -53.5 132.5t-113.5 48.5q-100 0 -140 -115l-150 55q68 194 289 194q146 0 240.5 -98.5t94.5 -284.5q0 -188 -93 -286.5t-244 -98.5z" />
    <glyph glyph-name="IUcyrillic" unicode="&#x42e;" horiz-adv-x="1099" 
d="M708 -14q-132 0 -230.5 85t-115.5 243h-125v-314h-161v740h161v-292h128q22 147 119 226.5t224 79.5q68 0 129.5 -24t111 -69.5t79 -121t29.5 -169.5t-29.5 -169.5t-79 -121t-111 -69.5t-129.5 -24zM708 116q86 0 137 69.5t51 184.5t-50.5 182.5t-137.5 67.5
t-137.5 -67.5t-50.5 -182.5t50.5 -184.5t137.5 -69.5z" />
    <glyph glyph-name="IAcyrillic" unicode="&#x42f;" horiz-adv-x="705" 
d="M468 405v202h-111q-72 0 -105.5 -23t-33.5 -77q0 -55 33.5 -78.5t105.5 -23.5h111zM628 0h-160v279h-94l-154 -279h-172l165 300q-154 47 -154 211q0 229 291 229h278v-740z" />
    <glyph glyph-name="acyrillic" unicode="&#x430;" horiz-adv-x="577" 
d="M242 113q76 0 122 46v99q-181 -19 -181 -94q0 -25 16 -38t43 -13zM178 -8q-64 0 -108 39t-44 105q0 93 82 144.5t256 65.5v13q0 64 -72 64q-90 0 -175 -66l-68 92q105 95 266 95q107 0 156.5 -52t49.5 -157v-205q0 -93 15 -130h-160q-12 38 -12 78q-77 -86 -186 -86z" />
    <glyph glyph-name="becyrillic" unicode="&#x431;" horiz-adv-x="608" 
d="M304 -11q-121 0 -195.5 76t-74.5 214q0 52 4 104q29 344 308 352q96 3 147 15v-143q-26 -9 -135 -15q-84 -1 -124 -51.5t-44 -125.5q26 37 70 55.5t84 18.5q97 0 163.5 -66t66.5 -184q0 -115 -75.5 -182.5t-194.5 -67.5zM304 101q50 0 81 36t31 103q0 68 -31 105t-81 37
t-80.5 -37t-30.5 -104t30.5 -103.5t80.5 -36.5z" />
    <glyph glyph-name="vecyrillic" unicode="&#x432;" horiz-adv-x="581" 
d="M62 0v534h244q216 0 216 -129q0 -53 -33 -85.5t-83 -40.5v-1q63 -10 97 -38.5t34 -91.5q0 -53 -35 -88t-82 -47.5t-102 -12.5h-256zM210 315h81q84 0 84 58q0 54 -82 54h-83v-112zM210 105h86q89 0 89 61q0 59 -92 59h-83v-120z" />
    <glyph glyph-name="gecyrillic" unicode="&#x433;" horiz-adv-x="500" 
d="M471 534v-116h-250v-418h-159v534h409z" />
    <glyph glyph-name="decyrillic" unicode="&#x434;" horiz-adv-x="663" 
d="M423 107v311h-152l-20 -246q-3 -49 -33 -65h205zM161 -201h-150v317q48 1 63.5 15.5t18.5 51.5l30 351h459v-418h64v-317h-149v201h-336v-201z" />
    <glyph glyph-name="iecyrillic" unicode="&#x435;" horiz-adv-x="577" 
d="M304 -11q-55 0 -101.5 15t-86 46t-62 86.5t-22.5 129.5t26 130.5t67.5 87t86 45.5t88.5 15q46 0 85.5 -13t77.5 -44t60 -92.5t22 -147.5v-24h-353q11 -122 124 -122q88 0 158 64l62 -96q-94 -80 -232 -80zM194 318h207q-12 111 -102 111q-40 0 -68 -27.5t-37 -83.5z" />
    <glyph glyph-name="zhecyrillic" unicode="&#x436;" horiz-adv-x="887" 
d="M520 534v-204l171 204h169l-174 -201l184 -333h-163l-119 217q-59 -67 -68 -76v-141h-154v141l-67 76l-119 -217h-164l184 333l-174 201h170l170 -204v204h154z" />
    <glyph glyph-name="zecyrillic" unicode="&#x437;" horiz-adv-x="515" 
d="M253 -11q-164 0 -240 108l90 76q54 -70 147 -70q46 0 72 17t26 46q0 31 -31.5 45.5t-104.5 14.5h-28v88h32q63 0 91.5 13.5t28.5 44.5q0 26 -22.5 42t-65.5 16q-72 0 -127 -52l-76 78q82 88 212 88q106 0 162 -41.5t56 -108.5q0 -51 -26.5 -82.5t-77.5 -38.5
q118 -25 118 -125q0 -70 -61.5 -114.5t-174.5 -44.5z" />
    <glyph glyph-name="iicyrillic" unicode="&#x438;" horiz-adv-x="663" 
d="M601 534v-534h-151v317q-12 -18 -115.5 -158.5t-115.5 -158.5h-157v534h150v-319q12 17 112 159.5t112 159.5h165z" />
    <glyph glyph-name="iishortcyrillic" unicode="&#x439;" horiz-adv-x="663" 
d="M329 579q-81 0 -127 52t-50 133h86q10 -84 91 -84t91 84h86q-4 -82 -49.5 -133.5t-127.5 -51.5zM601 534v-534h-151v317q-12 -18 -115.5 -158.5t-115.5 -158.5h-157v534h150v-319q12 17 112 159.5t112 159.5h165z" />
    <glyph glyph-name="kacyrillic" unicode="&#x43a;" horiz-adv-x="585" 
d="M61 0v533h160v-199l166 199h173l-174 -198l184 -335h-166l-118 217l-65 -73v-144h-160z" />
    <glyph glyph-name="elcyrillic" unicode="&#x43b;" horiz-adv-x="647" 
d="M426 0v418h-176v-241q0 -49 -13 -82.5t-32 -51.5t-54.5 -27.5t-64 -11.5t-77.5 -2v108q50 0 66 12t16 50v362h494v-534h-159z" />
    <glyph glyph-name="emcyrillic" unicode="&#x43c;" horiz-adv-x="750" 
d="M191 0h-129v534h196l117 -371h2l114 371h197v-534h-138v354h-1q-1 -6 -31 -105l-86 -249h-123l-86 250q-3 13 -15.5 51.5t-15.5 52.5h-1v-354z" />
    <glyph glyph-name="encyrillic" unicode="&#x43d;" horiz-adv-x="629" 
d="M62 0v534h159v-203h187v203h159v-534h-159v208h-187v-208h-159z" />
    <glyph glyph-name="ocyrillic" unicode="&#x43e;" horiz-adv-x="609" 
d="M305 -11q-51 0 -97.5 14.5t-87 45.5t-64.5 87t-24 130q0 75 24 131t64.5 87t86.5 45.5t98 14.5q51 0 97 -14.5t86.5 -45.5t64.5 -87t24 -131q0 -74 -24 -130t-64 -87t-86.5 -45.5t-97.5 -14.5zM305 102q55 0 83 43.5t28 119.5q0 72 -27 116.5t-84 44.5q-56 0 -84 -43
t-28 -118q0 -73 27 -118t85 -45z" />
    <glyph glyph-name="pecyrillic" unicode="&#x43f;" horiz-adv-x="625" 
d="M62 0v534h501v-534h-159v418h-183v-418h-159z" />
    <glyph glyph-name="ercyrillic" unicode="&#x440;" horiz-adv-x="624" 
d="M329 113q50 0 75.5 39.5t25.5 113.5q0 145 -103 145q-53 0 -105 -52v-197q52 -49 107 -49zM222 -200h-161v733h161v-81q67 92 164 92q94 0 149.5 -71.5t55.5 -205.5t-56 -204.5t-151 -70.5q-99 0 -162 71v-263z" />
    <glyph glyph-name="escyrillic" unicode="&#x441;" horiz-adv-x="555" 
d="M294 -11q-50 0 -94.5 14.5t-83 45.5t-61.5 87t-23 130q0 76 25 132.5t66 87t85.5 44.5t92.5 14q100 0 152.5 -44t79.5 -119l-135 -45q-15 49 -38.5 69.5t-60.5 20.5q-50 0 -78 -41.5t-28 -119.5q0 -75 25.5 -119t78.5 -44q75 0 105 95l133 -46q-66 -162 -241 -162z" />
    <glyph glyph-name="tecyrillic" unicode="&#x442;" horiz-adv-x="550" 
d="M195 0v418h-175v116h510v-116h-175v-418h-160z" />
    <glyph glyph-name="ucyrillic" unicode="&#x443;" horiz-adv-x="560" 
d="M145 -204q-85 0 -152 19l34 124q53 -14 101 -14q50 0 68 46l10 26l-204 536h166l117 -346h2l118 346h156l-224 -589q-29 -74 -72.5 -111t-119.5 -37z" />
    <glyph glyph-name="efcyrillic" unicode="&#x444;" horiz-adv-x="944" 
d="M294 111q28 0 55 16.5t43 36.5v199q-26 27 -48 38.5t-52 11.5q-100 0 -100 -150q0 -152 102 -152zM653 110q49 0 74 40.5t25 114.5q0 147 -101 147q-53 0 -99 -53v-199q49 -50 101 -50zM392 -201v283q-60 -91 -160 -91q-92 0 -145.5 68.5t-53.5 202.5q0 135 54 208.5
t146 73.5q103 0 159 -80v276h160v-291q63 94 161 94q92 0 145.5 -71t53.5 -206q0 -134 -54 -204.5t-147 -70.5q-97 0 -159 73v-265h-160z" />
    <glyph glyph-name="khacyrillic" unicode="&#x445;" horiz-adv-x="548" 
d="M173 0h-162l183 275l-170 258h169l92 -147l87 147h162l-172 -258l180 -275h-168l-102 161z" />
    <glyph glyph-name="tsecyrillic" unicode="&#x446;" horiz-adv-x="644" 
d="M477 0h-415v534h159v-418h183v418h159v-418h64v-317h-150v201z" />
    <glyph glyph-name="checyrillic" unicode="&#x447;" horiz-adv-x="616" 
d="M554 534v-534h-159v236q-70 -96 -187 -96q-72 0 -113.5 38.5t-41.5 119.5v236h159v-185q0 -77 66 -77q55 0 117 53v209h159z" />
    <glyph glyph-name="shacyrillic" unicode="&#x448;" horiz-adv-x="940" 
d="M878 534v-534h-816v534h159v-418h169v418h160v-418h169v418h159z" />
    <glyph glyph-name="shchacyrillic" unicode="&#x449;" horiz-adv-x="959" 
d="M792 0h-730v534h159v-418h169v418h160v-418h169v418h159v-418h64v-317h-150v201z" />
    <glyph glyph-name="hardsigncyrillic" unicode="&#x44a;" horiz-adv-x="670" 
d="M313 534v-157h68q44 0 78.5 -4t70 -16t58.5 -32t38 -55t15 -82q0 -188 -258 -188h-228v418h-139v116h297zM386 268h-73v-160h73q105 0 105 80q0 40 -24 60t-81 20z" />
    <glyph glyph-name="yericyrillic" unicode="&#x44b;" horiz-adv-x="826" 
d="M62 0v534h158v-157h69q44 0 78.5 -4t70 -16t58.5 -32t38 -55t15 -82q0 -188 -259 -188h-228zM765 0h-160v533h160v-533zM220 268v-160h73q105 0 105 80q0 40 -24 60t-81 20h-73z" />
    <glyph glyph-name="softsigncyrillic" unicode="&#x44c;" horiz-adv-x="577" 
d="M62 0v534h158v-157h69q44 0 78.5 -4t70 -16t58.5 -32t38 -55t15 -82q0 -188 -259 -188h-228zM220 268v-160h73q105 0 105 80q0 40 -24 60t-81 20h-73z" />
    <glyph glyph-name="ereversedcyrillic" unicode="&#x44d;" horiz-adv-x="540" 
d="M508 266q0 -141 -77 -209t-185 -68q-158 0 -227 133l124 56q35 -79 100 -79q47 0 74 34t32 88h-146v93h144q-7 56 -35.5 86.5t-73.5 30.5q-34 0 -55.5 -18t-36.5 -58l-128 52q55 137 221 137q47 0 91.5 -14t86 -44t66.5 -86.5t25 -133.5z" />
    <glyph glyph-name="iucyrillic" unicode="&#x44e;" horiz-adv-x="868" 
d="M564 -11q-97 0 -173 53t-94 162h-76v-204h-159v534h159v-207h76q17 111 93 164t174 53q50 0 96 -14.5t86.5 -45t65 -87t24.5 -131.5q0 -74 -24.5 -130t-65 -86.5t-86.5 -45.5t-96 -15zM564 101q54 0 83.5 44.5t29.5 119.5q0 74 -28.5 118.5t-84.5 44.5t-84.5 -43.5
t-28.5 -119.5q0 -74 28 -119t85 -45z" />
    <glyph glyph-name="iacyrillic" unicode="&#x44f;" horiz-adv-x="587" 
d="M297 275h71v151h-71q-105 0 -105 -76q0 -37 24 -56t81 -19zM526 534v-534h-158v165h-61q-14 0 -17 1l-93 -166h-163l111 187q-106 37 -106 163q0 184 258 184h229z" />
    <glyph glyph-name="iocyrillic" unicode="&#x451;" horiz-adv-x="577" 
d="M325 584v148h136v-148h-136zM113 584v148h136v-148h-136zM304 -11q-55 0 -101.5 15t-86 46t-62 86.5t-22.5 129.5t26 130.5t67.5 87t86 45.5t88.5 15q46 0 85.5 -13t77.5 -44t60 -92.5t22 -147.5v-24h-353q11 -122 124 -122q88 0 158 64l62 -96q-94 -80 -232 -80z
M194 318h207q-12 111 -102 111q-40 0 -68 -27.5t-37 -83.5z" />
    <glyph glyph-name="djecyrillic" unicode="&#x452;" horiz-adv-x="618" 
d="M-1 570v100h62v70h160v-70h87v-100h-87v-121q26 37 73 66t113 29q72 0 113.5 -38.5t41.5 -119.5v-440q0 -25 -3 -44.5t-14 -40t-29 -34t-49.5 -22t-74.5 -8.5q-68 0 -100 7v107q16 -6 46 -6q32 0 48 15.5t17 51.5v364q0 77 -66 77q-55 0 -116 -54v-359h-160v570h-62z" />
    <glyph glyph-name="gjecyrillic" unicode="&#x453;" horiz-adv-x="500" 
d="M179 590l93 173h162l-149 -173h-106zM471 534v-116h-250v-418h-159v534h409z" />
    <glyph glyph-name="ecyrillic" unicode="&#x454;" horiz-adv-x="540" 
d="M294 -11q-108 0 -185 68t-77 209q0 77 25 133.5t66.5 86.5t86 44t91.5 14q166 0 221 -137l-128 -52q-15 40 -36.5 58t-55.5 18q-45 0 -73.5 -30.5t-35.5 -86.5h144v-93h-146q5 -54 32 -88t74 -34q65 0 100 79l124 -56q-69 -133 -227 -133z" />
    <glyph glyph-name="dzecyrillic" unicode="&#x455;" horiz-adv-x="534" 
d="M271 -11q-153 0 -249 82l64 90q36 -32 86 -50.5t99 -18.5q39 0 62 13.5t23 38.5q0 27 -22.5 40.5t-78.5 23.5q-38 7 -61.5 12.5t-55 18t-49 29t-30.5 44t-13 63.5q0 79 58 124t149 45q140 0 234 -75l-63 -91q-85 58 -157 58q-34 0 -53 -12.5t-19 -34.5q0 -23 21.5 -35.5
t73.5 -21.5q50 -8 80 -16.5t65.5 -26t53 -47.5t17.5 -73q0 -91 -67 -135.5t-168 -44.5z" />
    <glyph glyph-name="icyrillic" unicode="&#x456;" horiz-adv-x="294" 
d="M228 606h-162v129h162v-129zM227 0h-160v533h160v-533z" />
    <glyph glyph-name="yicyrillic" unicode="&#x457;" horiz-adv-x="294" 
d="M183 584v148h136v-148h-136zM-29 584v148h136v-148h-136zM227 0h-160v533h160v-533z" />
    <glyph glyph-name="jecyrillic" unicode="&#x458;" horiz-adv-x="294" 
d="M228 606h-162v129h162v-129zM54 -203q-66 0 -98 7v109q18 -6 46 -6q33 0 49 17t16 56v553h160v-584q0 -32 -6 -55.5t-22.5 -47.5t-53 -36.5t-91.5 -12.5z" />
    <glyph glyph-name="ljecyrillic" unicode="&#x459;" horiz-adv-x="964" 
d="M426 0v418h-176v-241q0 -49 -13 -82.5t-32 -51.5t-54.5 -27.5t-64 -11.5t-77.5 -2v108q50 0 66 12t16 50v362h494v-157h69q44 0 78.5 -4t70 -16t58.5 -32t38 -55t15 -82q0 -188 -259 -188h-229zM585 268v-160h73q105 0 105 80q0 40 -24 60t-81 20h-73z" />
    <glyph glyph-name="njecyrillic" unicode="&#x45a;" horiz-adv-x="942" 
d="M567 268v-160h73q105 0 105 80q0 40 -24 60t-81 20h-73zM408 0v208h-187v-208h-159v534h159v-203h187v203h159v-157h69q44 0 78.5 -4t70 -16t58.5 -32t38 -55t15 -82q0 -188 -259 -188h-229z" />
    <glyph glyph-name="tshecyrillic" unicode="&#x45b;" horiz-adv-x="618" 
d="M222 358v-358h-160v573h-64v102h64v65h160v-65h86v-102h-86v-124q72 95 184 95q72 0 114 -38t42 -117v-389h-161v338q0 74 -62 74q-54 0 -117 -54z" />
    <glyph glyph-name="kjecyrillic" unicode="&#x45c;" horiz-adv-x="585" 
d="M232 590l93 173h162l-149 -173h-106zM61 0v533h160v-199l166 199h173l-174 -198l184 -335h-166l-118 217l-65 -73v-144h-160z" />
    <glyph glyph-name="ushortcyrillic" unicode="&#x45e;" horiz-adv-x="560" 
d="M284 579q-81 0 -127 52t-50 133h86q11 -84 91 -84t91 84h86q-4 -82 -49.5 -133.5t-127.5 -51.5zM145 -204q-85 0 -152 19l34 124q53 -14 101 -14q50 0 68 46l10 26l-204 536h166l117 -346h2l118 346h156l-224 -589q-29 -74 -72.5 -111t-119.5 -37z" />
    <glyph glyph-name="dzhecyrillic" unicode="&#x45f;" horiz-adv-x="625" 
d="M62 0v534h159v-418h183v418h159v-534h-170v-201h-160v201h-171z" />
    <glyph glyph-name="Gheupturncyrillic" unicode="&#x490;" horiz-adv-x="587" 
d="M406 740v125h159v-260h-327v-605h-161v740h329z" />
    <glyph glyph-name="gheupturncyrillic" unicode="&#x491;" horiz-adv-x="500" 
d="M311 695h160v-277h-250v-418h-159v534h249v161z" />
    <glyph glyph-name="Wgrave" unicode="&#x1e80;" horiz-adv-x="956" 
d="M444 783l-148 173h161l93 -173h-106zM359 0h-141l-197 740h164l78 -337q27 -102 36 -162h2q8 56 34 161l75 338h150l80 -340q30 -127 35 -159h2q6 43 33 157l75 342h150l-193 -740h-139l-117 515h-2z" />
    <glyph glyph-name="wgrave" unicode="&#x1e81;" horiz-adv-x="775" 
d="M339 590l-148 173h161l93 -173h-106zM306 0h-148l-156 533h162l46 -191q22 -87 35 -163h2q16 85 37 167l46 187h125l49 -190q16 -57 38 -164h2q17 88 37 162l49 192h143l-156 -533h-149l-80 325h-2z" />
    <glyph glyph-name="Wacute" unicode="&#x1e82;" horiz-adv-x="956" 
d="M414 783l93 173h162l-149 -173h-106zM359 0h-141l-197 740h164l78 -337q27 -102 36 -162h2q8 56 34 161l75 338h150l80 -340q30 -127 35 -159h2q6 43 33 157l75 342h150l-193 -740h-139l-117 515h-2z" />
    <glyph glyph-name="wacute" unicode="&#x1e83;" horiz-adv-x="775" 
d="M337 590l93 173h162l-149 -173h-106zM306 0h-148l-156 533h162l46 -191q22 -87 35 -163h2q16 85 37 167l46 187h125l49 -190q16 -57 38 -164h2q17 88 37 162l49 192h143l-156 -533h-149l-80 325h-2z" />
    <glyph glyph-name="Wdieresis" unicode="&#x1e84;" horiz-adv-x="956" 
d="M513 777v148h136v-148h-136zM301 777v148h136v-148h-136zM359 0h-141l-197 740h164l78 -337q27 -102 36 -162h2q8 56 34 161l75 338h150l80 -340q30 -127 35 -159h2q6 43 33 157l75 342h150l-193 -740h-139l-117 515h-2z" />
    <glyph glyph-name="wdieresis" unicode="&#x1e85;" horiz-adv-x="775" 
d="M423 584v148h136v-148h-136zM211 584v148h136v-148h-136zM306 0h-148l-156 533h162l46 -191q22 -87 35 -163h2q16 85 37 167l46 187h125l49 -190q16 -57 38 -164h2q17 88 37 162l49 192h143l-156 -533h-149l-80 325h-2z" />
    <glyph glyph-name="Ygrave" unicode="&#x1ef2;" horiz-adv-x="691" 
d="M328 783l-148 173h161l93 -173h-106zM426 0h-162v314l-255 426h168l169 -288l170 288h166l-256 -426v-314z" />
    <glyph glyph-name="ygrave" unicode="&#x1ef3;" horiz-adv-x="560" 
d="M246 590l-148 173h161l93 -173h-106zM145 -204q-85 0 -152 19l34 124q53 -14 101 -14q50 0 68 46l10 26l-204 536h166l117 -346h2l118 346h156l-224 -589q-29 -74 -72.5 -111t-119.5 -37z" />
    <glyph glyph-name="uni2000" unicode="&#x2000;" horiz-adv-x="500" 
 />
    <glyph glyph-name="uni2001" unicode="&#x2001;" horiz-adv-x="1000" 
 />
    <glyph glyph-name="space.en" unicode="&#x2002;" horiz-adv-x="500" 
 />
    <glyph glyph-name="space.em" unicode="&#x2003;" horiz-adv-x="1000" 
 />
    <glyph glyph-name="uni2004" unicode="&#x2004;" horiz-adv-x="333" 
 />
    <glyph glyph-name="uni2005" unicode="&#x2005;" horiz-adv-x="250" 
 />
    <glyph glyph-name="space.tab_en" unicode="&#x2007;" 
 />
    <glyph glyph-name="space.thin" unicode="&#x2009;" horiz-adv-x="200" 
 />
    <glyph glyph-name="uni200A" unicode="&#x200a;" horiz-adv-x="100" 
 />
    <glyph glyph-name="uni200B" unicode="&#x200b;" horiz-adv-x="0" 
 />
    <glyph glyph-name="endash.tab" unicode="&#x2012;" 
d="M41 244v135h568v-135h-568z" />
    <glyph glyph-name="endash" unicode="&#x2013;" horiz-adv-x="678" 
d="M623 244h-568v135h568v-135z" />
    <glyph glyph-name="emdash" unicode="&#x2014;" horiz-adv-x="943" 
d="M888 243h-833v136h833v-136z" />
    <glyph glyph-name="emdash.salt_em" unicode="&#x2015;" horiz-adv-x="1000" 
d="M0 243v136h1000v-136h-1000z" />
    <glyph glyph-name="quoteright" unicode="&#x2019;" horiz-adv-x="282" 
d="M147 465h-75l42 120h-56v155h165v-142z" />
    <glyph glyph-name="quotesinglbase" unicode="&#x201a;" horiz-adv-x="282" 
d="M147 -120h-75l42 120h-56v155h165v-141z" />
    <glyph glyph-name="quotedblleft" unicode="&#x201c;" horiz-adv-x="520" 
d="M462 465h-165v142l77 133h74l-42 -120h56v-155zM223 465h-165v142l77 133h75l-43 -120h56v-155z" />
    <glyph glyph-name="quotedblright" unicode="&#x201d;" horiz-adv-x="520" 
d="M385 465h-74l42 120h-56v155h165v-142zM147 465h-75l42 120h-56v155h165v-142z" />
    <glyph glyph-name="quotedblbase" unicode="&#x201e;" horiz-adv-x="520" 
d="M385 -120h-74l42 120h-56v155h165v-141zM147 -120h-75l42 120h-56v155h165v-141z" />
    <glyph glyph-name="dagger" unicode="&#x2020;" horiz-adv-x="611" 
d="M389 -200h-168l25 568l-216 -16v147l216 -18l-25 259h168l-25 -259l216 18v-147l-216 16z" />
    <glyph glyph-name="daggerdbl" unicode="&#x2021;" horiz-adv-x="611" 
d="M389 -200h-168l25 205l-196 -18v140l196 -17l-21 160l21 159l-196 -16v139l196 -17l-25 205h168l-25 -205l196 17v-139l-196 16l21 -159l-21 -160l196 17v-140l-196 18z" />
    <glyph glyph-name="bullet" unicode="&#x2022;" horiz-adv-x="463" 
d="M231 214q-59 0 -97.5 39t-38.5 97q0 59 38.5 98t97.5 39t98 -39t39 -98t-39 -97.5t-98 -38.5z" />
    <glyph glyph-name="ellipsis" unicode="&#x2026;" horiz-adv-x="845" 
d="M508 0h-172v155h172v-155zM227 0h-172v155h172v-155zM790 0h-172v155h172v-155z" />
    <glyph glyph-name="perthousand" unicode="&#x2030;" horiz-adv-x="1555" 
d="M244 268q-94 0 -147.5 65.5t-53.5 176.5t54 176.5t147 65.5q92 0 145.5 -65.5t53.5 -175.5t-53.5 -176.5t-145.5 -66.5zM402 0h-138l442 740h138zM244 369q67 0 67 141q0 139 -67 139q-69 0 -69 -138q0 -142 69 -142zM1312 -10q-93 0 -146.5 66t-53.5 176q0 111 54 177
t146 66t145.5 -66t53.5 -176t-53.5 -176.5t-145.5 -66.5zM865 -10q-93 0 -146.5 66t-53.5 176q0 111 54 177t147 66q92 0 145.5 -66t53.5 -176t-53.5 -176.5t-146.5 -66.5zM1312 92q67 0 67 141q0 138 -67 138q-69 0 -69 -138q0 -141 69 -141zM866 92q67 0 67 141
q0 138 -68 138t-68 -138q0 -141 69 -141z" />
    <glyph glyph-name="minute" unicode="&#x2032;" horiz-adv-x="264" 
d="M55 471l18 196l13 73h136l-64 -269h-103z" />
    <glyph glyph-name="second" unicode="&#x2033;" horiz-adv-x="460" 
d="M251 471l18 196l13 73h136l-64 -269h-103zM55 471l18 196l13 73h136l-64 -269h-103z" />
    <glyph glyph-name="guilsinglleft" unicode="&#x2039;" horiz-adv-x="373" 
d="M343 0h-153l-166 267l166 266h153l-159 -266z" />
    <glyph glyph-name="guilsinglright" unicode="&#x203a;" horiz-adv-x="373" 
d="M183 0h-153l159 267l-159 266h153l166 -266z" />
    <glyph glyph-name="fraction" unicode="&#x2044;" horiz-adv-x="544" 
d="M122 0h-139l440 740h138z" />
    <glyph glyph-name="fraction" unicode="&#x2215;" horiz-adv-x="544" 
d="M122 0h-139l440 740h138z" />
    <glyph glyph-name="zero.sups" unicode="&#x2070;" horiz-adv-x="532" 
d="M266 254q-101 0 -156 66.5t-55 180.5t55.5 181t155.5 67t155.5 -67t55.5 -181t-55 -180.5t-156 -66.5zM266 354q81 0 81 147q0 145 -81 145q-44 0 -63 -36.5t-19 -108.5q0 -147 82 -147z" />
    <glyph glyph-name="four.sups" unicode="&#x2074;" horiz-adv-x="496" 
d="M260 263v98h-215v81l211 298h131v-280h75v-99h-75v-98h-127zM164 452h103v152z" />
    <glyph glyph-name="five.sups" unicode="&#x2075;" horiz-adv-x="469" 
d="M223 254q-113 0 -185 64l56 83q24 -22 58.5 -36t67.5 -14q80 0 80 75q0 35 -19 53t-53 18q-42 0 -78 -43l-86 27l20 259h307l-7 -98h-205l-7 -88q30 28 94 28q73 0 116 -39.5t43 -118.5q0 -84 -55 -127t-147 -43z" />
    <glyph glyph-name="six.sups" unicode="&#x2076;" horiz-adv-x="497" 
d="M262 254q-102 0 -154.5 60.5t-52.5 179.5q0 135 61 195t161 60q99 0 156 -43l-52 -89q-45 30 -104 30q-49 0 -70.5 -26t-24.5 -90q54 41 120 41q68 0 111 -37.5t43 -114.5t-50.5 -121.5t-143.5 -44.5zM263 348q36 0 54 17.5t18 47.5q0 68 -70 68q-47 0 -83 -33
q6 -100 81 -100z" />
    <glyph glyph-name="seven.sups" unicode="&#x2077;" horiz-adv-x="423" 
d="M79 263l174 373h-217v104h352v-95l-176 -382h-133z" />
    <glyph glyph-name="eight.sups" unicode="&#x2078;" horiz-adv-x="487" 
d="M243 254q-97 0 -148.5 35t-51.5 98q0 81 101 125q-41 21 -60.5 47t-19.5 68q0 50 46.5 86t132.5 36q88 0 133.5 -35.5t45.5 -86.5q0 -76 -80 -112q50 -23 75.5 -51.5t25.5 -76.5q0 -63 -51.5 -98t-148.5 -35zM255 548q50 27 50 65q0 20 -15 35t-44 15q-30 0 -45.5 -13.5
t-15.5 -34.5q0 -24 15.5 -38t54.5 -29zM241 336q78 0 78 56q0 48 -89 82q-66 -31 -66 -82q0 -56 77 -56z" />
    <glyph glyph-name="nine.sups" unicode="&#x2079;" horiz-adv-x="497" 
d="M232 519q48 0 83 33q-3 47 -24 73.5t-58 26.5q-35 0 -53 -18t-18 -48q0 -67 70 -67zM219 254q-98 0 -155 43l52 86q44 -30 104 -30q49 0 70.5 26t24.5 90q-54 -41 -121 -41q-68 0 -110.5 39t-42.5 116q0 76 50 121t143 45q102 0 155 -61t53 -179q0 -133 -64.5 -194
t-158.5 -61z" />
    <glyph glyph-name="zero.sinf" unicode="&#x2080;" horiz-adv-x="532" 
d="M266 -208q-101 0 -156 66.5t-55 180.5t55.5 181t155.5 67t155.5 -67t55.5 -181t-55 -180.5t-156 -66.5zM266 -108q81 0 81 147q0 145 -81 145q-44 0 -63 -36.5t-19 -108.5q0 -147 82 -147z" />
    <glyph glyph-name="one.sinf" unicode="&#x2081;" horiz-adv-x="378" 
d="M58 -200v101h86v276q-44 -20 -84 -20v91q59 2 87 30h126v-377h75v-101h-290z" />
    <glyph glyph-name="two.sinf" unicode="&#x2082;" horiz-adv-x="478" 
d="M56 -198v26q0 63 27 113.5t113 102.5q69 43 81 56q13 16 13 39q0 42 -47 42q-57 0 -101 -72l-87 63q73 116 191 116q83 0 125 -38.5t42 -107.5q0 -46 -26 -84.5t-94 -75.5q-75 -42 -88 -77h211v-103h-360z" />
    <glyph glyph-name="three.sinf" unicode="&#x2083;" horiz-adv-x="478" 
d="M235 -206q-128 0 -194 98l78 68q45 -62 105 -62q71 0 71 52q0 31 -22 44t-72 13h-38v89h40q83 0 83 47q0 39 -51 39q-59 0 -109 -48l-68 79q78 75 187 75q81 0 124 -34.5t43 -95.5q0 -76 -71 -101q86 -26 86 -110q0 -74 -51.5 -113.5t-140.5 -39.5z" />
    <glyph glyph-name="four.sinf" unicode="&#x2084;" horiz-adv-x="496" 
d="M260 -199v98h-215v81l211 298h131v-280h75v-99h-75v-98h-127zM164 -10h103v152z" />
    <glyph glyph-name="five.sinf" unicode="&#x2085;" horiz-adv-x="469" 
d="M223 -208q-113 0 -185 64l56 83q24 -22 58.5 -36t67.5 -14q80 0 80 75q0 35 -19 53t-53 18q-42 0 -78 -43l-86 27l20 259h307l-7 -98h-205l-7 -88q30 28 94 28q73 0 116 -39.5t43 -118.5q0 -84 -55 -127t-147 -43z" />
    <glyph glyph-name="six.sinf" unicode="&#x2086;" horiz-adv-x="497" 
d="M262 -208q-102 0 -154.5 60.5t-52.5 179.5q0 135 61 195t161 60q99 0 156 -43l-52 -89q-45 30 -104 30q-49 0 -70.5 -26t-24.5 -90q54 41 120 41q68 0 111 -37.5t43 -114.5t-50.5 -121.5t-143.5 -44.5zM263 -114q36 0 54 17.5t18 47.5q0 68 -70 68q-47 0 -83 -33
q6 -100 81 -100z" />
    <glyph glyph-name="seven.sinf" unicode="&#x2087;" horiz-adv-x="423" 
d="M79 -199l174 373h-217v104h352v-95l-176 -382h-133z" />
    <glyph glyph-name="eight.sinf" unicode="&#x2088;" horiz-adv-x="487" 
d="M243 -208q-97 0 -148.5 35t-51.5 98q0 81 101 125q-41 21 -60.5 47t-19.5 68q0 50 46.5 86t132.5 36q88 0 133.5 -35.5t45.5 -86.5q0 -76 -80 -112q50 -23 75.5 -51.5t25.5 -76.5q0 -63 -51.5 -98t-148.5 -35zM255 86q50 27 50 65q0 20 -15 35t-44 15q-30 0 -45.5 -13.5
t-15.5 -34.5q0 -24 15.5 -38t54.5 -29zM241 -126q78 0 78 56q0 48 -89 82q-66 -31 -66 -82q0 -56 77 -56z" />
    <glyph glyph-name="nine.sinf" unicode="&#x2089;" horiz-adv-x="497" 
d="M232 57q48 0 83 33q-3 47 -24 73.5t-58 26.5q-35 0 -53 -18t-18 -48q0 -67 70 -67zM219 -208q-98 0 -155 43l52 86q44 -30 104 -30q49 0 70.5 26t24.5 90q-54 -41 -121 -41q-68 0 -110.5 39t-42.5 116q0 76 50 121t143 45q102 0 155 -61t53 -179q0 -133 -64.5 -194
t-158.5 -61z" />
    <glyph glyph-name="Euro" unicode="&#x20ac;" horiz-adv-x="737" 
d="M124 371v26h-103v86h112q24 134 103.5 202.5t190.5 68.5t174 -51.5t94 -148.5l-138 -51q-21 64 -48 94t-79 30q-111 0 -139 -144h159v-86h-169v-25q0 -29 1 -43h168v-87h-158q29 -132 140 -132q48 0 78.5 32.5t50.5 102.5l140 -44q-66 -215 -270 -215q-113 0 -191 63.5
t-104 192.5h-115v87h104q-1 14 -1 42z" />
    <glyph glyph-name="litre" unicode="&#x2113;" horiz-adv-x="538" 
d="M414 164l57 -76q-71 -90 -178 -90q-71 0 -109 33.5t-45 111.5q-2 11 -2 70l-43 -39l-48 95l91 73v216q0 87 46.5 145.5t135.5 58.5q76 0 114 -44t38 -106q0 -79 -39 -137.5t-114 -120.5l-21 -21v-128q0 -71 53 -71q34 0 64 30zM370 605q0 52 -33 52q-22 0 -31 -22t-9 -76
v-97q11 11 26 29q47 56 47 114z" />
    <glyph glyph-name="numero" unicode="&#x2116;" horiz-adv-x="1208" 
d="M975 359q-78 0 -135 47t-57 147q0 70 30.5 115.5t71.5 62t90 16.5q36 0 68.5 -10t61 -31t45.5 -60.5t17 -92.5q0 -52 -17 -91.5t-45.5 -61t-61 -31.5t-68.5 -10zM975 438q39 0 58.5 30.5t19.5 83.5q0 52 -19.5 82.5t-58.5 30.5q-38 0 -58 -30t-20 -83q0 -51 19.5 -82.5
t58.5 -31.5zM226 0h-150v740h163l310 -472h2v472h150v-740h-150l-323 476h-2v-476zM804 204v105h343v-105h-343z" />
    <glyph glyph-name="uni2117" unicode="&#x2117;" horiz-adv-x="867" 
d="M432 -14q-163 0 -272.5 110t-109.5 272q0 163 111 274.5t274 111.5q162 0 272 -110t110 -272q0 -163 -111.5 -274.5t-273.5 -111.5zM435 56q132 0 218.5 89t86.5 223q0 135 -88 225.5t-220 90.5t-218.5 -89t-86.5 -223q0 -135 88 -225.5t220 -90.5zM392 165h-99v417h162
q162 0 162 -133q0 -69 -45 -103t-124 -34h-56v-147zM392 498v-108h60q67 0 67 54t-68 54h-59z" />
    <glyph glyph-name="trademark" unicode="&#x2122;" horiz-adv-x="925" 
d="M253 317h-109v333h-116v90h341v-90h-116v-333zM525 317h-97v423h149l77 -281l78 281h147v-423h-106v276l-79 -276h-90l-79 274v-274z" />
    <glyph glyph-name="Omega" unicode="&#x2126;" horiz-adv-x="776" 
d="M388 754q79 0 144 -30t106.5 -79.5t64 -112t22.5 -130.5q0 -77 -34 -148t-99 -122h126v-132h-263v132q57 63 82 123.5t25 145.5q0 92 -46.5 155t-129.5 63q-81 0 -126.5 -62t-45.5 -154q0 -85 25 -146.5t82 -124.5v-132h-263v132h126q-64 49 -98 121.5t-34 148.5
q0 92 37.5 170.5t116 130t182.5 51.5z" />
    <glyph glyph-name="estimated" unicode="&#x212e;" horiz-adv-x="697" 
d="M664 318h-490v-220q71 -71 174 -71q84 0 137.5 37t99.5 108l37 -23q-50 -78 -114 -119.5t-160 -41.5q-138 0 -224 96t-86 235q0 141 85.5 236t227.5 95t226.5 -95.5t86.5 -236.5zM525 358v182q-76 71 -175 71q-105 0 -176 -71v-182h351z" />
    <glyph glyph-name="onethird" unicode="&#x2153;" horiz-adv-x="1162" 
d="M415 0h-139l440 740h138zM38 257v101h86v276q-44 -20 -84 -20v91q59 2 87 30h126v-377h75v-101h-290zM939 -5q-128 0 -194 98l78 68q45 -62 105 -62q71 0 71 52q0 31 -22 44t-72 13h-38v89h40q83 0 83 47q0 39 -51 39q-59 0 -109 -48l-68 79q78 75 187 75q81 0 124 -34.5
t43 -95.5q0 -76 -71 -101q86 -26 86 -110q0 -74 -51.5 -113.5t-140.5 -39.5z" />
    <glyph glyph-name="twothirds" unicode="&#x2154;" horiz-adv-x="1224" 
d="M36 259v26q0 63 27 113.5t113 102.5q69 43 81 56q13 16 13 39q0 42 -47 42q-57 0 -101 -72l-87 63q73 116 191 116q83 0 125 -38.5t42 -107.5q0 -45 -26 -84t-94 -76q-75 -42 -88 -77h211v-103h-360zM477 0h-139l440 740h138zM1001 -5q-128 0 -194 98l78 68
q45 -62 105 -62q71 0 71 52q0 31 -22 44t-72 13h-38v89h40q83 0 83 47q0 39 -51 39q-59 0 -109 -48l-68 79q78 75 187 75q81 0 124 -34.5t43 -95.5q0 -76 -71 -101q86 -26 86 -110q0 -74 -51.5 -113.5t-140.5 -39.5z" />
    <glyph glyph-name="oneeighth" unicode="&#x215b;" horiz-adv-x="1176" 
d="M415 0h-139l440 740h138zM38 257v101h86v276q-44 -20 -84 -20v91q59 2 87 30h126v-377h75v-101h-290zM952 -7q-97 0 -148.5 35t-51.5 98q0 81 101 125q-41 21 -60.5 47t-19.5 68q0 50 46.5 86t132.5 36q88 0 133.5 -35.5t45.5 -86.5q0 -76 -80 -112q50 -23 75.5 -51.5
t25.5 -76.5q0 -63 -51.5 -98t-148.5 -35zM964 287q50 27 50 65q0 20 -15 35t-44 15q-30 0 -45.5 -13.5t-15.5 -34.5q0 -24 15.5 -38t54.5 -29zM950 75q78 0 78 56q0 48 -89 82q-66 -31 -66 -82q0 -56 77 -56z" />
    <glyph glyph-name="threeeighths" unicode="&#x215c;" horiz-adv-x="1206" 
d="M445 0h-139l440 740h138zM982 -7q-97 0 -148.5 35t-51.5 98q0 81 101 125q-41 21 -60.5 47t-19.5 68q0 50 46.5 86t132.5 36q88 0 133.5 -35.5t45.5 -86.5q0 -76 -80 -112q50 -23 75.5 -51.5t25.5 -76.5q0 -63 -51.5 -98t-148.5 -35zM215 251q-128 0 -194 98l78 68
q45 -62 105 -62q71 0 71 52q0 31 -22 44t-72 13h-38v89h40q83 0 83 47q0 39 -51 39q-59 0 -109 -48l-68 79q78 75 187 75q81 0 124 -34.5t43 -95.5q0 -76 -71 -101q86 -26 86 -110q0 -74 -51.5 -113.5t-140.5 -39.5zM994 287q50 27 50 65q0 20 -15 35t-44 15
q-30 0 -45.5 -13.5t-15.5 -34.5q0 -24 15.5 -38t54.5 -29zM980 75q78 0 78 56q0 48 -89 82q-66 -31 -66 -82q0 -56 77 -56z" />
    <glyph glyph-name="fiveeighths" unicode="&#x215d;" horiz-adv-x="1204" 
d="M443 0h-139l440 740h138zM980 -7q-97 0 -148.5 35t-51.5 98q0 81 101 125q-41 21 -60.5 47t-19.5 68q0 50 46.5 86t132.5 36q88 0 133.5 -35.5t45.5 -86.5q0 -76 -80 -112q50 -23 75.5 -51.5t25.5 -76.5q0 -63 -51.5 -98t-148.5 -35zM992 287q50 27 50 65q0 20 -15 35
t-44 15q-30 0 -45.5 -13.5t-15.5 -34.5q0 -24 15.5 -38t54.5 -29zM203 249q-113 0 -185 64l56 83q24 -22 58.5 -36t67.5 -14q80 0 80 75q0 35 -19 53t-53 18q-42 0 -78 -43l-86 27l20 259h307l-7 -98h-205l-7 -88q30 28 94 28q73 0 116 -39.5t43 -118.5q0 -84 -55 -127
t-147 -43zM978 75q78 0 78 56q0 48 -89 82q-66 -31 -66 -82q0 -56 77 -56z" />
    <glyph glyph-name="seveneighths" unicode="&#x215e;" horiz-adv-x="1116" 
d="M355 0h-139l440 740h138zM59 258l174 373h-217v104h352v-95l-176 -382h-133zM892 -7q-97 0 -148.5 35t-51.5 98q0 81 101 125q-41 21 -60.5 47t-19.5 68q0 50 46.5 86t132.5 36q88 0 133.5 -35.5t45.5 -86.5q0 -76 -80 -112q50 -23 75.5 -51.5t25.5 -76.5
q0 -63 -51.5 -98t-148.5 -35zM904 287q50 27 50 65q0 20 -15 35t-44 15q-30 0 -45.5 -13.5t-15.5 -34.5q0 -24 15.5 -38t54.5 -29zM890 75q78 0 78 56q0 48 -89 82q-66 -31 -66 -82q0 -56 77 -56z" />
    <glyph glyph-name="partialdiff" unicode="&#x2202;" horiz-adv-x="599" 
d="M388 771q91 -76 135 -187.5t44 -241.5q0 -173 -84 -263t-219 -90q-115 0 -180 60.5t-65 159.5q0 70 24 126t62.5 88.5t82 49t87.5 16.5t84 -18.5t64 -51.5q-1 67 -40.5 146t-84.5 121zM270 101q52 0 90.5 44t38.5 127q0 50 -24 79.5t-66 29.5q-52 0 -91 -45t-39 -127
q0 -50 24 -79t67 -29z" />
    <glyph glyph-name="Delta" unicode="&#x2206;" horiz-adv-x="712" 
d="M17 0l263 743h151l264 -743h-678zM208 131h283l-139 404h-2z" />
    <glyph glyph-name="product" unicode="&#x220f;" horiz-adv-x="753" 
d="M77 -200v940h599v-940h-162v804h-275v-804h-162z" />
    <glyph glyph-name="summation" unicode="&#x2211;" horiz-adv-x="613" 
d="M411 290l-191 -359h354v-131h-531v112l200 372l-190 324v132h506v-135h-329z" />
    <glyph glyph-name="minus" unicode="&#x2212;" horiz-adv-x="646" 
d="M579 287h-512v127h512v-127z" />
    <glyph glyph-name="radical" unicode="&#x221a;" horiz-adv-x="617" 
d="M408 -1h-162l-152 426h-79v108h206l112 -355h2l179 562h151z" />
    <glyph glyph-name="infinity" unicode="&#x221e;" horiz-adv-x="798" 
d="M217 160q-93 0 -142.5 51t-49.5 148t49.5 149t142.5 52q106 0 182 -103q76 103 182 103q93 0 142.5 -52t49.5 -149t-49.5 -148t-142.5 -51q-105 0 -182 104q-77 -104 -182 -104zM572 271q40 0 61.5 22.5t21.5 65.5t-21.5 66.5t-61.5 23.5q-37 0 -62 -23t-51 -66
q25 -43 50.5 -66t62.5 -23zM226 271q37 0 62 22.5t52 65.5q-27 44 -52 67t-62 23q-40 0 -61 -23t-21 -67q0 -88 82 -88z" />
    <glyph glyph-name="integral" unicode="&#x222b;" horiz-adv-x="405" 
d="M109 570q0 37 7 65t25.5 54.5t57 40.5t95.5 14q66 0 97 -7v-112q-16 4 -47 4q-36 0 -55.5 -12.5t-19.5 -51.5v-616q0 -32 -6 -55.5t-22.5 -47.5t-53 -36.5t-91.5 -12.5q-66 0 -98 7v109q18 -6 46 -6q33 0 49 17t16 56v590z" />
    <glyph glyph-name="approxequal" unicode="&#x2248;" horiz-adv-x="673" 
d="M469 333q-49 1 -140 40.5t-112 39.5q-37 2 -43 -44l-94 15q10 80 44.5 117t88.5 36q53 -1 142.5 -41t109.5 -40q39 -2 44 46l93 -12q-9 -81 -44 -119.5t-89 -37.5zM458 96q-49 1 -140 40.5t-112 39.5q-37 2 -43 -45l-93 16q9 80 43.5 117t88.5 35q53 -1 142.5 -40.5
t109.5 -39.5q38 -2 44 45l95 -12q-10 -81 -45 -119t-90 -37z" />
    <glyph glyph-name="notequal" unicode="&#x2260;" horiz-adv-x="646" 
d="M133 -2l59 159h-122v114h161l44 114h-205v114h244l68 182h134l-68 -182h127v-114h-166l-44 -114h210v-114h-249l-59 -159h-134z" />
    <glyph glyph-name="lessequal" unicode="&#x2264;" horiz-adv-x="646" 
d="M589 146l-529 180v87l529 187v-131l-340 -100l340 -92v-131zM60 15v117h529v-117h-529z" />
    <glyph glyph-name="greaterequal" unicode="&#x2265;" horiz-adv-x="646" 
d="M62 146v131l340 92l-340 100v131l529 -187v-87zM62 15v117h529v-117h-529z" />
    <glyph glyph-name="lozenge" unicode="&#x25ca;" 
d="M264 740h116l235 -370l-228 -370h-123l-229 370zM325 153l136 217l-136 218l-135 -218z" />
    <glyph glyph-name="uni2713" unicode="&#x2713;" horiz-adv-x="559" 
d="M351 -1h-162l-191 534h166l112 -355h2l179 562h151z" />
    <glyph glyph-name="commaaccent" unicode="&#xf6c3;" horiz-adv-x="282" 
d="M87 -294l38 110h-60v141h151v-121l-62 -130h-67z" />
    <glyph glyph-name="apple" unicode="&#xf8ff;" horiz-adv-x="760" 
d="M439 509v-81h80l-6 75zM247 503l-7 -75h81v81zM439 310v-80l74 6l6 74h-80zM246 237l75 -7v80h-81zM464 0h-168l25 147l-66 -6l2 -27h-117l2 17l-17 -1v117l26 -2l6 65l-147 -25v168l147 -25l-6 67l-26 -2v117l16 -1l-1 15h117l-3 -26l67 -6l-25 148h168l-25 -148l66 6
l-2 26h117l-1 -16l16 2v-117l-27 2l-6 -67l148 25v-168l-148 25l6 -65l27 2v-117l-17 1l2 -17h-117l2 27l-66 6z" />
    <glyph glyph-name="uniFEFF" unicode="&#xfeff;" horiz-adv-x="0" 
 />
    <glyph glyph-name="commaaccent.scrap" horiz-adv-x="282" 
d="M65 585v121l63 130h67l-38 -109h59v-142h-151z" />
    <glyph glyph-name="space.frac" horiz-adv-x="80" 
 />
    <glyph glyph-name="space.tab_em" horiz-adv-x="1300" 
 />
    <glyph glyph-name="space.tab_thin" horiz-adv-x="163" 
 />
    <glyph glyph-name="space.thin_fra" horiz-adv-x="120" 
 />
    <glyph glyph-name="hyphen.uc" horiz-adv-x="357" 
d="M310 330h-263v108h263v-108z" />
    <glyph glyph-name="endash.uc" horiz-adv-x="678" 
d="M623 314h-568v135h568v-135z" />
    <glyph glyph-name="emdash.uc" horiz-adv-x="943" 
d="M888 313h-833v136h833v-136z" />
    <glyph glyph-name="parenleft.uc" horiz-adv-x="404" 
d="M379 -62l-79 -73q-127 107 -191.5 225.5t-64.5 264.5t64.5 264.5t191.5 225.5l74 -78q-162 -180 -162 -412q0 -238 167 -417z" />
    <glyph glyph-name="parenright.uc" horiz-adv-x="404" 
d="M104 -135l-79 73q166 179 166 417q0 233 -162 412l75 78q127 -107 191 -225.5t64 -264.5t-64 -264.5t-191 -225.5z" />
    <glyph glyph-name="bracketleft.uc" horiz-adv-x="444" 
d="M415 -130h-346v940h346v-112h-184v-716h184v-112z" />
    <glyph glyph-name="bracketright.uc" horiz-adv-x="444" 
d="M374 -130h-346v112h184v716h-184v112h346v-940z" />
    <glyph glyph-name="braceleft.uc" horiz-adv-x="441" 
d="M420 -130h-142q-67 0 -104.5 40.5t-37.5 107.5v145q0 70 -25.5 95t-85.5 25v114q60 0 85.5 25t25.5 95v145q0 67 37.5 107.5t104.5 40.5h142v-112h-44q-78 0 -78 -79v-124q0 -70 -21 -105t-64 -49v-2q43 -14 64 -49t21 -105v-124q0 -79 78 -79h44v-112z" />
    <glyph glyph-name="braceright.uc" horiz-adv-x="441" 
d="M178 -130h-157v112h44q78 0 78 79v139q0 68 20 96t65 43v2q-45 15 -65 43t-20 96v139q0 80 -77 80h-44l-1 111h157q67 0 97 -33t30 -100v-160q0 -70 25.5 -95t85.5 -25v-114q-60 0 -85.5 -25t-25.5 -95v-160q0 -67 -30 -100t-97 -33z" />
    <glyph glyph-name="guilsinglleft.uc" horiz-adv-x="373" 
d="M343 70h-153l-166 267l166 266h153l-159 -266z" />
    <glyph glyph-name="guilsinglright.uc" horiz-adv-x="373" 
d="M183 70h-153l159 267l-159 266h153l166 -266z" />
    <glyph glyph-name="guillemotleft.uc" horiz-adv-x="633" 
d="M343 70h-153l-166 267l166 266h153l-159 -266zM604 70h-153l-167 267l167 266h153l-160 -266z" />
    <glyph glyph-name="guillemotright.uc" horiz-adv-x="633" 
d="M183 70h-153l159 267l-159 266h153l166 -266zM443 70h-153l160 267l-160 266h153l167 -266z" />
    <glyph glyph-name="periodcentered.uc" horiz-adv-x="289" 
d="M234 329h-179v155h179v-155z" />
    <glyph glyph-name="endash.salt_en" horiz-adv-x="500" 
d="M0 244v135h500v-135h-500z" />
    <glyph glyph-name="emdash.uc_salt_em" horiz-adv-x="1000" 
d="M0 313v136h1000v-136h-1000z" />
    <glyph glyph-name="endash.uc_salt_en" horiz-adv-x="500" 
d="M0 314v135h500v-135h-500z" />
    <glyph glyph-name="registered.salt_big" horiz-adv-x="867" 
d="M432 -14q-163 0 -272.5 110t-109.5 272q0 163 111 274.5t274 111.5q162 0 272 -110t110 -272q0 -163 -111.5 -274.5t-273.5 -111.5zM435 56q132 0 218.5 89t86.5 223q0 135 -88 225.5t-220 90.5t-218.5 -89t-86.5 -223q0 -135 88 -225.5t220 -90.5zM381 499v-110h57
q70 0 70 56q0 54 -70 54h-57zM381 170h-99v417h162q77 0 119.5 -34t42.5 -102q0 -89 -77 -121l82 -160h-105l-74 147h-51v-147z" />
    <glyph glyph-name="zero.dnom" horiz-adv-x="492" 
d="M246 -7q-101 0 -156 66.5t-55 180.5t55.5 181t155.5 67t155.5 -67t55.5 -181t-55 -180.5t-156 -66.5zM246 93q81 0 81 147q0 145 -81 145q-44 0 -63 -36.5t-19 -108.5q0 -147 82 -147z" />
    <glyph glyph-name="one.dnom" horiz-adv-x="338" 
d="M38 1v101h86v276q-44 -20 -84 -20v91q59 2 87 30h126v-377h75v-101h-290z" />
    <glyph glyph-name="two.dnom" horiz-adv-x="438" 
d="M36 3v26q0 63 27 113.5t113 102.5q69 43 81 56q13 16 13 39q0 42 -47 42q-57 0 -101 -72l-87 63q73 116 191 116q83 0 125 -38.5t42 -107.5q0 -45 -26 -84t-94 -76q-75 -42 -88 -77h211v-103h-360z" />
    <glyph glyph-name="three.dnom" horiz-adv-x="438" 
d="M215 -5q-128 0 -194 98l78 68q45 -62 105 -62q71 0 71 52q0 31 -22 44t-72 13h-38v89h40q83 0 83 47q0 39 -51 39q-59 0 -109 -48l-68 79q78 75 187 75q81 0 124 -34.5t43 -95.5q0 -76 -71 -101q86 -26 86 -110q0 -74 -51.5 -113.5t-140.5 -39.5z" />
    <glyph glyph-name="four.dnom" horiz-adv-x="456" 
d="M240 2v98h-215v81l211 298h131v-280h75v-99h-75v-98h-127zM144 191h103v152z" />
    <glyph glyph-name="five.dnom" horiz-adv-x="429" 
d="M203 -7q-113 0 -185 64l56 83q24 -22 58.5 -36t67.5 -14q80 0 80 75q0 35 -19 53t-53 18q-42 0 -78 -43l-86 27l20 259h307l-7 -98h-205l-7 -88q30 28 94 28q73 0 116 -39.5t43 -118.5q0 -84 -55 -127t-147 -43z" />
    <glyph glyph-name="six.dnom" horiz-adv-x="457" 
d="M242 -7q-102 0 -154.5 60.5t-52.5 179.5q0 135 61 195t161 60q99 0 156 -43l-52 -89q-45 30 -104 30q-49 0 -70.5 -26t-24.5 -90q54 41 120 41q68 0 111 -37.5t43 -114.5t-50.5 -121.5t-143.5 -44.5zM243 87q36 0 54 17.5t18 47.5q0 68 -70 68q-47 0 -83 -33
q6 -100 81 -100z" />
    <glyph glyph-name="seven.dnom" horiz-adv-x="383" 
d="M59 2l174 373h-217v104h352v-95l-176 -382h-133z" />
    <glyph glyph-name="eight.dnom" horiz-adv-x="447" 
d="M223 -7q-97 0 -148.5 35t-51.5 98q0 81 101 125q-41 21 -60.5 47t-19.5 68q0 50 46.5 86t132.5 36q88 0 133.5 -35.5t45.5 -86.5q0 -76 -80 -112q50 -23 75.5 -51.5t25.5 -76.5q0 -63 -51.5 -98t-148.5 -35zM235 287q50 27 50 65q0 20 -15 35t-44 15q-30 0 -45.5 -13.5
t-15.5 -34.5q0 -24 15.5 -38t54.5 -29zM221 75q78 0 78 56q0 48 -89 82q-66 -31 -66 -82q0 -56 77 -56z" />
    <glyph glyph-name="nine.dnom" horiz-adv-x="457" 
d="M212 258q48 0 83 33q-3 47 -24 73.5t-58 26.5q-35 0 -53 -18t-18 -48q0 -67 70 -67zM199 -7q-98 0 -155 43l52 86q43 -30 104 -30q49 0 70.5 26t24.5 90q-54 -41 -121 -41q-68 0 -110.5 39t-42.5 116q0 76 50 121t143 45q102 0 155 -61t53 -179q0 -133 -64.5 -194
t-158.5 -61z" />
    <glyph glyph-name="zero.numr" horiz-adv-x="492" 
d="M246 249q-101 0 -156 66.5t-55 180.5t55.5 181t155.5 67t155.5 -67t55.5 -181t-55 -180.5t-156 -66.5zM246 349q81 0 81 147q0 145 -81 145q-44 0 -63 -36.5t-19 -108.5q0 -147 82 -147z" />
    <glyph glyph-name="one.numr" horiz-adv-x="338" 
d="M38 257v101h86v276q-44 -20 -84 -20v91q59 2 87 30h126v-377h75v-101h-290z" />
    <glyph glyph-name="two.numr" horiz-adv-x="438" 
d="M36 259v26q0 63 27 113.5t113 102.5q69 43 81 56q13 16 13 39q0 42 -47 42q-57 0 -101 -72l-87 63q73 116 191 116q83 0 125 -38.5t42 -107.5q0 -45 -26 -84t-94 -76q-75 -42 -88 -77h211v-103h-360z" />
    <glyph glyph-name="three.numr" horiz-adv-x="438" 
d="M215 251q-128 0 -194 98l78 68q45 -62 105 -62q71 0 71 52q0 31 -22 44t-72 13h-38v89h40q83 0 83 47q0 39 -51 39q-59 0 -109 -48l-68 79q78 75 187 75q81 0 124 -34.5t43 -95.5q0 -76 -71 -101q86 -26 86 -110q0 -74 -51.5 -113.5t-140.5 -39.5z" />
    <glyph glyph-name="four.numr" horiz-adv-x="456" 
d="M240 258v98h-215v81l211 298h131v-280h75v-99h-75v-98h-127zM144 447h103v152z" />
    <glyph glyph-name="five.numr" horiz-adv-x="429" 
d="M203 249q-113 0 -185 64l56 83q24 -22 58.5 -36t67.5 -14q80 0 80 75q0 35 -19 53t-53 18q-42 0 -78 -43l-86 27l20 259h307l-7 -98h-205l-7 -88q30 28 94 28q73 0 116 -39.5t43 -118.5q0 -84 -55 -127t-147 -43z" />
    <glyph glyph-name="six.numr" horiz-adv-x="457" 
d="M242 249q-102 0 -154.5 60.5t-52.5 179.5q0 135 61 195t161 60q99 0 156 -43l-52 -89q-45 30 -104 30q-49 0 -70.5 -26t-24.5 -90q54 41 120 41q68 0 111 -37.5t43 -114.5t-50.5 -121.5t-143.5 -44.5zM243 343q36 0 54 17.5t18 47.5q0 68 -70 68q-47 0 -83 -33
q6 -100 81 -100z" />
    <glyph glyph-name="seven.numr" horiz-adv-x="383" 
d="M59 258l174 373h-217v104h352v-95l-176 -382h-133z" />
    <glyph glyph-name="eight.numr" horiz-adv-x="447" 
d="M223 249q-97 0 -148.5 35t-51.5 98q0 81 101 125q-41 21 -60.5 47t-19.5 68q0 50 46.5 86t132.5 36q88 0 133.5 -35.5t45.5 -86.5q0 -76 -80 -112q50 -23 75.5 -51.5t25.5 -76.5q0 -63 -51.5 -98t-148.5 -35zM235 543q50 27 50 65q0 20 -15 35t-44 15q-30 0 -45.5 -13.5
t-15.5 -34.5q0 -24 15.5 -38t54.5 -29zM221 331q78 0 78 56q0 48 -89 82q-66 -31 -66 -82q0 -56 77 -56z" />
    <glyph glyph-name="nine.numr" horiz-adv-x="457" 
d="M212 514q48 0 83 33q-3 47 -24 73.5t-58 26.5q-35 0 -53 -18t-18 -48q0 -67 70 -67zM199 249q-98 0 -155 43l52 86q43 -30 104 -30q49 0 70.5 26t24.5 90q-54 -41 -121 -41q-68 0 -110.5 39t-42.5 116q0 76 50 121t143 45q102 0 155 -61t53 -179q0 -133 -64.5 -194
t-158.5 -61z" />
    <glyph glyph-name="zero.salt_slash" horiz-adv-x="696" 
d="M348 -14q-144 0 -226 104.5t-82 279.5t82 279.5t226 104.5t225.5 -104t81.5 -280t-81.5 -280t-225.5 -104zM202 370q0 -56 7 -97l244 292q-38 59 -105 59q-146 0 -146 -254zM348 113q146 0 146 257q0 55 -7 94l-244 -291q37 -60 105 -60z" />
    <glyph glyph-name="zero.sc_salt_slash" horiz-adv-x="587" 
d="M294 -12q-123 0 -192.5 83.5t-69.5 224.5q0 140 69.5 223.5t192.5 83.5t192.5 -83.5t69.5 -223.5q0 -141 -69.5 -224.5t-192.5 -83.5zM182 296q0 -44 6 -78l178 239q-27 33 -72 33q-112 0 -112 -194zM294 100q110 0 110 196q0 44 -6 78l-177 -240q28 -34 73 -34z" />
    <glyph glyph-name="zero.tab_salt_slash" 
d="M325 -14q-144 0 -226 104.5t-82 279.5t82 279.5t226 104.5t225.5 -104t81.5 -280t-81.5 -280t-225.5 -104zM179 370q0 -56 7 -97l244 292q-38 59 -105 59q-146 0 -146 -254zM325 113q71 0 108.5 65.5t37.5 191.5q0 55 -7 94l-244 -291q38 -60 105 -60z" />
    <glyph glyph-name="i.trk" horiz-adv-x="294" 
d="M228 606h-162v129h162v-129zM227 0h-160v533h160v-533z" />
    <glyph glyph-name="A.sc" horiz-adv-x="627" 
d="M240 217h135l-32 90l-33 98h-3l-34 -98zM17 0l223 594h147l223 -594h-160l-41 117h-205l-43 -117h-144z" />
    <glyph glyph-name="Agrave.sc" horiz-adv-x="627" 
d="M264 642l-148 173h161l93 -173h-106zM240 217h135l-32 90l-33 98h-3l-34 -98zM17 0l223 594h147l223 -594h-160l-41 117h-205l-43 -117h-144z" />
    <glyph glyph-name="Aacute.sc" horiz-adv-x="627" 
d="M255 642l93 173h162l-149 -173h-106zM240 217h135l-32 90l-33 98h-3l-34 -98zM17 0l223 594h147l223 -594h-160l-41 117h-205l-43 -117h-144z" />
    <glyph glyph-name="Acircumflex.sc" horiz-adv-x="627" 
d="M131 644l129 171h107l129 -171h-91l-93 74l-90 -74h-91zM240 217h135l-32 90l-33 98h-3l-34 -98zM17 0l223 594h147l223 -594h-160l-41 117h-205l-43 -117h-144z" />
    <glyph glyph-name="Atilde.sc" horiz-adv-x="627" 
d="M390 632q-40 0 -83 28t-61 28q-41 0 -41 -54h-87q0 159 119 159q40 0 83 -28t61 -28q41 0 41 54h86q0 -159 -118 -159zM240 217h135l-32 90l-33 98h-3l-34 -98zM17 0l223 594h147l223 -594h-160l-41 117h-205l-43 -117h-144z" />
    <glyph glyph-name="Adieresis.sc" horiz-adv-x="627" 
d="M349 636v148h136v-148h-136zM137 636v148h136v-148h-136zM240 217h135l-32 90l-33 98h-3l-34 -98zM17 0l223 594h147l223 -594h-160l-41 117h-205l-43 -117h-144z" />
    <glyph glyph-name="Aring.sc" horiz-adv-x="627" 
d="M313 595q20 0 33 13.5t13 35.5q0 20 -13 33.5t-33 13.5t-33 -13.5t-13 -33.5q0 -22 13 -35.5t33 -13.5zM240 217h135l-32 90l-33 98h-3l-34 -98zM204 117l-43 -117h-144l214 570q-27 30 -27 74q0 46 31 77t78 31t78.5 -31t31.5 -77q0 -44 -27 -74l214 -570h-160l-41 117
h-205z" />
    <glyph glyph-name="Amacron.sc" horiz-adv-x="627" 
d="M147 636v114h332v-114h-332zM240 217h135l-32 90l-33 98h-3l-34 -98zM17 0l223 594h147l223 -594h-160l-41 117h-205l-43 -117h-144z" />
    <glyph glyph-name="Abreve.sc" horiz-adv-x="627" 
d="M313 631q-81 0 -127 52t-50 133h86q10 -84 91 -84t91 84h86q-4 -82 -49.5 -133.5t-127.5 -51.5zM240 217h135l-32 90l-33 98h-3l-34 -98zM17 0l223 594h147l223 -594h-160l-41 117h-205l-43 -117h-144z" />
    <glyph glyph-name="Aogonek.sc" horiz-adv-x="627" 
d="M240 217h135l-32 90l-33 98h-3l-34 -98zM630 -147q-68 -40 -155 -40q-54 0 -83 20.5t-29 56.5q0 30 23.5 60.5t62.5 52.5l-40 114h-205l-43 -117h-144l223 594h147l223 -594h-81q-59 -41 -59 -84q0 -39 46 -39q35 0 83 25z" />
    <glyph glyph-name="B.sc" horiz-adv-x="614" 
d="M67 0v592h263q45 0 80 -5t70 -19.5t54 -45t19 -76.5q0 -58 -33 -92t-83 -43v-2q62 -11 96.5 -44t34.5 -101q0 -45 -20 -78.5t-54 -51.5t-71.5 -26t-80.5 -8h-275zM217 483v-136h97q89 0 89 69q0 67 -86 67h-100zM217 256v-149h103q48 0 71.5 20t23.5 55q0 74 -98 74h-100
z" />
    <glyph glyph-name="C.sc" horiz-adv-x="630" 
d="M328 -11q-129 0 -210 77t-81 230q0 152 82 229.5t209 77.5q213 0 261 -188l-145 -40q-31 107 -117 107q-65 0 -98.5 -49t-33.5 -136q0 -88 34.5 -139t99.5 -51q50 0 78.5 29.5t43.5 88.5l147 -31q-53 -205 -270 -205z" />
    <glyph glyph-name="Ccedilla.sc" horiz-adv-x="630" 
d="M327 -202q-92 0 -148 37l29 48q45 -30 106 -30q50 0 50 34q0 27 -32 27q-21 0 -43 -17l-40 20l24 76q-107 15 -171.5 91t-64.5 212q0 152 82 229.5t209 77.5q213 0 261 -188l-145 -40q-31 107 -117 107q-65 0 -98.5 -49t-33.5 -136q0 -88 34.5 -139t99.5 -51
q50 0 78.5 29.5t43.5 88.5l147 -31q-52 -200 -260 -205l-8 -35q23 15 64 15q30 0 51.5 -18.5t21.5 -51.5q0 -46 -40 -73.5t-100 -27.5z" />
    <glyph glyph-name="Cacute.sc" horiz-adv-x="630" 
d="M242 642l93 173h162l-149 -173h-106zM328 -11q-129 0 -210 77t-81 230q0 152 82 229.5t209 77.5q213 0 261 -188l-145 -40q-31 107 -117 107q-65 0 -98.5 -49t-33.5 -136q0 -88 34.5 -139t99.5 -51q50 0 78.5 29.5t43.5 88.5l147 -31q-53 -205 -270 -205z" />
    <glyph glyph-name="Ccircumflex.sc" horiz-adv-x="630" 
d="M136 644l129 171h107l129 -171h-91l-93 74l-90 -74h-91zM328 -11q-129 0 -210 77t-81 230q0 152 82 229.5t209 77.5q213 0 261 -188l-145 -40q-31 107 -117 107q-65 0 -98.5 -49t-33.5 -136q0 -88 34.5 -139t99.5 -51q50 0 78.5 29.5t43.5 88.5l147 -31
q-53 -205 -270 -205z" />
    <glyph glyph-name="Cdotaccent.sc" horiz-adv-x="630" 
d="M239 654v131h165v-131h-165zM328 -11q-129 0 -210 77t-81 230q0 152 82 229.5t209 77.5q213 0 261 -188l-145 -40q-31 107 -117 107q-65 0 -98.5 -49t-33.5 -136q0 -88 34.5 -139t99.5 -51q50 0 78.5 29.5t43.5 88.5l147 -31q-53 -205 -270 -205z" />
    <glyph glyph-name="Ccaron.sc" horiz-adv-x="630" 
d="M261 645l-129 171h91l91 -74l92 74h91l-129 -171h-107zM328 -11q-129 0 -210 77t-81 230q0 152 82 229.5t209 77.5q213 0 261 -188l-145 -40q-31 107 -117 107q-65 0 -98.5 -49t-33.5 -136q0 -88 34.5 -139t99.5 -51q50 0 78.5 29.5t43.5 88.5l147 -31
q-53 -205 -270 -205z" />
    <glyph glyph-name="D.sc" horiz-adv-x="646" 
d="M67 0v592h206q336 0 336 -292q0 -83 -26.5 -143.5t-74 -93.5t-105.5 -48t-130 -15h-206zM223 472v-355h58q95 0 133 42t38 139q0 90 -39 132t-133 42h-57z" />
    <glyph glyph-name="Dcaron.sc" horiz-adv-x="646" 
d="M269 645l-129 171h91l91 -74l92 74h91l-129 -171h-107zM67 0v592h206q336 0 336 -292q0 -83 -26.5 -143.5t-74 -93.5t-105.5 -48t-130 -15h-206zM223 472v-355h58q95 0 133 42t38 139q0 90 -39 132t-133 42h-57z" />
    <glyph glyph-name="E.sc" horiz-adv-x="557" 
d="M523 0h-456v592h442v-122h-285v-109h205v-118h-205v-124h299v-119z" />
    <glyph glyph-name="Egrave.sc" horiz-adv-x="557" 
d="M261 642l-148 173h161l93 -173h-106zM523 0h-456v592h442v-122h-285v-109h205v-118h-205v-124h299v-119z" />
    <glyph glyph-name="Eacute.sc" horiz-adv-x="557" 
d="M201 642l93 173h162l-149 -173h-106zM523 0h-456v592h442v-122h-285v-109h205v-118h-205v-124h299v-119z" />
    <glyph glyph-name="Ecircumflex.sc" horiz-adv-x="557" 
d="M105 644l129 171h107l129 -171h-91l-93 74l-90 -74h-91zM523 0h-456v592h442v-122h-285v-109h205v-118h-205v-124h299v-119z" />
    <glyph glyph-name="Edieresis.sc" horiz-adv-x="557" 
d="M324 636v148h136v-148h-136zM112 636v148h136v-148h-136zM523 0h-456v592h442v-122h-285v-109h205v-118h-205v-124h299v-119z" />
    <glyph glyph-name="Emacron.sc" horiz-adv-x="557" 
d="M119 636v114h332v-114h-332zM523 0h-456v592h442v-122h-285v-109h205v-118h-205v-124h299v-119z" />
    <glyph glyph-name="Ebreve.sc" horiz-adv-x="557" 
d="M280 631q-81 0 -127 52t-50 133h86q11 -84 91 -84t91 84h86q-4 -82 -49.5 -133.5t-127.5 -51.5zM523 0h-456v592h442v-122h-285v-109h205v-118h-205v-124h299v-119z" />
    <glyph glyph-name="Edotaccent.sc" horiz-adv-x="557" 
d="M206 654v131h165v-131h-165zM523 0h-456v592h442v-122h-285v-109h205v-118h-205v-124h299v-119z" />
    <glyph glyph-name="Eogonek.sc" horiz-adv-x="557" 
d="M561 -147q-68 -40 -155 -40q-54 0 -83 20.5t-29 56.5q0 59 80 110h-307v592h442v-122h-285v-109h205v-118h-205v-124h299v-119h-63q-59 -41 -59 -84q0 -39 46 -39q35 0 83 25z" />
    <glyph glyph-name="Ecaron.sc" horiz-adv-x="557" 
d="M234 645l-129 171h91l91 -74l92 74h91l-129 -171h-107zM523 0h-456v592h442v-122h-285v-109h205v-118h-205v-124h299v-119z" />
    <glyph glyph-name="F.sc" horiz-adv-x="516" 
d="M224 0h-157v592h428v-121h-271v-130h193v-117h-193v-224z" />
    <glyph glyph-name="G.sc" horiz-adv-x="666" 
d="M307 -10q-134 0 -202 84.5t-68 223.5q0 140 78.5 222.5t213.5 82.5q98 0 164.5 -42.5t95.5 -149.5l-140 -36q-33 107 -118 107q-136 0 -136 -181q0 -101 37 -149.5t102 -48.5q51 0 84.5 27t43.5 69h-105v104h245v-303h-120v79h-1q-20 -38 -64.5 -63.5t-109.5 -25.5z" />
    <glyph glyph-name="Gcircumflex.sc" horiz-adv-x="666" 
d="M145 644l129 171h107l129 -171h-91l-93 74l-90 -74h-91zM307 -10q-134 0 -202 84.5t-68 223.5q0 140 78.5 222.5t213.5 82.5q98 0 164.5 -42.5t95.5 -149.5l-140 -36q-33 107 -118 107q-136 0 -136 -181q0 -101 37 -149.5t102 -48.5q51 0 84.5 27t43.5 69h-105v104h245
v-303h-120v79h-1q-20 -38 -64.5 -63.5t-109.5 -25.5z" />
    <glyph glyph-name="Gbreve.sc" horiz-adv-x="666" 
d="M332 631q-81 0 -127 52t-50 133h86q11 -84 91 -84t91 84h86q-4 -82 -49.5 -133.5t-127.5 -51.5zM307 -10q-134 0 -202 84.5t-68 223.5q0 140 78.5 222.5t213.5 82.5q98 0 164.5 -42.5t95.5 -149.5l-140 -36q-33 107 -118 107q-136 0 -136 -181q0 -101 37 -149.5
t102 -48.5q51 0 84.5 27t43.5 69h-105v104h245v-303h-120v79h-1q-20 -38 -64.5 -63.5t-109.5 -25.5z" />
    <glyph glyph-name="Gdotaccent.sc" horiz-adv-x="666" 
d="M250 654v131h165v-131h-165zM307 -10q-134 0 -202 84.5t-68 223.5q0 140 78.5 222.5t213.5 82.5q98 0 164.5 -42.5t95.5 -149.5l-140 -36q-33 107 -118 107q-136 0 -136 -181q0 -101 37 -149.5t102 -48.5q51 0 84.5 27t43.5 69h-105v104h245v-303h-120v79h-1
q-20 -38 -64.5 -63.5t-109.5 -25.5z" />
    <glyph glyph-name="Gcommaaccent.sc" horiz-adv-x="666" 
d="M307 -10q-134 0 -202 84.5t-68 223.5q0 140 78.5 222.5t213.5 82.5q98 0 164.5 -42.5t95.5 -149.5l-140 -36q-33 107 -118 107q-136 0 -136 -181q0 -101 37 -149.5t102 -48.5q51 0 84.5 27t43.5 69h-105v104h245v-303h-120v79h-1q-20 -38 -64.5 -63.5t-109.5 -25.5z
M281 -294l38 110h-60v141h151v-121l-62 -130h-67z" />
    <glyph glyph-name="H.sc" horiz-adv-x="672" 
d="M223 0h-156v592h156v-223h225v223h157v-592h-157v244h-225v-244z" />
    <glyph glyph-name="Hcircumflex.sc" horiz-adv-x="672" 
d="M153 644l129 171h107l129 -171h-91l-93 74l-90 -74h-91zM223 0h-156v592h156v-223h225v223h157v-592h-157v244h-225v-244z" />
    <glyph glyph-name="I.sc" horiz-adv-x="301" 
d="M230 0h-158v592h158v-592z" />
    <glyph glyph-name="Igrave.sc" horiz-adv-x="301" 
d="M110 642l-148 173h161l93 -173h-106zM230 0h-158v592h158v-592z" />
    <glyph glyph-name="Iacute.sc" horiz-adv-x="301" 
d="M85 642l93 173h162l-149 -173h-106zM230 0h-158v592h158v-592z" />
    <glyph glyph-name="Icircumflex.sc" horiz-adv-x="301" 
d="M-31 644l129 171h107l129 -171h-91l-93 74l-90 -74h-91zM230 0h-158v592h158v-592z" />
    <glyph glyph-name="Idieresis.sc" horiz-adv-x="301" 
d="M187 636v148h136v-148h-136zM-25 636v148h136v-148h-136zM230 0h-158v592h158v-592z" />
    <glyph glyph-name="Itilde.sc" horiz-adv-x="301" 
d="M228 635q-40 0 -83 28t-61 28q-41 0 -41 -54h-87q0 159 119 159q40 0 83 -28t61 -28q41 0 41 54h86q0 -159 -118 -159zM230 0h-158v592h158v-592z" />
    <glyph glyph-name="Imacron.sc" horiz-adv-x="301" 
d="M-15 636v114h332v-114h-332zM230 0h-158v592h158v-592z" />
    <glyph glyph-name="Ibreve.sc" horiz-adv-x="301" 
d="M151 631q-81 0 -127 52t-50 133h86q10 -84 91 -84t91 84h86q-4 -82 -49.5 -133.5t-127.5 -51.5zM230 0h-158v592h158v-592z" />
    <glyph glyph-name="Iogonek.sc" horiz-adv-x="301" 
d="M268 -147q-68 -40 -156 -40q-54 0 -82.5 20.5t-28.5 56.5q0 61 71 113v589h158v-592h-76q-46 -42 -46 -84q0 -39 45 -39q38 0 83 25z" />
    <glyph glyph-name="Idotaccent.sc" horiz-adv-x="301" 
d="M69 654v131h165v-131h-165zM230 0h-158v592h158v-592z" />
    <glyph glyph-name="J.sc" horiz-adv-x="470" 
d="M13 47l65 101q57 -41 109 -41q36 0 54 17.5t18 60.5v407h157v-414q0 -189 -216 -189q-109 0 -187 58z" />
    <glyph glyph-name="Jcircumflex.sc" horiz-adv-x="470" 
d="M154 644l129 171h107l129 -171h-91l-93 74l-90 -74h-91zM13 47l65 101q57 -41 109 -41q36 0 54 17.5t18 60.5v407h157v-414q0 -189 -216 -189q-109 0 -187 58z" />
    <glyph glyph-name="K.sc" horiz-adv-x="632" 
d="M222 0h-155v592h155v-235l99 116l102 119h165l-209 -233l228 -359h-172l-155 246l-58 -61v-185z" />
    <glyph glyph-name="Kcommaaccent.sc" horiz-adv-x="632" 
d="M222 0h-155v592h155v-235l99 116l102 119h165l-209 -233l228 -359h-172l-155 246l-58 -61v-185zM262 -294l38 110h-60v141h151v-121l-62 -130h-67z" />
    <glyph glyph-name="L.sc" horiz-adv-x="516" 
d="M495 0h-428v592h157v-473h271v-119z" />
    <glyph glyph-name="Lacute.sc" horiz-adv-x="516" 
d="M91 642l93 173h162l-149 -173h-106zM495 0h-428v592h157v-473h271v-119z" />
    <glyph glyph-name="Lcommaaccent.sc" horiz-adv-x="516" 
d="M495 0h-428v592h157v-473h271v-119zM204 -294l38 110h-60v141h151v-121l-62 -130h-67z" />
    <glyph glyph-name="Lcaron.sc" horiz-adv-x="516" 
d="M495 0h-428v592h157v-473h271v-119zM304 351l37 106h-58v135h145v-116l-60 -125h-64z" />
    <glyph glyph-name="M.sc" horiz-adv-x="784" 
d="M201 0h-134v592h206l120 -417h2l110 417h212v-592h-146v422h-1q-10 -54 -28 -123q-4 -23 -40.5 -135.5t-47.5 -163.5h-137q-11 54 -46.5 170.5t-38.5 130.5q-5 21 -12 48t-11 44t-7 32h-1v-425z" />
    <glyph glyph-name="N.sc" horiz-adv-x="669" 
d="M209 0h-142v592h156l134 -194l112 -160h1v354h142v-592h-146l-132 186l-124 170h-1v-356z" />
    <glyph glyph-name="Ntilde.sc" horiz-adv-x="669" 
d="M410 632q-40 0 -83 28t-61 28q-41 0 -41 -54h-87q0 159 119 159q40 0 83 -28t61 -28q41 0 41 54h86q0 -159 -118 -159zM209 0h-142v592h156l134 -194l112 -160h1v354h142v-592h-146l-132 186l-124 170h-1v-356z" />
    <glyph glyph-name="Nacute.sc" horiz-adv-x="669" 
d="M254 642l93 173h162l-149 -173h-106zM209 0h-142v592h156l134 -194l112 -160h1v354h142v-592h-146l-132 186l-124 170h-1v-356z" />
    <glyph glyph-name="Ncommaaccent.sc" horiz-adv-x="669" 
d="M209 0h-142v592h156l134 -194l112 -160h1v354h142v-592h-146l-132 186l-124 170h-1v-356zM280 -294l38 110h-60v141h151v-121l-62 -130h-67z" />
    <glyph glyph-name="Ncaron.sc" horiz-adv-x="669" 
d="M280 645l-129 171h91l91 -74l92 74h91l-129 -171h-107zM209 0h-142v592h156l134 -194l112 -160h1v354h142v-592h-146l-132 186l-124 170h-1v-356z" />
    <glyph glyph-name="O.sc" horiz-adv-x="682" 
d="M342 -11q-58 0 -111 18.5t-97 54.5t-70 96.5t-26 137.5t26 137.5t70 96.5t97 54.5t111 18.5q78 0 144.5 -31t112 -102.5t45.5 -173.5t-45.5 -173.5t-112 -102.5t-144.5 -31zM342 110q67 0 106 50.5t39 135.5t-39 134t-106 49q-68 0 -107.5 -49t-39.5 -134t39.5 -135.5
t107.5 -50.5z" />
    <glyph glyph-name="Ograve.sc" horiz-adv-x="682" 
d="M314 642l-148 173h161l93 -173h-106zM342 -11q-58 0 -111 18.5t-97 54.5t-70 96.5t-26 137.5t26 137.5t70 96.5t97 54.5t111 18.5q78 0 144.5 -31t112 -102.5t45.5 -173.5t-45.5 -173.5t-112 -102.5t-144.5 -31zM342 110q67 0 106 50.5t39 135.5t-39 134t-106 49
q-68 0 -107.5 -49t-39.5 -134t39.5 -135.5t107.5 -50.5z" />
    <glyph glyph-name="Oacute.sc" horiz-adv-x="682" 
d="M261 642l93 173h162l-149 -173h-106zM342 -11q-58 0 -111 18.5t-97 54.5t-70 96.5t-26 137.5t26 137.5t70 96.5t97 54.5t111 18.5q78 0 144.5 -31t112 -102.5t45.5 -173.5t-45.5 -173.5t-112 -102.5t-144.5 -31zM342 110q67 0 106 50.5t39 135.5t-39 134t-106 49
q-68 0 -107.5 -49t-39.5 -134t39.5 -135.5t107.5 -50.5z" />
    <glyph glyph-name="Ocircumflex.sc" horiz-adv-x="682" 
d="M158 644l129 171h107l129 -171h-91l-93 74l-90 -74h-91zM342 -11q-58 0 -111 18.5t-97 54.5t-70 96.5t-26 137.5t26 137.5t70 96.5t97 54.5t111 18.5q78 0 144.5 -31t112 -102.5t45.5 -173.5t-45.5 -173.5t-112 -102.5t-144.5 -31zM342 110q67 0 106 50.5t39 135.5
t-39 134t-106 49q-68 0 -107.5 -49t-39.5 -134t39.5 -135.5t107.5 -50.5z" />
    <glyph glyph-name="Otilde.sc" horiz-adv-x="682" 
d="M417 632q-40 0 -83 28t-61 28q-41 0 -41 -54h-87q0 159 119 159q40 0 83 -28t61 -28q41 0 41 54h86q0 -159 -118 -159zM342 -11q-58 0 -111 18.5t-97 54.5t-70 96.5t-26 137.5t26 137.5t70 96.5t97 54.5t111 18.5q78 0 144.5 -31t112 -102.5t45.5 -173.5t-45.5 -173.5
t-112 -102.5t-144.5 -31zM342 110q67 0 106 50.5t39 135.5t-39 134t-106 49q-68 0 -107.5 -49t-39.5 -134t39.5 -135.5t107.5 -50.5z" />
    <glyph glyph-name="Odieresis.sc" horiz-adv-x="682" 
d="M376 636v148h136v-148h-136zM164 636v148h136v-148h-136zM342 -11q-58 0 -111 18.5t-97 54.5t-70 96.5t-26 137.5t26 137.5t70 96.5t97 54.5t111 18.5q78 0 144.5 -31t112 -102.5t45.5 -173.5t-45.5 -173.5t-112 -102.5t-144.5 -31zM342 110q67 0 106 50.5t39 135.5
t-39 134t-106 49q-68 0 -107.5 -49t-39.5 -134t39.5 -135.5t107.5 -50.5z" />
    <glyph glyph-name="Omacron.sc" horiz-adv-x="682" 
d="M174 636v114h332v-114h-332zM342 -11q-58 0 -111 18.5t-97 54.5t-70 96.5t-26 137.5t26 137.5t70 96.5t97 54.5t111 18.5q78 0 144.5 -31t112 -102.5t45.5 -173.5t-45.5 -173.5t-112 -102.5t-144.5 -31zM342 110q67 0 106 50.5t39 135.5t-39 134t-106 49
q-68 0 -107.5 -49t-39.5 -134t39.5 -135.5t107.5 -50.5z" />
    <glyph glyph-name="Obreve.sc" horiz-adv-x="682" 
d="M340 634q-81 0 -127 52t-50 133h86q11 -84 91 -84t91 84h86q-4 -82 -49.5 -133.5t-127.5 -51.5zM342 -11q-58 0 -111 18.5t-97 54.5t-70 96.5t-26 137.5t26 137.5t70 96.5t97 54.5t111 18.5q78 0 144.5 -31t112 -102.5t45.5 -173.5t-45.5 -173.5t-112 -102.5t-144.5 -31z
M342 110q67 0 106 50.5t39 135.5t-39 134t-106 49q-68 0 -107.5 -49t-39.5 -134t39.5 -135.5t107.5 -50.5z" />
    <glyph glyph-name="Ohungarumlaut.sc" horiz-adv-x="682" 
d="M357 642l112 173h162l-167 -173h-107zM166 642l104 173h162l-160 -173h-106zM342 -11q-58 0 -111 18.5t-97 54.5t-70 96.5t-26 137.5t26 137.5t70 96.5t97 54.5t111 18.5q78 0 144.5 -31t112 -102.5t45.5 -173.5t-45.5 -173.5t-112 -102.5t-144.5 -31zM342 110
q67 0 106 50.5t39 135.5t-39 134t-106 49q-68 0 -107.5 -49t-39.5 -134t39.5 -135.5t107.5 -50.5z" />
    <glyph glyph-name="P.sc" horiz-adv-x="594" 
d="M221 0h-154v592h236q56 0 98 -7.5t81.5 -27.5t61 -61t21.5 -102q0 -198 -262 -198h-82v-196zM221 476v-174h87q107 0 107 87q0 43 -24.5 65t-82.5 22h-87z" />
    <glyph glyph-name="Q.sc" horiz-adv-x="682" 
d="M584 -55v-113h-103q-115 0 -169.5 47.5t-57.5 124.5q-94 24 -155 98t-61 194q0 77 26 137.5t70 96.5t97 54.5t111 18.5q57 0 109.5 -18.5t96.5 -54.5t70 -96.5t26 -137.5q0 -126 -67.5 -201t-168.5 -95q4 -34 29.5 -44.5t99.5 -10.5h47zM342 106q66 0 105.5 51.5
t39.5 138.5t-39 136.5t-106 49.5q-69 0 -108 -49.5t-39 -136.5q0 -88 39.5 -139t107.5 -51z" />
    <glyph glyph-name="R.sc" horiz-adv-x="618" 
d="M220 476v-161h86q54 0 79 19.5t25 61.5t-25 61t-78 19h-87zM220 0h-153v592h245q123 0 187.5 -44.5t64.5 -145.5q0 -133 -124 -172l133 -230h-164l-122 212h-67v-212z" />
    <glyph glyph-name="Racute.sc" horiz-adv-x="618" 
d="M229 642l93 173h162l-149 -173h-106zM220 476v-161h86q54 0 79 19.5t25 61.5t-25 61t-78 19h-87zM220 0h-153v592h245q123 0 187.5 -44.5t64.5 -145.5q0 -133 -124 -172l133 -230h-164l-122 212h-67v-212z" />
    <glyph glyph-name="Rcommaaccent.sc" horiz-adv-x="618" 
d="M220 476v-161h86q54 0 79 19.5t25 61.5t-25 61t-78 19h-87zM220 0h-153v592h245q123 0 187.5 -44.5t64.5 -145.5q0 -133 -124 -172l133 -230h-164l-122 212h-67v-212zM255 -294l38 110h-60v141h151v-121l-62 -130h-67z" />
    <glyph glyph-name="Rcaron.sc" horiz-adv-x="618" 
d="M255 645l-129 171h91l91 -74l92 74h91l-129 -171h-107zM220 476v-161h86q54 0 79 19.5t25 61.5t-25 61t-78 19h-87zM220 0h-153v592h245q123 0 187.5 -44.5t64.5 -145.5q0 -133 -124 -172l133 -230h-164l-122 212h-67v-212z" />
    <glyph glyph-name="S.sc" horiz-adv-x="609" 
d="M316 -13q-88 0 -163 33t-118 101l117 79q22 -45 68.5 -70.5t94.5 -25.5q99 0 99 59q0 32 -24.5 45t-92.5 27q-58 12 -94.5 23.5t-72.5 33t-53 56t-17 82.5q0 78 63 125.5t165 47.5q182 0 264 -113l-103 -83q-23 34 -67.5 56.5t-88.5 22.5q-82 0 -82 -53q0 -34 26.5 -47
t104.5 -29q11 -3 17 -4q45 -10 75.5 -20t64.5 -30t51.5 -53t17.5 -79q0 -87 -70.5 -135.5t-181.5 -48.5z" />
    <glyph glyph-name="Sacute.sc" horiz-adv-x="609" 
d="M224 642l93 173h162l-149 -173h-106zM316 -13q-88 0 -163 33t-118 101l117 79q22 -45 68.5 -70.5t94.5 -25.5q99 0 99 59q0 32 -24.5 45t-92.5 27q-58 12 -94.5 23.5t-72.5 33t-53 56t-17 82.5q0 78 63 125.5t165 47.5q182 0 264 -113l-103 -83q-23 34 -67.5 56.5
t-88.5 22.5q-82 0 -82 -53q0 -34 26.5 -47t104.5 -29q11 -3 17 -4q45 -10 75.5 -20t64.5 -30t51.5 -53t17.5 -79q0 -87 -70.5 -135.5t-181.5 -48.5z" />
    <glyph glyph-name="Scircumflex.sc" horiz-adv-x="609" 
d="M118 644l129 171h107l129 -171h-91l-93 74l-90 -74h-91zM316 -13q-88 0 -163 33t-118 101l117 79q22 -45 68.5 -70.5t94.5 -25.5q99 0 99 59q0 32 -24.5 45t-92.5 27q-58 12 -94.5 23.5t-72.5 33t-53 56t-17 82.5q0 78 63 125.5t165 47.5q182 0 264 -113l-103 -83
q-23 34 -67.5 56.5t-88.5 22.5q-82 0 -82 -53q0 -34 26.5 -47t104.5 -29q11 -3 17 -4q45 -10 75.5 -20t64.5 -30t51.5 -53t17.5 -79q0 -87 -70.5 -135.5t-181.5 -48.5z" />
    <glyph glyph-name="Scedilla.sc" horiz-adv-x="609" 
d="M317 -202q-92 0 -148 37l29 48q45 -30 106 -30q50 0 50 34q0 27 -32 27q-21 0 -43 -17l-40 20l23 73q-157 19 -227 131l117 79q22 -45 68.5 -70.5t94.5 -25.5q99 0 99 59q0 32 -24.5 45t-92.5 27q-58 12 -94.5 23.5t-72.5 33t-53 56t-17 82.5q0 78 63 125.5t165 47.5
q182 0 264 -113l-103 -83q-23 34 -67.5 56.5t-88.5 22.5q-82 0 -82 -53q0 -34 26.5 -47t104.5 -29q11 -3 17 -4q45 -10 75.5 -20t64.5 -30t51.5 -53t17.5 -79q0 -85 -66.5 -133t-173.5 -51l-8 -33q23 15 64 15q30 0 51.5 -18.5t21.5 -51.5q0 -46 -40 -73.5t-100 -27.5z" />
    <glyph glyph-name="Scaron.sc" horiz-adv-x="609" 
d="M251 645l-129 171h91l91 -74l92 74h91l-129 -171h-107zM316 -13q-88 0 -163 33t-118 101l117 79q22 -45 68.5 -70.5t94.5 -25.5q99 0 99 59q0 32 -24.5 45t-92.5 27q-58 12 -94.5 23.5t-72.5 33t-53 56t-17 82.5q0 78 63 125.5t165 47.5q182 0 264 -113l-103 -83
q-23 34 -67.5 56.5t-88.5 22.5q-82 0 -82 -53q0 -34 26.5 -47t104.5 -29q11 -3 17 -4q45 -10 75.5 -20t64.5 -30t51.5 -53t17.5 -79q0 -87 -70.5 -135.5t-181.5 -48.5z" />
    <glyph glyph-name="Scommaaccent.sc" horiz-adv-x="609" 
d="M316 -13q-88 0 -163 33t-118 101l117 79q22 -45 68.5 -70.5t94.5 -25.5q99 0 99 59q0 32 -24.5 45t-92.5 27q-58 12 -94.5 23.5t-72.5 33t-53 56t-17 82.5q0 78 63 125.5t165 47.5q182 0 264 -113l-103 -83q-23 34 -67.5 56.5t-88.5 22.5q-82 0 -82 -53q0 -34 26.5 -47
t104.5 -29q11 -3 17 -4q45 -10 75.5 -20t64.5 -30t51.5 -53t17.5 -79q0 -87 -70.5 -135.5t-181.5 -48.5zM251 -294l38 110h-60v141h151v-121l-62 -130h-67z" />
    <glyph glyph-name="T.sc" horiz-adv-x="569" 
d="M364 0h-158v470h-182v122h523v-122h-183v-470z" />
    <glyph glyph-name="Tcaron.sc" horiz-adv-x="569" 
d="M231 645l-129 171h91l91 -74l92 74h91l-129 -171h-107zM364 0h-158v470h-182v122h523v-122h-183v-470z" />
    <glyph glyph-name="Tcommaaccent.sc" horiz-adv-x="569" 
d="M364 0h-158v470h-182v122h523v-122h-183v-470zM231 -294l38 110h-60v141h151v-121l-62 -130h-67z" />
    <glyph glyph-name="U.sc" horiz-adv-x="629" 
d="M315 -10q-130 0 -195 64t-65 181v357h157v-357q0 -64 24 -94.5t81 -30.5q56 0 79.5 30.5t23.5 94.5v357h154v-357q0 -118 -64 -181.5t-195 -63.5z" />
    <glyph glyph-name="Ugrave.sc" horiz-adv-x="629" 
d="M287 642l-148 173h161l93 -173h-106zM315 -10q-130 0 -195 64t-65 181v357h157v-357q0 -64 24 -94.5t81 -30.5q56 0 79.5 30.5t23.5 94.5v357h154v-357q0 -118 -64 -181.5t-195 -63.5z" />
    <glyph glyph-name="Uacute.sc" horiz-adv-x="629" 
d="M227 642l93 173h162l-149 -173h-106zM315 -10q-130 0 -195 64t-65 181v357h157v-357q0 -64 24 -94.5t81 -30.5q56 0 79.5 30.5t23.5 94.5v357h154v-357q0 -118 -64 -181.5t-195 -63.5z" />
    <glyph glyph-name="Ucircumflex.sc" horiz-adv-x="629" 
d="M131 644l129 171h107l129 -171h-91l-93 74l-90 -74h-91zM315 -10q-130 0 -195 64t-65 181v357h157v-357q0 -64 24 -94.5t81 -30.5q56 0 79.5 30.5t23.5 94.5v357h154v-357q0 -118 -64 -181.5t-195 -63.5z" />
    <glyph glyph-name="Udieresis.sc" horiz-adv-x="629" 
d="M350 636v148h136v-148h-136zM138 636v148h136v-148h-136zM315 -10q-130 0 -195 64t-65 181v357h157v-357q0 -64 24 -94.5t81 -30.5q56 0 79.5 30.5t23.5 94.5v357h154v-357q0 -118 -64 -181.5t-195 -63.5z" />
    <glyph glyph-name="Utilde.sc" horiz-adv-x="629" 
d="M392 632q-40 0 -83 28t-61 28q-41 0 -41 -54h-87q0 159 119 159q40 0 83 -28t61 -28q41 0 41 54h86q0 -159 -118 -159zM315 -10q-130 0 -195 64t-65 181v357h157v-357q0 -64 24 -94.5t81 -30.5q56 0 79.5 30.5t23.5 94.5v357h154v-357q0 -118 -64 -181.5t-195 -63.5z" />
    <glyph glyph-name="Umacron.sc" horiz-adv-x="629" 
d="M148 636v114h332v-114h-332zM315 -10q-130 0 -195 64t-65 181v357h157v-357q0 -64 24 -94.5t81 -30.5q56 0 79.5 30.5t23.5 94.5v357h154v-357q0 -118 -64 -181.5t-195 -63.5z" />
    <glyph glyph-name="Ubreve.sc" horiz-adv-x="629" 
d="M314 631q-81 0 -127 52t-50 133h86q11 -84 91 -84t91 84h86q-4 -82 -49.5 -133.5t-127.5 -51.5zM315 -10q-130 0 -195 64t-65 181v357h157v-357q0 -64 24 -94.5t81 -30.5q56 0 79.5 30.5t23.5 94.5v357h154v-357q0 -118 -64 -181.5t-195 -63.5z" />
    <glyph glyph-name="Uring.sc" horiz-adv-x="629" 
d="M314 633q-47 0 -78 31.5t-31 78.5q0 46 31 77t78 31t78.5 -31t31.5 -77q0 -47 -31.5 -78.5t-78.5 -31.5zM314 694q20 0 33 13.5t13 35.5q0 20 -13 33.5t-33 13.5t-33 -13.5t-13 -33.5q0 -22 13 -35.5t33 -13.5zM315 -10q-130 0 -195 64t-65 181v357h157v-357
q0 -64 24 -94.5t81 -30.5q56 0 79.5 30.5t23.5 94.5v357h154v-357q0 -118 -64 -181.5t-195 -63.5z" />
    <glyph glyph-name="Uhungarumlaut.sc" horiz-adv-x="629" 
d="M331 642l112 173h162l-167 -173h-107zM140 642l104 173h162l-160 -173h-106zM315 -10q-130 0 -195 64t-65 181v357h157v-357q0 -64 24 -94.5t81 -30.5q56 0 79.5 30.5t23.5 94.5v357h154v-357q0 -118 -64 -181.5t-195 -63.5z" />
    <glyph glyph-name="Uogonek.sc" horiz-adv-x="629" 
d="M321 -187q-54 0 -83 20.5t-29 56.5q0 53 68 102q-111 9 -166.5 71.5t-55.5 171.5v357h157v-357q0 -64 24 -94.5t81 -30.5q56 0 79.5 30.5t23.5 94.5v357h154v-357q0 -220 -209 -242q-49 -38 -49 -77t46 -39q35 0 83 25l31 -49q-68 -40 -155 -40z" />
    <glyph glyph-name="V.sc" horiz-adv-x="613" 
d="M381 -2h-150l-214 594h161l93 -282l38 -119h2l39 119l99 282h147z" />
    <glyph glyph-name="W.sc" horiz-adv-x="827" 
d="M323 0h-133l-170 592h159l60 -245q10 -39 28 -124h2q9 51 26 123l54 246h143l59 -246q19 -81 27 -123h2q9 54 25 121l57 248h144l-165 -592h-131l-88 383h-2z" />
    <glyph glyph-name="Wcircumflex.sc" horiz-adv-x="827" 
d="M231 644l129 171h107l129 -171h-91l-93 74l-90 -74h-91zM323 0h-133l-170 592h159l60 -245q10 -39 28 -124h2q9 51 26 123l54 246h143l59 -246q19 -81 27 -123h2q9 54 25 121l57 248h144l-165 -592h-131l-88 383h-2z" />
    <glyph glyph-name="Wgrave.sc" horiz-adv-x="827" 
d="M364 642l-148 173h161l93 -173h-106zM323 0h-133l-170 592h159l60 -245q10 -39 28 -124h2q9 51 26 123l54 246h143l59 -246q19 -81 27 -123h2q9 54 25 121l57 248h144l-165 -592h-131l-88 383h-2z" />
    <glyph glyph-name="Wacute.sc" horiz-adv-x="827" 
d="M369 642l93 173h162l-149 -173h-106zM323 0h-133l-170 592h159l60 -245q10 -39 28 -124h2q9 51 26 123l54 246h143l59 -246q19 -81 27 -123h2q9 54 25 121l57 248h144l-165 -592h-131l-88 383h-2z" />
    <glyph glyph-name="Wdieresis.sc" horiz-adv-x="827" 
d="M449 636v148h136v-148h-136zM237 636v148h136v-148h-136zM323 0h-133l-170 592h159l60 -245q10 -39 28 -124h2q9 51 26 123l54 246h143l59 -246q19 -81 27 -123h2q9 54 25 121l57 248h144l-165 -592h-131l-88 383h-2z" />
    <glyph glyph-name="X.sc" horiz-adv-x="613" 
d="M182 0h-163l198 312l-183 280h175l106 -171l99 171h158l-176 -282l198 -310h-172l-121 196z" />
    <glyph glyph-name="Y.sc" horiz-adv-x="616" 
d="M228 0v249l-217 343h166l137 -222l135 222h156l-219 -343v-249h-158z" />
    <glyph glyph-name="Yacute.sc" horiz-adv-x="616" 
d="M228 642l93 173h162l-149 -173h-106zM228 0v249l-217 343h166l137 -222l135 222h156l-219 -343v-249h-158z" />
    <glyph glyph-name="Ycircumflex.sc" horiz-adv-x="616" 
d="M125 644l129 171h107l129 -171h-91l-93 74l-90 -74h-91zM228 0v249l-217 343h166l137 -222l135 222h156l-219 -343v-249h-158z" />
    <glyph glyph-name="Ydieresis.sc" horiz-adv-x="616" 
d="M344 636v148h136v-148h-136zM132 636v148h136v-148h-136zM228 0v249l-217 343h166l137 -222l135 222h156l-219 -343v-249h-158z" />
    <glyph glyph-name="Ygrave.sc" horiz-adv-x="616" 
d="M277 642l-148 173h161l93 -173h-106zM228 0v249l-217 343h166l137 -222l135 222h156l-219 -343v-249h-158z" />
    <glyph glyph-name="Z.sc" horiz-adv-x="582" 
d="M545 0h-515v100l315 370h-295v122h495v-104l-309 -370h309v-118z" />
    <glyph glyph-name="Zacute.sc" horiz-adv-x="582" 
d="M211 642l93 173h162l-149 -173h-106zM545 0h-515v100l315 370h-295v122h495v-104l-309 -370h309v-118z" />
    <glyph glyph-name="Zdotaccent.sc" horiz-adv-x="582" 
d="M208 654v131h165v-131h-165zM545 0h-515v100l315 370h-295v122h495v-104l-309 -370h309v-118z" />
    <glyph glyph-name="Zcaron.sc" horiz-adv-x="582" 
d="M237 645l-129 171h91l91 -74l92 74h91l-129 -171h-107zM545 0h-515v100l315 370h-295v122h495v-104l-309 -370h309v-118z" />
    <glyph glyph-name="AE.sc" horiz-adv-x="943" 
d="M456 482l-127 -217h128v217h-1zM266 158l-93 -158h-159l355 592h526v-122h-285v-109h206v-118h-206v-124h299v-119h-452v158h-191z" />
    <glyph glyph-name="Eth.sc" horiz-adv-x="646" 
d="M67 0v253h-57v92h57v247h206q336 0 336 -292q0 -83 -26.5 -143.5t-74 -93.5t-105.5 -48t-130 -15h-206zM223 251v-134h58q95 0 133 42t38 139q0 90 -39 132t-133 42h-57v-127h97v-94h-97z" />
    <glyph glyph-name="Oslash.sc" horiz-adv-x="682" 
d="M212 187l204 277q-34 21 -74 21q-71 0 -112 -50.5t-41 -138.5q0 -65 23 -109zM342 104q69 0 110.5 52t41.5 140q0 64 -25 111l-206 -281q35 -22 79 -22zM138 -48l-68 52l51 69q-83 83 -83 223q0 77 26 137.5t70 96.5t97 54.5t111 18.5q79 0 147 -35l53 71l68 -51l-51 -68
q85 -82 85 -224q0 -102 -45.5 -173.5t-112 -102.5t-144.5 -31q-81 0 -151 35z" />
    <glyph glyph-name="Thorn.sc" horiz-adv-x="598" 
d="M220 0h-153v592h154v-87h84q55 0 97.5 -8t82 -28t61 -61t21.5 -101q0 -197 -263 -197h-84v-110zM220 390v-175h89q56 0 82 24.5t26 62.5q0 88 -108 88h-89z" />
    <glyph glyph-name="Dcroat.sc" horiz-adv-x="646" 
d="M67 0v253h-57v92h57v247h206q336 0 336 -292q0 -83 -26.5 -143.5t-74 -93.5t-105.5 -48t-130 -15h-206zM223 251v-134h58q95 0 133 42t38 139q0 90 -39 132t-133 42h-57v-127h97v-94h-97z" />
    <glyph glyph-name="Hbar.sc" horiz-adv-x="672" 
d="M223 346h225v67h-225v-67zM223 222v-222h-156v413h-57v102h57v77h156v-77h225v77h157v-77h57v-102h-57v-413h-157v222h-225z" />
    <glyph glyph-name="IJ.sc" horiz-adv-x="741" 
d="M230 0h-158v592h158v-592zM284 51l65 101q57 -41 109 -41q36 0 54 17.5t18 60.5v407h157v-414q0 -189 -216 -189q-109 0 -187 58z" />
    <glyph glyph-name="Ldot.sc" horiz-adv-x="551" 
d="M495 0h-428v592h157v-473h271v-119zM347 266v131h150v-131h-150z" />
    <glyph glyph-name="Lslash.sc" horiz-adv-x="516" 
d="M495 119v-119h-428v246l-57 -15v91l57 15v255h157v-212l96 26v-91l-96 -26v-170h271z" />
    <glyph glyph-name="Eng.sc" horiz-adv-x="669" 
d="M67 0v592h156l134 -194l112 -160h1v354h142v-606q0 -189 -202 -189q-106 0 -187 57l66 102q55 -42 108 -42q68 0 72 68v13l-135 191l-124 170h-1v-356h-142z" />
    <glyph glyph-name="OE.sc" horiz-adv-x="964" 
d="M341 110q67 0 106.5 50.5t39.5 135.5t-39 134t-107 49t-107 -49t-39 -134t39.5 -135.5t106.5 -50.5zM334 -11q-57 0 -108.5 18.5t-94 54.5t-68 96.5t-25.5 137.5t26.5 138t70 96.5t94.5 54t105 18.5q110 0 170 -68v57h411v-122h-284v-109h205v-118h-205v-124h299v-119
h-426v54q-59 -65 -170 -65z" />
    <glyph glyph-name="Tbar.sc" horiz-adv-x="569" 
d="M547 204h-183v-204h-158v204h-182v102h182v164h-182v122h523v-122h-183v-164h183v-102z" />
    <glyph glyph-name="ordfeminine.sc" horiz-adv-x="494" 
d="M232 442l-28 -78h78l-27 78l-10 32h-2zM154 221h-106l140 373h116l141 -373h-116l-23 69h-126z" />
    <glyph glyph-name="ordmasculine.sc" horiz-adv-x="466" 
d="M233 215q-79 0 -135.5 47t-56.5 147q0 101 56.5 147.5t135.5 46.5t135.5 -46.5t56.5 -147.5q0 -100 -56.5 -147t-135.5 -47zM233 296q77 0 77 113q0 50 -18.5 80.5t-58.5 30.5q-38 0 -57.5 -30t-19.5 -81q0 -113 77 -113z" />
    <glyph glyph-name="germandbls.sc" horiz-adv-x="1218" 
d="M925 -13q-88 0 -163 33t-118 101l117 79q22 -45 68.5 -70.5t94.5 -25.5q99 0 99 59q0 32 -24.5 45t-92.5 27q-58 12 -94.5 23.5t-72.5 33t-53 56t-17 82.5q0 78 63 125.5t165 47.5q182 0 264 -113l-103 -83q-23 34 -67.5 56.5t-88.5 22.5q-82 0 -82 -53q0 -34 26.5 -47
t104.5 -29q11 -3 17 -4q45 -10 75.5 -20t64.5 -30t51.5 -53t17.5 -79q0 -87 -70.5 -135.5t-181.5 -48.5zM316 -13q-88 0 -163 33t-118 101l117 79q22 -45 68.5 -70.5t94.5 -25.5q99 0 99 59q0 32 -24.5 45t-92.5 27q-58 12 -94.5 23.5t-72.5 33t-53 56t-17 82.5
q0 78 63 125.5t165 47.5q182 0 264 -113l-103 -83q-23 34 -67.5 56.5t-88.5 22.5q-82 0 -82 -53q0 -34 26.5 -47t104.5 -29q11 -3 17 -4q45 -10 75.5 -20t64.5 -30t51.5 -53t17.5 -79q0 -87 -70.5 -135.5t-181.5 -48.5z" />
    <glyph glyph-name="zero.sc" horiz-adv-x="587" 
d="M294 -12q-123 0 -192.5 83.5t-69.5 224.5q0 140 69.5 223.5t192.5 83.5t192.5 -83.5t69.5 -223.5q0 -141 -69.5 -224.5t-192.5 -83.5zM294 100q110 0 110 196q0 194 -110 194q-112 0 -112 -194q0 -196 112 -196z" />
    <glyph glyph-name="one.sc" horiz-adv-x="401" 
d="M381 0h-350v119h117v338q-54 -27 -116 -27v124q75 0 119 38h128v-473h102v-119z" />
    <glyph glyph-name="two.sc" horiz-adv-x="518" 
d="M478 0h-453v14q0 77 37.5 140.5t148.5 134.5q67 43 93.5 70.5t26.5 60.5q0 65 -71 65q-75 0 -123 -86l-106 67q38 64 100 101t137 37q96 0 151 -47t55 -127q0 -60 -31 -102.5t-100 -88.5q-98 -65 -121 -90q-16 -16 -20 -30h276v-119z" />
    <glyph glyph-name="three.sc" horiz-adv-x="541" 
d="M255 -14q-151 0 -238 102l91 83q58 -70 142 -70q102 0 102 73q0 46 -34 64t-108 18h-31v103h32q77 0 103 17.5t26 49.5q0 61 -87 61q-73 0 -132 -55l-80 88q42 39 103 61.5t125 22.5q100 0 158.5 -41.5t58.5 -113.5q0 -53 -31.5 -90t-92.5 -47q68 -7 106 -47t38 -100
q0 -82 -70.5 -130.5t-180.5 -48.5z" />
    <glyph glyph-name="four.sc" horiz-adv-x="562" 
d="M451 0h-143v108h-293v107l274 377h162v-369h102v-115h-102v-108zM307 418l-138 -195h139v195h-1z" />
    <glyph glyph-name="five.sc" horiz-adv-x="515" 
d="M249 -14q-141 0 -237 82l77 98q71 -64 155 -64q52 0 79 26t27 70q0 96 -98 96q-67 0 -110 -60l-95 29l23 329h385l-10 -119h-261q0 -9 -4 -56.5t-5 -56.5q39 36 117 36q98 0 152 -52.5t54 -144.5q0 -99 -67.5 -156t-181.5 -57z" />
    <glyph glyph-name="six.sc" horiz-adv-x="558" 
d="M292 -12q-115 0 -184 78t-69 220q0 82 23.5 145t63.5 99.5t87 54.5t99 18q111 0 182 -49l-62 -98q-49 36 -115 36q-54 0 -90 -41t-43 -118q63 54 145 54q88 0 144 -49t56 -144q0 -94 -64 -150t-173 -56zM298 95q42 0 66.5 26t24.5 68q0 93 -90 93q-65 0 -115 -47
q9 -140 114 -140z" />
    <glyph glyph-name="seven.sc" horiz-adv-x="464" 
d="M223 0h-149l225 473h-284v119h436v-111z" />
    <glyph glyph-name="eight.sc" horiz-adv-x="546" 
d="M273 -13q-120 0 -184.5 43.5t-64.5 119.5q0 102 131 156q-51 27 -77 60.5t-26 85.5q0 65 61 108t160 43q105 0 163 -42.5t58 -108.5q0 -92 -103 -139q65 -28 98 -64t33 -97q0 -77 -65 -121t-184 -44zM283 359q69 33 69 80q0 26 -19.5 44.5t-58.5 18.5t-59.5 -17.5
t-20.5 -43.5q0 -28 21 -46.5t68 -35.5zM273 87q47 0 74 20t27 54q0 30 -25.5 51.5t-84.5 44.5q-92 -40 -92 -96q0 -33 27.5 -53.5t73.5 -20.5z" />
    <glyph glyph-name="nine.sc" horiz-adv-x="559" 
d="M259 311q66 0 116 45q-7 140 -114 140q-43 0 -67 -26t-24 -67q0 -92 89 -92zM247 -12q-113 0 -186 53l62 97q55 -39 119 -39q54 0 90 42t43 121q-21 -22 -61.5 -39t-81.5 -17q-89 0 -146 49t-57 143q0 93 64.5 149t173.5 56q116 0 184.5 -77t68.5 -220q0 -82 -23.5 -145
t-63.5 -99.5t-87 -55t-99 -18.5z" />
    <glyph glyph-name="exclam.sc" horiz-adv-x="309" 
d="M62 592h185l-34 -404h-116zM75 127h160v-127h-160v127z" />
    <glyph glyph-name="exclamdown.sc" horiz-adv-x="309" 
d="M235 592v-126h-160v126h160zM212 404l36 -404h-186l34 404h116z" />
    <glyph glyph-name="question.sc" horiz-adv-x="514" 
d="M306 186h-129q-5 21 -5 50q0 46 22.5 73t64.5 50q27 16 38 23.5t21.5 21.5t10.5 31q0 50 -78 50q-36 0 -80 -17.5t-75 -45.5l-74 103q97 83 243 83q104 0 158 -42t54 -116q0 -30 -8.5 -54t-26.5 -42.5t-33 -29t-40 -24.5q-39 -23 -54 -46.5t-9 -67.5zM320 127v-127h-161
v127h161z" />
    <glyph glyph-name="questiondown.sc" horiz-adv-x="500" 
d="M183 465v126h161v-126h-161zM198 406h128q5 -22 5 -50q0 -47 -22.5 -74t-63.5 -50q-26 -14 -38 -22t-22 -22t-10 -31q0 -50 77 -50q36 0 80.5 18t74.5 45l74 -104q-98 -82 -243 -82q-104 0 -158 42t-54 116q0 40 18.5 71t36.5 44.5t53 34.5q39 23 54.5 46t9.5 68z" />
    <glyph glyph-name="numbersign.sc" horiz-adv-x="666" 
d="M293 340l-19 -87h83l19 87h-83zM219 0h-136l31 141h-89v112h113l20 87h-97v112h121l31 140h135l-30 -140h82l31 140h136l-32 -140h107v-112h-131l-18 -87h112v-112h-137l-29 -141h-137l30 141h-81z" />
    <glyph glyph-name="percent.sc" horiz-adv-x="959" 
d="M201 209q-76 0 -121.5 54.5t-45.5 144.5q0 89 47 144t121 55q73 0 119 -54.5t46 -143.5q0 -90 -45.5 -145t-120.5 -55zM236 0l354 592h129l-354 -592h-129zM202 305q51 0 51 103q0 101 -52 101q-53 0 -53 -100q0 -104 54 -104zM760 -9q-76 0 -122 54.5t-46 143.5
q0 90 47 144.5t121 54.5q73 0 119 -54.5t46 -143.5q0 -90 -45.5 -144.5t-119.5 -54.5zM760 86q52 0 52 104q0 101 -52 101q-53 0 -53 -101q0 -104 53 -104z" />
    <glyph glyph-name="perthousand.sc" horiz-adv-x="1325" 
d="M194 209q-76 0 -121.5 54.5t-45.5 144.5q0 89 46.5 144t120.5 55t119.5 -54.5t45.5 -143.5q0 -90 -45 -145t-120 -55zM229 0l354 592h129l-354 -592h-129zM194 305q52 0 52 103q0 101 -52 101q-54 0 -54 -100q0 -104 54 -104zM1133 -9q-76 0 -121.5 54t-45.5 144
t47 144.5t121 54.5q73 0 119 -54.5t46 -143.5q0 -90 -45.5 -144.5t-120.5 -54.5zM752 -9q-76 0 -121.5 54.5t-45.5 143.5q0 90 47 144.5t121 54.5q73 0 119 -54.5t46 -143.5q0 -90 -45.5 -144.5t-120.5 -54.5zM1133 86q52 0 52 104q0 101 -52 101q-54 0 -54 -101
q0 -104 54 -104zM753 86q51 0 51 104q0 101 -52 101q-53 0 -53 -101q0 -104 54 -104z" />
    <glyph glyph-name="ampersand.sc" horiz-adv-x="639" 
d="M257 453q0 -39 18 -75q75 36 75 83q0 50 -42 50q-51 0 -51 -58zM256 94q33 0 67 16q-26 24 -48 50q-41 44 -71 87q-52 -35 -52 -75q0 -39 29 -58.5t75 -19.5zM471 305h123q-16 -101 -65 -176q47 -22 92 -22v-115q-97 -10 -191 42q-76 -45 -175 -45q-121 0 -181 44.5
t-60 120.5q0 66 38 106.5t105 71.5q-33 66 -33 122q0 64 45 109.5t137 45.5q79 0 120 -38t41 -99q0 -63 -39 -102t-108 -70q19 -27 51 -59q28 -31 57 -55q36 51 43 119z" />
    <glyph glyph-name="slash.sc" horiz-adv-x="547" 
d="M180 0h-157l344 592h157z" />
    <glyph glyph-name="backslash.sc" horiz-adv-x="547" 
d="M180 592l344 -592h-157l-344 592h157z" />
    <glyph glyph-name="fraction.sc" horiz-adv-x="457" 
d="M122 0h-139l352 592h138z" />
    <glyph glyph-name="plus.sc" horiz-adv-x="646" 
d="M387 38h-128v200h-192v127h192v200h128v-200h192v-127h-192v-200z" />
    <glyph glyph-name="minus.sc" horiz-adv-x="646" 
d="M579 238h-512v127h512v-127z" />
    <glyph glyph-name="divide.sc" horiz-adv-x="646" 
d="M390 436h-135v119h135v-119zM579 239h-512v127h512v-127zM390 48h-135v119h135v-119z" />
    <glyph glyph-name="multiply.sc" horiz-adv-x="646" 
d="M323 209l-159 -159l-93 94l157 158l-157 156l93 94l158 -157l156 157l94 -94l-156 -156l158 -156l-93 -94z" />
    <glyph glyph-name="equal.sc" horiz-adv-x="646" 
d="M575 358h-505v114h505v-114zM575 130h-505v114h505v-114z" />
    <glyph glyph-name="less.sc" horiz-adv-x="646" 
d="M589 157v-132l-529 232v88l529 232v-132l-357 -144z" />
    <glyph glyph-name="greater.sc" horiz-adv-x="646" 
d="M591 257l-529 -232v132l357 144l-357 144v132l529 -232v-88z" />
    <glyph glyph-name="dollar.sc" horiz-adv-x="583" 
d="M247 372v126q-29 -4 -45.5 -20.5t-16.5 -40.5q0 -44 62 -65zM334 229v-133q70 9 70 63q0 28 -18 44t-52 26zM337 -73h-93v67q-134 15 -208 132q17 9 54.5 32.5t49.5 30.5q50 -77 107 -89v151q-88 21 -139 61t-51 116q0 73 50.5 118.5t136.5 53.5v57h92v-59
q112 -14 177 -110l-98 -69q-19 28 -37 45t-44 27v-139q97 -23 147 -62.5t50 -118.5q0 -70 -48 -118.5t-146 -59.5v-66z" />
    <glyph glyph-name="sterling.sc" horiz-adv-x="592" 
d="M137 -13q-51 0 -85.5 25t-34.5 76q0 52 35 80.5t85 28.5q40 0 89 -29v17q-4 35 -29 78h-116v71h67q-36 56 -36 103q0 70 56 118t141 48q179 0 212 -169l-129 -26q-5 25 -11.5 42t-22.5 31t-40 14q-27 0 -44 -15t-17 -42q0 -18 7.5 -38t14 -30.5t22.5 -35.5h139v-71h-102
q16 -43 16 -84q0 -37 -15 -74q26 -17 46 -17q33 0 49 17t17 65h116q-2 -40 -9 -69.5t-23.5 -57t-48 -42t-77.5 -14.5q-73 0 -138 43q-56 -43 -134 -43zM140 60q40 0 61 28q-36 34 -62 34q-16 0 -25.5 -8.5t-9.5 -21.5q0 -32 36 -32z" />
    <glyph glyph-name="yen.sc" horiz-adv-x="582" 
d="M217 0v75h-146v71h146v49h-146v71h145l-202 326h154l124 -213l125 213h151l-202 -326h148v-71h-148v-49h148v-70h-148v-76h-149z" />
    <glyph glyph-name="Euro.sc" horiz-adv-x="637" 
d="M367 -11q-204 0 -248 206h-93v71h85q-1 11 -1 31v18h-84v71h91q17 107 85.5 162.5t163.5 55.5q172 0 227 -169l-116 -40q-17 49 -42 72.5t-67 23.5q-43 0 -71.5 -26.5t-35.5 -78.5h121v-71h-128v-18q0 -22 1 -31h127v-71h-119q23 -95 106 -95q81 0 112 105l117 -35
q-59 -181 -231 -181z" />
    <glyph glyph-name="florin.sc" horiz-adv-x="384" 
d="M-62 -161l12 100q18 -4 39 -4q62 0 70 62q17 112 40 302h-75l11 98h77q5 47 7 55q17 139 178 139q57 0 87 -5l-13 -99q-18 4 -38 4q-19 0 -31.5 -3t-23.5 -14.5t-14 -32.5l-6 -44h95l-12 -98h-94q-2 -16 -22.5 -169t-23.5 -170q-16 -126 -176 -126q-69 0 -87 5z" />
    <glyph glyph-name="space.tab" horiz-adv-x="325" 
 />
    <glyph glyph-name="zero.tab" 
d="M325 -14q-139 0 -219.5 104.5t-80.5 279.5t80.5 279.5t219.5 104.5t219 -104.5t80 -279.5t-80 -279.5t-219 -104.5zM325 113q70 0 107.5 65.5t37.5 191.5q0 125 -38 189.5t-107 64.5q-71 0 -108.5 -64.5t-37.5 -189.5t38.5 -191t107.5 -66z" />
    <glyph glyph-name="one.tab" 
d="M108 0v127h153v466q-26 -14 -72 -24t-79 -10v133q108 4 155 48h154v-613h137v-127h-448z" />
    <glyph glyph-name="two.tab" 
d="M50 0v16q0 38 2.5 63.5t14.5 61.5t34 66t63 68t100 77q93 61 124.5 93.5t31.5 82.5q0 43 -25 67t-70 24q-90 0 -158 -107l-114 80q102 162 277 162q118 0 183 -57.5t65 -157.5q0 -69 -32.5 -124.5t-127.5 -118.5q-102 -67 -141 -102t-49 -67h352v-127h-530z" />
    <glyph glyph-name="three.tab" 
d="M304 -14q-176 0 -277 127l96 90q34 -43 80.5 -65.5t93.5 -22.5q60 0 91.5 26.5t31.5 76.5q0 60 -41.5 84.5t-129.5 24.5h-36v119h38q90 0 122.5 25t32.5 68q0 82 -104 82q-91 0 -161 -69l-85 101q48 47 118 73.5t145 26.5q117 0 182 -49.5t65 -139.5q0 -66 -36 -111.5
t-103 -59.5q79 -14 120.5 -63.5t41.5 -121.5q0 -103 -79 -162.5t-206 -59.5z" />
    <glyph glyph-name="four.tab" 
d="M369 0v145h-337v118l312 477h181v-467h100v-128h-100v-145h-156zM188 273h181v273h-2z" />
    </font>
</defs>
</svg>
